<?xml version="1.0" encoding="utf-8"?>
<!-- Generator: Adobe Illustrator 18.1.0, SVG Export Plug-In . SVG Version: 6.00 Build 0)  -->
<svg version="1.1" id="Layer_1" xmlns="http://www.w3.org/2000/svg" xmlns:xlink="http://www.w3.org/1999/xlink" x="0px" y="0px"
	 viewBox="0 0 139.9 99.1" enable-background="new 0 0 139.9 99.1" xml:space="preserve">
<g>
	<rect x="0" y="0" fill="none" width="139.9" height="99.1"/>
	<g>
		<g>
			<path d="M5.7,28.4c0.8-0.2,1.6-0.1,2.3-0.1c3.1,0,6.3-0.1,9.4,0.1c0.3,0.8,0.2,1.6,0.2,2.4c0,5,0.1,9.9-0.1,14.9
				c0,1.8-0.1,3.7,0.1,5.5c0.3,2.8,2.2,5.3,4.7,6.5c2,1,4.4,1.1,6.5,0.3c0.9-0.3,1.6-0.9,2.5-1.2c0.1,3.6,0,7.2,0.1,10.8
				c0,0.8,0.1,1.6-0.1,2.4c-0.7,0.6-1.7,0.5-2.5,0.7c-2.6,0.3-5.3,0.2-7.9-0.4c-4.7-1.1-8.9-4-11.7-7.9c-2.6-3.6-4.1-8-4-12.4
				c0-5.3,0-10.6,0-15.9c-0.1-1.6-0.1-3.2-0.1-4.7C5.2,29,5.2,28.5,5.7,28.4z"/>
			<g>
				<path d="M52.9,59.9c0.1,0,0.4,0,0.6,0c0,0.9,0,1.8,0,2.7c0.8-0.5,1.9-0.8,2.7-0.2c0.8,0.6,0.9,1.7,0.9,2.7c0,0.8-0.3,1.6-1,2.1
					c-0.9,0.4-1.8,0.1-2.6-0.3c0,0.1,0,0.4,0,0.5c-0.2,0-0.5,0-0.6,0C52.9,64.8,52.9,62.3,52.9,59.9z M54.5,62.7
					c-1.2,0.4-1,1.8-0.9,2.8c0.1,1.4,2.2,1.6,2.7,0.5c0.2-0.8,0.2-1.6,0-2.4C56.2,62.8,55.2,62.5,54.5,62.7z"/>
			</g>
			<path d="M58.6,60.7c0-0.3,0-0.6,0-0.9c0.2,0,0.6,0,0.7,0c0,0.3,0,0.5,0,0.8C59.1,60.7,58.8,60.7,58.6,60.7z"/>
			<path d="M75.1,59.9c0.3,0,0.5,0,0.8,0c0,0.3,0,0.6,0,0.8c-0.2,0-0.5,0-0.7,0C75.2,60.4,75.2,60.2,75.1,59.9z"/>
			<path d="M102.8,59.9c0.2,0,0.5,0,0.6,0c0,0.9,0,1.8,0,2.7c1-0.7,2.7-0.8,3.2,0.5c0.3,1.4,0.1,2.8,0.1,4.2c-0.1,0-0.4,0-0.6,0
				c0-1.3,0.1-2.5-0.1-3.8c-0.3-1.2-2.3-1.1-2.6,0c-0.2,1.2,0,2.5,0,3.7c-0.2,0-0.5,0-0.6,0C102.8,64.8,102.8,62.3,102.8,59.9z"/>
			<path d="M61.5,60.4c0.2,0,0.5,0,0.6,0c0,0.6,0,1.2,0,1.7c0.4,0,0.8,0,1.3,0c0,0.1,0,0.3,0,0.4c-0.4,0-0.8,0-1.2,0
				c0,1.4-0.1,2.7,0.1,4.1c0.4,0,0.7,0.1,1.1,0.1c0,0.1,0,0.4,0,0.6c-0.6-0.1-1.6,0.1-1.7-0.8c-0.2-1.3,0-2.6-0.1-3.9
				c-0.3-0.1-0.6-0.2-1-0.3c0.3-0.1,0.6-0.2,1-0.3C61.5,61.5,61.5,60.9,61.5,60.4z"/>
			<path d="M58.6,62.1c0.2,0,0.5,0,0.6,0c0,1.7,0,3.4,0,5.1c-0.2,0-0.5,0-0.6,0C58.6,65.5,58.6,63.8,58.6,62.1z"/>
			<path d="M64.4,63.2c0.6-1.5,3.3-1.5,3.7,0.1c-0.7-0.2-1.4-1-2.2-0.7c-0.9,0.2-1.1,1.3-1.1,2.1c0,0.7,0.2,1.6,1,1.8
				c0.9,0.3,1.6-0.4,2.3-0.7c-0.3,1.7-2.9,1.7-3.6,0.3C64.1,65.4,64.1,64.2,64.4,63.2z"/>
			<g>
				<path d="M71.3,62.1c0.7-0.1,1.5,0.1,1.9,0.7c0.6,0.9,0.6,2,0.3,3.1c-0.4,1.7-3,1.9-3.9,0.4c-0.4-0.8-0.4-1.8-0.2-2.7
					C69.7,62.8,70.5,62.1,71.3,62.1z M70.2,63.5c-0.3,0.9-0.3,1.9,0.2,2.7c0.5,0.7,1.4,0.5,2.1,0.4c0.7-0.8,0.8-2,0.5-3
					C72.7,62.4,70.7,62.3,70.2,63.5z"/>
			</g>
			<path d="M75.3,62.1c0.2,0,0.5,0,0.6,0c0,1.7,0,3.4,0,5.1c-0.2,0-0.5,0-0.6,0C75.3,65.5,75.3,63.8,75.3,62.1z"/>
			<path d="M78,62.1c0.2,0,0.5,0,0.6,0c0,0.1,0,0.4,0,0.5c0.6-0.3,1.2-0.6,1.9-0.5c0.8,0.1,1.4,0.7,1.4,1.5c0.1,1.2,0,2.4,0,3.7
				c-0.2,0-0.5,0-0.6,0c0-1.2,0.1-2.5-0.1-3.7c-0.3-1.3-2.4-1.1-2.6,0.1c-0.1,1.2,0,2.4,0,3.6c-0.1,0-0.4,0-0.6,0
				C78,65.5,78,63.8,78,62.1z"/>
			<g>
				<path d="M86.9,63.4c0.4-1.5,2.5-1.7,3.5-0.7c0.5,0.6,0.5,1.4,0.6,2.1c-1.3,0-2.5,0-3.7,0c0.1,0.6,0.1,1.3,0.7,1.6
					c0.7,0.6,1.7,0.3,2.4-0.2c0.3-0.4,0.4,0.1,0.5,0.3c-1,1-3,1.1-3.8-0.2C86.7,65.4,86.7,64.3,86.9,63.4z M87.9,62.8
					c-0.5,0.3-0.5,1-0.6,1.5c1.1,0,2.1,0,3.2,0c-0.1-0.5-0.2-1-0.5-1.4C89.4,62.5,88.5,62.4,87.9,62.8z"/>
			</g>
			<path d="M92.1,62.1c0.2,0,0.5,0,0.7,0c0.4,0.7,0.8,1.3,1.3,1.9c0.4-0.6,0.9-1.3,1.3-1.9c0.2,0,0.5,0,0.7,0
				c-0.5,0.8-1.1,1.7-1.7,2.5c0.6,0.9,1.3,1.8,1.9,2.7c-0.2,0-0.5,0-0.7,0c-0.5-0.7-1-1.5-1.5-2.2c-0.7,0.8-1,2.2-2.2,2.3
				c0.6-1,1.2-1.9,1.9-2.8C93.3,63.7,92.7,62.9,92.1,62.1z"/>
			<path d="M97.5,63c0.7-1.4,3.3-1.3,3.6,0.4c-0.8-0.4-1.8-1.2-2.7-0.5c-0.9,0.9-0.8,2.5-0.1,3.5c0.9,0.8,2,0.1,2.8-0.4
				c-0.3,1.7-3.1,1.7-3.7,0.2C97.1,65.2,97.1,64,97.5,63z"/>
			<g>
				<path d="M108.5,62.5c0.9-0.4,1.9-0.6,2.8-0.3c0.5,0.2,0.8,0.6,0.8,1.1c0.1,1.3,0,2.7,0,4c-1-0.5-2.2,0.3-3.2-0.2
					c-1-0.4-1-2.1,0-2.5c0.8-0.3,1.8-0.2,2.6-0.2c0-0.5-0.1-1.1-0.3-1.6c-0.8-0.2-1.7-0.2-2.5,0.2C108.8,62.8,108.6,62.6,108.5,62.5
					z M109.1,65c-0.1,0.4-0.3,0.7-0.3,1.1c0.4,0.8,1.6,0.8,2.3,0.4c0.6-0.3,0.4-1.2,0.5-1.7C110.8,64.8,109.9,64.8,109.1,65z"/>
			</g>
			<path d="M114.2,62.1c0.2,0,0.5,0,0.6,0c0,0.1,0,0.4,0,0.5c0.9-0.7,2.7-0.8,3.2,0.4c0.3,1.4,0.1,2.8,0.2,4.2c-0.2,0-0.5,0-0.6,0
				c0-1.3,0.1-2.5-0.1-3.8c-0.3-1.2-2.3-1.1-2.6,0.1c-0.1,1.2,0,2.5,0,3.7c-0.2,0-0.5,0-0.6,0C114.2,65.5,114.2,63.8,114.2,62.1z"/>
			<g>
				<path d="M120.9,62.3c0.8-0.4,1.7-0.1,2.4,0.3c0-0.1,0-0.4,0-0.5c0.2,0,0.5,0,0.6,0c0,1.8,0,3.6,0,5.4c0,0.9-0.8,1.8-1.7,1.8
					c-0.8,0.1-1.6-0.2-2.2-0.7c0.1-0.1,0.3-0.3,0.4-0.4c0.7,0.5,1.7,0.8,2.4,0.3c0.6-0.4,0.5-1.1,0.6-1.7c-0.7,0.3-1.6,0.7-2.4,0.4
					c-1-0.4-1.2-1.6-1.2-2.6C119.8,63.7,120,62.6,120.9,62.3z M121.3,62.7c-0.7,0.3-0.9,1.1-0.9,1.8c0,0.8,0.1,1.7,0.9,2.1
					c0.5,0.2,1.2,0.2,1.6-0.3c0.4-0.4,0.4-1,0.4-1.5c0-0.6,0-1.3-0.4-1.7C122.5,62.6,121.8,62.6,121.3,62.7z"/>
			</g>
			<g>
				<path d="M125.7,63.4c0.4-1.7,3.2-1.7,3.8-0.2c0.2,0.5,0.2,1,0.3,1.6c-1.2,0-2.5,0-3.7,0c0.1,0.7,0.3,1.5,1,1.8
					c0.9,0.4,1.7-0.2,2.4-0.6c0.3,0.6-0.4,0.9-0.8,1.1c-1,0.4-2.3,0.2-2.8-0.8C125.4,65.4,125.4,64.3,125.7,63.4z M126.4,63.1
					c-0.2,0.4-0.3,0.8-0.4,1.2c1.1,0,2.1,0,3.2,0c-0.1-0.4-0.2-0.8-0.4-1.2C128.3,62.4,127,62.4,126.4,63.1z"/>
			</g>
		</g>
		<g>
			<path d="M21.3,30c3.5-0.9,7.3-0.7,10.8,0.3c2.7,0.9,5.4,2.2,7.5,4.2c0.2,0.2,0.4,0.3,0.6,0.5l0,0.1c0.5,0.4,1,0.9,1.4,1.4
				c0.2,0.3,0.4,0.6,0.6,0.9l0.2,0l0,0.2c0.4,0.5,0.7,1,1.1,1.5c0.2,0.3,0.4,0.7,0.7,1c0,0.1,0,0.2,0,0.3l0.3,0.1c0,0.1,0,0.2,0,0.3
				c3.5,6.4,2.9,14.8-1.2,20.8c-0.1,0.2-0.3,0.4-0.4,0.6c-0.3,0.3-0.5,0.7-0.8,1c-0.2,0.2-0.3,0.4-0.5,0.7c-0.6,0.6-1.2,1.3-1.9,1.8
				l0,0.2l-0.3-0.2l0,0.3c-0.7,0.5-1.3,1-2,1.4l0,0.1c-0.3,0.1-0.5,0.2-0.8,0.4v0.1c-0.7,0.4-1.4,0.7-2.2,1.1
				c-0.1-6.3,0-12.7-0.1-19c-0.1-0.9-0.2-1.9-0.5-2.8c-0.3-0.6-0.6-1.2-0.9-1.7c0,0-0.1-0.1-0.1-0.2c-0.3-0.3-0.6-0.6-0.8-1
				c-0.4-0.3-0.8-0.7-1.2-1c-2.3-1.6-5.3-2-7.9-1c-0.6,0.3-1.2,0.6-1.7,0.9c-0.1,0-0.4,0-0.6,0c0-4,0-8.1,0-12.1
				C20.6,30.6,20.8,30,21.3,30z"/>
			<path d="M128.9,54.3c0.3-1.9,2.8-3,4.4-1.9c0.2,0.2,0.4,0.3,0.6,0.5c1.3,1.3,1,3.5-0.4,4.6c-1.3,0.8-3.2,0.7-4.1-0.7l-0.1,0
				c-0.4-0.8-0.6-1.6-0.5-2.5L128.9,54.3z"/>
		</g>
		<g>
			<path d="M95.1,38.8c1.5-1.9,4.1-2.5,6.4-2.5c2.3,0.1,4.7,0.7,6.6,2.1c0.6,0.4,0,1-0.2,1.4c-0.6,0.7-0.9,1.7-1.7,2.3
				c-1.7-0.9-3.5-1.8-5.4-1.6c-0.9,0-1.9,0.5-2.2,1.5c-0.2,0.7-0.1,1.6,0.5,2c1,0.7,2.2,0.8,3.4,1c1.9,0.2,3.9,0.7,5.3,2.1
				c1.6,1.7,1.9,4.3,1.2,6.4c-0.7,2.2-2.8,3.7-5,4.2c-3.8,0.8-8,0-10.9-2.5c0-0.2,0-0.5,0-0.7c0.8-0.9,1.5-1.8,2.3-2.7
				c0.1,0,0.4,0,0.5,0c1.5,1.2,3.2,2,5.1,2.2c1,0.1,2.1-0.1,2.9-0.8c1-0.8,1-2.6-0.2-3.2c-1.6-0.9-3.5-0.7-5.2-1.2
				c-2.1-0.5-4.1-2-4.6-4.1C93.6,42.6,93.8,40.4,95.1,38.8z"/>
			<g>
				<path d="M117.5,36.4c2.7-0.4,5.8,0.2,7.7,2.2c1.8,1.9,2.2,4.6,2.1,7c0,2.9,0.3,6.1-1.2,8.7c-1.2,2.1-3.6,3.3-5.9,3.5
					c-2.1,0.2-4.5-0.1-6.2-1.5c-1.8-1.3-2.7-3.4-2.9-5.5c-0.2-2.6-0.2-5.1,0-7.7c0.3-1.7,0.8-3.4,2-4.6
					C114.2,37.4,115.9,36.7,117.5,36.4z M118,40.6c-1.4,0.4-2.2,1.8-2.3,3.2c-0.2,2-0.1,4-0.1,6c0,1.4,0.4,3.1,1.8,3.8
					c1.5,0.7,3.8,0.4,4.6-1.2c0.8-1.6,0.6-3.4,0.6-5.1c0-1.8,0.2-3.7-0.7-5.3C121.2,40.5,119.4,40.1,118,40.6z"/>
			</g>
			<path d="M70.3,36.7c1.5-0.3,3-0.2,4.6,0c0,6.9,0,13.8,0,20.8c-1.3,0.2-2.7,0.1-4.1,0.1c-0.4,0.1-0.5-0.4-0.5-0.7
				C70.3,50.2,70.3,43.4,70.3,36.7z"/>
			<g>
				<path d="M52.9,36.7c3-0.1,6,0,9,0c1.9,0,3.9,0.6,5.1,2.2c1.7,2.4,1.3,6.2-1.2,7.9c1.7,0.9,2.7,2.8,2.6,4.7
					c0.1,1.7-0.5,3.5-1.8,4.6c-1.6,1.3-3.7,1.6-5.6,1.5c-2.7,0-5.3,0-8,0c-0.1-5.5,0-11-0.1-16.6C52.8,39.6,52.8,38.1,52.9,36.7z
					 M57.4,40.4c0,1.5-0.1,3,0,4.5c0.1,0.4,0.6,0.2,1,0.3c1.3,0,2.7,0.2,3.9-0.4c1.1-0.5,1.4-2,1-3c-0.3-0.9-1.2-1.4-2.1-1.4
					C59.9,40.4,58.6,40.4,57.4,40.4z M57.4,48.8c0,1.7,0,3.3,0,5c1.2,0.1,2.5,0.1,3.7,0c0.8,0,1.7-0.3,2.2-1c0.6-1,0.6-2.4-0.1-3.3
					c-0.5-0.6-1.3-0.8-2.1-0.8C59.9,48.8,58.6,48.8,57.4,48.8z"/>
			</g>
			<path d="M76.7,40.8c-0.3-1.3-0.2-2.7-0.1-4.1c5,0,10,0,15,0c0.3,0,0.8-0.1,1,0.2c0.1,1.3,0.1,2.5,0,3.8c-1.9,0-3.7,0-5.6,0
				c-0.1,5.5,0.1,11-0.1,16.6c-0.1,0.1-0.2,0.2-0.3,0.3c-1.4,0.1-2.8,0-4.2,0c-0.2-5.6,0.1-11.2-0.1-16.8
				C80.4,40.7,78.6,40.7,76.7,40.8z"/>
		</g>
	</g>
</g>
<g>
</g>
<g>
</g>
<g>
</g>
<g>
</g>
<g>
</g>
<g>
</g>
<g>
</g>
<g>
</g>
<g>
</g>
<g>
</g>
<g>
</g>
<g>
</g>
<g>
</g>
<g>
</g>
<g>
</g>
</svg>
