<?xml version="1.0" encoding="utf-8"?>
<!-- Generator: Adobe Illustrator 18.1.0, SVG Export Plug-In . SVG Version: 6.00 Build 0)  -->
<svg version="1.1" id="Layer_1" xmlns="http://www.w3.org/2000/svg" xmlns:xlink="http://www.w3.org/1999/xlink" x="0px" y="0px"
	 viewBox="0 0 139.9 99.1" enable-background="new 0 0 139.9 99.1" xml:space="preserve">
<g>
	<rect x="0" y="0" fill="none" width="139.9" height="99.1"/>
	<g>
		<g>
			<g>
				<path d="M3.1,39.1c3.1,0,6.4-0.6,9.4,0.4c1.7,0.5,3.2,2,3.2,3.8c0.2,1.9-1.2,3.5-2.3,4.9c1.3,0.7,2.5,1.5,3.1,2.9
					c1.3,2.9,0,6.8-3,8c-3.2,1.3-6.7,0.6-10.1,0.8c-0.1-5.5,0-11,0-16.6C3.6,41.9,3.3,40.5,3.1,39.1z M7.6,41.9c0,1.8,0,3.6,0,5.3
					c1.2,0,2.4,0.1,3.6,0.1c0.6-1.4,1.3-3,0.5-4.5C10.8,41.6,9,41.9,7.6,41.9z M7.6,50.2c-0.1,2.2,0,4.4,0,6.6
					c1.2,0,2.4,0.1,3.6-0.3c2.1-0.8,2.6-4,0.9-5.4C10.8,50.1,9.1,50.3,7.6,50.2z"/>
			</g>
			<path d="M21,39.1c1.5,0,2.9,0,4.4,0c0.1,5.6,0.1,11.2,0.1,16.8c0,1.3,0.2,2.6,0.3,3.9c-1.5,0-2.9,0-4.4,0c0-5.4,0-10.7,0-16.1
				C21.5,42.2,21.2,40.6,21,39.1z"/>
			<path d="M28.6,39.1c5.7,0,11.4,0,17.2,0c0,1,0,2,0,3.1c-2.3,0.1-4.5,0-6.7,0.1c0.2,5.9-0.3,11.7,0.4,17.6c-1.5,0-2.9,0-4.4,0
				c-0.1-5.9,0-11.7,0-17.6c-2.2,0-4.3,0-6.5,0C28.6,41.2,28.6,40.1,28.6,39.1z"/>
		</g>
		<g>
			<path d="M51.3,39.4c2.4-0.8,5.1-0.2,7.3,1c-0.2,0.7-0.4,1.4-0.6,2.1c-1.8-0.7-3.9-1.8-5.9-1c-1.8,0.7-2.2,3.2-0.9,4.5
				c1.9,2,4.8,2.6,6.7,4.7c2.4,2.5,1.5,7.3-1.7,8.8c-2.8,1.4-6.5,0.7-8.6-1.5c-0.1-0.9,0.1-1.7,0.2-2.6c1.8,1.3,3.8,2.9,6.1,2.5
				c2.1-0.3,3.3-3.1,2-4.8c-2.1-2.6-6.1-3.1-7.9-6.1C46.7,44.1,48.4,40.4,51.3,39.4z"/>
			<g>
				<path d="M83.2,40.2c0.2-1.1,1.4-0.9,2.2-1.1c1.9,5.3,3.9,10.6,5.8,15.9c0.6,1.7,1.4,3.2,2.1,4.9c-1.1,0.1-2.3,0-3.4,0
					c-0.6-1.8-1.3-3.5-1.8-5.2c-2.5-0.1-5.1,0-7.6,0c-0.7,1.8-1.4,3.5-2,5.3c-0.9,0-1.8,0-2.7,0C78.1,53.2,80.7,46.7,83.2,40.2z
					 M81.2,52.1c2,0,4,0,5.9,0c-1-2.7-2-5.4-2.9-8.1C83.2,46.7,82.2,49.4,81.2,52.1z"/>
			</g>
			<path d="M60.8,39.5c5.3-0.3,10.7,0,16-0.1c0,0.8,0,1.6,0,2.3c-2.2,0-4.5,0-6.7,0c0,4.9,0,9.7,0,14.6c0,1.2,0.2,2.3,0.3,3.5
				c-1,0-2.1,0-3.1,0c0-6,0.1-12.1,0-18.1c-2.1,0.1-4.3,0-6.4,0C60.9,41,60.9,40.3,60.8,39.5z"/>
			<path d="M96.3,39.4c0.7,0.1,1.8-0.3,2.3,0.5c3.1,4.2,5.9,8.5,9,12.7c2.6-4.2,5.3-8.3,7.9-12.5c0.3-0.9,1.4-0.6,2.1-0.7
				c0,5.7,0,11.3,0,17c0,1.2,0.2,2.3,0.3,3.4c-1,0-2.1,0-3.1,0c0-4.7,0-9.4,0-14.1c-2.3,4.1-4.9,7.9-7.4,11.8
				c-2.8-3.9-5.8-7.6-8.2-11.7c0.2,4.7-0.3,9.4,0.3,14c-0.9,0-1.9,0-2.8,0c-0.1-5.1,0-10.2,0-15.3C96.8,42.8,96.6,41.1,96.3,39.4z"
				/>
			<g>
				<path d="M124.3,39.4c3.3,0.2,6.9-0.7,9.9,1.2c1.9,1.2,2.6,3.5,2.6,5.6c-0.5,2.2-1.9,4.2-4,5.1c-1.7,0.9-3.5,0.8-5.4,0.9
					c0.1,2.5-0.1,5.1,0.3,7.6c-1,0-2.1,0-3.1,0c0-5.4,0-10.7,0-16.1C124.6,42.2,124.4,40.8,124.3,39.4z M127.4,41.7
					c0,2.7,0,5.5,0,8.2c1.4,0,2.9,0.2,4.2-0.6c2.3-1.2,2.9-4.9,0.9-6.6C131.1,41.4,129.1,41.7,127.4,41.7z"/>
			</g>
		</g>
	</g>
</g>
<g>
</g>
<g>
</g>
<g>
</g>
<g>
</g>
<g>
</g>
<g>
</g>
<g>
</g>
<g>
</g>
<g>
</g>
<g>
</g>
<g>
</g>
<g>
</g>
<g>
</g>
<g>
</g>
<g>
</g>
</svg>
