<?xml version="1.0" encoding="utf-8"?>
<!-- Generator: Adobe Illustrator 18.1.0, SVG Export Plug-In . SVG Version: 6.00 Build 0)  -->
<svg version="1.1" id="Layer_1" xmlns="http://www.w3.org/2000/svg" xmlns:xlink="http://www.w3.org/1999/xlink" x="0px" y="0px"
	 viewBox="0 0 139.9 99.1" enable-background="new 0 0 139.9 99.1" xml:space="preserve">
<g>
	<rect x="0" y="0" fill="none" width="139.9" height="99.1"/>
	<g>
		<g>
			<g>
				<path d="M9.5,42.2c2,0,3.8,0.7,5.2,2.1c1.4,1.4,2.2,3.3,2.2,5.6c0,2.3-0.7,4.2-2.1,5.7c-1.4,1.5-3.1,2.2-5,2.2S6.1,57,4.6,55.3
					v2.3H1.4V36.5h3.2v8.6C5.9,43.2,7.5,42.2,9.5,42.2 M4.6,50.1c0,1.4,0.4,2.6,1.3,3.5C6.7,54.5,7.8,55,9.1,55s2.3-0.5,3.3-1.4
					c0.9-0.9,1.4-2.1,1.4-3.5c0-1.5-0.5-2.7-1.4-3.6c-0.9-1-2-1.4-3.3-1.4c-1.3,0-2.3,0.5-3.2,1.4C5,47.4,4.6,48.6,4.6,50.1"/>
				<path d="M22.9,45v7.7c0,0.7,0.2,1.3,0.6,1.7c0.4,0.4,0.9,0.6,1.6,0.6c0.7,0,1.3-0.3,2-1l1.3,2.2c-1.1,1-2.4,1.5-3.7,1.5
					s-2.5-0.5-3.5-1.4c-1-0.9-1.4-2.2-1.4-3.8V45h-1.9v-2.6h1.9v-4.8h3.2v4.8h4V45H22.9z"/>
				<path d="M36,57.8c-2.1,0-3.9-0.7-5.4-2.1c-1.5-1.4-2.3-3.3-2.3-5.6c0-2.3,0.8-4.2,2.4-5.6c1.6-1.5,3.5-2.2,5.8-2.2
					c2.3,0,4.2,0.8,5.8,2.4l-1.9,2.3c-1.3-1.1-2.6-1.7-4-1.7c-1.3,0-2.5,0.4-3.5,1.3c-1,0.9-1.5,2-1.5,3.4c0,1.4,0.5,2.6,1.5,3.5
					c1,1,2.2,1.5,3.6,1.5s2.7-0.6,4-1.9l1.9,2C40.6,56.9,38.4,57.8,36,57.8"/>
				<path d="M52.9,45.5c0.6-0.8,0.9-1.6,0.9-2.4c0-0.8-0.3-1.5-0.9-2c-0.6-0.6-1.4-0.8-2.3-0.8c-1.6,0-3,0.8-4.1,2.5l-2.7-1.6
					c0.9-1.3,1.8-2.3,2.9-3c1.1-0.7,2.4-1,4.1-1c1.7,0,3.1,0.5,4.4,1.6c1.3,1.1,1.9,2.5,1.9,4.3c0,1-0.3,2-0.8,2.9
					c-0.5,0.9-1.5,2.1-2.9,3.6l-4.7,4.8h9v3.2H44v-2.8l6-6.1C51.4,47.3,52.3,46.3,52.9,45.5"/>
				<path d="M70.3,45.5c-1.6,0-2.8,0.5-3.6,1.5c-0.8,1-1.2,2.4-1.2,4.1v6.5h-3.2V42.5h3.2v3c0.5-0.9,1.2-1.7,2.1-2.3
					c0.9-0.6,1.8-0.9,2.8-0.9l0,3.2H70.3z"/>
				<path d="M73,39.5c-0.4-0.4-0.6-0.9-0.6-1.4c0-0.5,0.2-1,0.6-1.4c0.4-0.4,0.9-0.6,1.4-0.6s1,0.2,1.4,0.6c0.4,0.4,0.6,0.9,0.6,1.4
					c0,0.6-0.2,1-0.6,1.4C75.4,39.9,75,40,74.4,40S73.4,39.9,73,39.5 M76,57.6h-3.2V42.5H76V57.6z"/>
				<path d="M88.1,42.2c2,0,3.8,0.7,5.2,2.1c1.4,1.4,2.2,3.3,2.2,5.6c0,2.3-0.7,4.2-2.1,5.7c-1.4,1.5-3.1,2.2-5,2.2
					c-1.9,0-3.6-0.8-5.1-2.5v7.8h-3.2V42.5h3.2v2.6C84.4,43.2,86,42.2,88.1,42.2 M83.1,50.1c0,1.4,0.4,2.6,1.3,3.5
					c0.9,0.9,1.9,1.4,3.2,1.4c1.3,0,2.3-0.5,3.3-1.4c0.9-0.9,1.4-2.1,1.4-3.5c0-1.5-0.5-2.7-1.4-3.6c-0.9-1-2-1.4-3.3-1.4
					c-1.3,0-2.3,0.5-3.2,1.4C83.5,47.4,83.1,48.6,83.1,50.1"/>
				<path d="M106.6,42.2c2,0,3.8,0.7,5.2,2.1c1.4,1.4,2.2,3.3,2.2,5.6c0,2.3-0.7,4.2-2.1,5.7c-1.4,1.5-3.1,2.2-5,2.2
					c-1.9,0-3.6-0.8-5.1-2.5v7.8h-3.2V42.5h3.2v2.6C103,43.2,104.6,42.2,106.6,42.2 M101.7,50.1c0,1.4,0.4,2.6,1.3,3.5
					c0.9,0.9,1.9,1.4,3.2,1.4c1.3,0,2.3-0.5,3.3-1.4s1.4-2.1,1.4-3.5c0-1.5-0.5-2.7-1.4-3.6c-0.9-1-2-1.4-3.3-1.4
					c-1.3,0-2.3,0.5-3.2,1.4C102.1,47.4,101.7,48.6,101.7,50.1"/>
				<rect x="117.1" y="36.5" width="3.2" height="21.1"/>
				<path d="M138.4,51.4h-11.9c0.1,1.1,0.6,2,1.5,2.7c0.9,0.7,2,1,3.2,1c1.9,0,3.3-0.6,4.3-1.8l1.8,2c-1.6,1.7-3.8,2.5-6.4,2.5
					c-2.1,0-3.9-0.7-5.4-2.1c-1.5-1.4-2.2-3.3-2.2-5.7c0-2.4,0.8-4.3,2.3-5.7c1.5-1.4,3.3-2.1,5.4-2.1c2.1,0,3.8,0.6,5.2,1.9
					c1.4,1.2,2.2,3,2.2,5.1V51.4z M126.6,48.9h8.7c0-1.3-0.4-2.2-1.2-2.9c-0.8-0.7-1.8-1-2.9-1c-1.2,0-2.2,0.4-3.1,1.1
					C127,46.8,126.6,47.7,126.6,48.9"/>
				<polygon points="55.6,61.3 53.6,59.3 56.8,56.1 53.8,53.1 55.8,51.1 60.8,56.1 				"/>
			</g>
		</g>
	</g>
</g>
<g>
</g>
<g>
</g>
<g>
</g>
<g>
</g>
<g>
</g>
<g>
</g>
<g>
</g>
<g>
</g>
<g>
</g>
<g>
</g>
<g>
</g>
<g>
</g>
<g>
</g>
<g>
</g>
<g>
</g>
</svg>
