<?xml version="1.0" encoding="utf-8"?>
<!-- Generator: Adobe Illustrator 18.1.0, SVG Export Plug-In . SVG Version: 6.00 Build 0)  -->
<svg version="1.1" id="Layer_1" xmlns="http://www.w3.org/2000/svg" xmlns:xlink="http://www.w3.org/1999/xlink" x="0px" y="0px"
	 viewBox="0 0 139.9 99.1" enable-background="new 0 0 139.9 99.1" xml:space="preserve">
<g>
	<rect x="0" y="0" fill="none" width="139.9" height="99.1"/>
	<g>
		<g>
			<path d="M21.7,26.7h-0.5c-2.2,0-3.9,1.8-3.9,3.9v37.8c0,2.2,1.8,3.9,3.9,3.9h37.8c2.2,0,3.9-1.8,3.9-3.9v-0.5
				C63,45.2,44.5,26.7,21.7,26.7z M25.6,39.8c1.6-0.1,3,1.1,3.1,2.6c0.1,1.6-1.1,3-2.6,3.1c-1.6,0.1-3-1.1-3.1-2.6
				C22.8,41.3,24,39.9,25.6,39.8z M20.9,47.3c1.3-0.9,3.1-0.6,4,0.7c0.9,1.3,0.6,3.1-0.7,4c-1.3,0.9-3.1,0.6-4-0.7
				C19.3,50,19.6,48.2,20.9,47.3z M22,59.9c-1.4-0.7-2.1-2.4-1.4-3.8c0.7-1.4,2.4-2.1,3.8-1.4c1.4,0.7,2.1,2.4,1.4,3.8
				C25.1,60,23.4,60.6,22,59.9z M27.8,66.5c-1.6,0.1-3-1-3.1-2.6c-0.1-1.6,1.1-3,2.6-3.1c1.6-0.1,3,1.1,3.1,2.6
				C30.6,65,29.4,66.4,27.8,66.5z M29.5,37.1c0.7-1.4,2.4-2.1,3.8-1.4c1.4,0.7,2.1,2.4,1.4,3.8c-0.7,1.4-2.4,2.1-3.8,1.4
				C29.4,40.2,28.8,38.5,29.5,37.1z M36.2,69.3c-1.3,0.9-3.1,0.6-4-0.7c-0.9-1.3-0.6-3.1,0.7-4c1.3-0.9,3.1-0.6,4,0.7
				C37.8,66.6,37.5,68.4,36.2,69.3z M37.4,39.3c-0.9-1.3-0.6-3.1,0.7-4c1.3-0.9,3.1-0.6,4,0.7c0.9,1.3,0.6,3.1-0.7,4
				C40.1,40.9,38.3,40.6,37.4,39.3z M44.8,67.5c-0.7,1.4-2.4,2.1-3.8,1.4c-1.4-0.7-2.1-2.4-1.4-3.8c0.7-1.4,2.4-2.1,3.8-1.4
				C44.9,64.3,45.5,66,44.8,67.5z M48.8,64.7c-1.6,0.1-3-1.1-3.1-2.6c-0.1-1.6,1-3,2.6-3.1c1.6-0.1,3,1.1,3.1,2.6
				C51.5,63.2,50.4,64.6,48.8,64.7z"/>
		</g>
		<g>
			<path d="M59,76.6H21.1c-4.3,0-7.9-3.5-7.9-7.9V29.6c0-3.9,3.1-7,7-7h39.5c4.1,0,7.5,3.4,7.5,7.5v5.6h-2.9v-5.6
				c0-2.6-2.1-4.6-4.6-4.6H20.2c-2.3,0-4.2,1.9-4.2,4.2v39.1c0,2.8,2.3,5,5,5H59c3,0,5.4-2.4,5.4-5.4V63h2.9v5.4
				C67.2,72.9,63.6,76.6,59,76.6z"/>
		</g>
		<g>
			<path d="M69.2,47.6c-0.6,1-1.7,1.7-2.9,1.7c-2.4,0-4.2-2.1-4.2-5c0-3,1.8-5,4.2-5c1.2,0,2.3,0.7,2.9,1.7l0.7-0.5
				c-0.8-1.2-2.1-2-3.7-2c-2.9,0-5.1,2.4-5.1,5.9c0,3.5,2.2,5.9,5.1,5.9c1.6,0,2.8-0.8,3.7-2L69.2,47.6z"/>
			<path d="M74.7,41.5c-2.1,0-3.5,1.9-3.5,4.3c0,2.4,1.4,4.3,3.5,4.3c2.2,0,3.5-1.9,3.5-4.3C78.2,43.4,76.9,41.5,74.7,41.5z
				 M74.7,49.4c-1.7,0-2.7-1.7-2.7-3.5c0-1.8,1-3.5,2.7-3.5c1.7,0,2.7,1.7,2.7,3.5C77.4,47.7,76.4,49.4,74.7,49.4z"/>
			<path d="M80.3,41.7V50H81v-8.3H80.3z M80.7,39c-0.3,0-0.6,0.3-0.6,0.7c0,0.4,0.3,0.7,0.6,0.7c0.3,0,0.6-0.3,0.6-0.7
				C81.3,39.3,81,39,80.7,39z"/>
			<path d="M86.9,41.5c-1.1,0-2.1,0.7-2.6,1.5v-1.2h-0.8V50h0.8v-6.2c0.5-0.8,1.4-1.4,2.4-1.4c1.1,0,1.8,0.5,1.8,2.1V50h0.8v-5.8
				C89.2,42.3,88.4,41.5,86.9,41.5z"/>
			<path d="M98.2,45.9c0-2.4-1.2-4.4-3.4-4.4c-2,0-3.5,1.9-3.5,4.3c0,2.5,1.5,4.3,3.6,4.3c1.2,0,2.1-0.5,2.9-1.3l-0.4-0.6
				c-0.6,0.8-1.5,1.1-2.4,1.1c-1.7,0-2.8-1.5-2.9-3.3h6.1V45.9z M92.1,45.4c0.1-1.4,0.9-3.1,2.6-3.1c1.8,0,2.6,1.7,2.7,3.1H92.1z"/>
			<path d="M105,50l-2.4-3.6l-2.4,3.6h-0.9l2.9-4.2l-2.7-4h0.9l2.3,3.4l2.3-3.4h0.9l-2.7,4L106,50H105z"/>
			<path d="M74.6,57.7v0.9h3.8v2.7c-0.5,0.6-1.6,1.4-3,1.4c-2.4,0-4.2-2.1-4.2-5c0-3,1.8-5,4.2-5c1.3,0,2.4,0.6,3.1,1.6l0.7-0.5
				c-0.9-1.2-2.1-1.9-3.8-1.9c-2.8,0-5.1,2.4-5.1,5.9s2.3,5.9,5.1,5.9c1.6,0,2.9-0.8,3.8-1.9v-4H74.6z"/>
			<path d="M84.1,54.9c-1.2,0-2.1,0.5-2.8,1.4l0.4,0.6c0.7-0.9,1.4-1.2,2.3-1.2c1.1,0,1.9,0.7,1.9,1.9v1.7c-0.6-0.8-1.5-1.2-2.5-1.2
				c-1.3,0-2.6,0.9-2.6,2.7c0,1.8,1.3,2.8,2.6,2.8c1,0,1.8-0.4,2.5-1.2v1h0.8v-5.8C86.8,55.7,85.6,54.9,84.1,54.9z M86,61.7
				c-0.5,0.8-1.3,1.1-2.2,1.1c-1.2,0-2-0.9-2-2c0-1.2,0.8-2.1,2-2.1c0.9,0,1.7,0.4,2.2,1.1V61.7z"/>
			<path d="M91.8,62.4c-0.2,0.2-0.5,0.4-0.8,0.4c-0.5,0-0.8-0.5-0.8-1.1v-5.7h1.5v-0.8h-1.5v-2.3h-0.8v2.3h-1.2v0.8h1.2v5.9
				c0,1.1,0.5,1.8,1.4,1.8c0.6,0,1-0.2,1.2-0.5L91.8,62.4z"/>
			<path d="M100,59.3c0-2.4-1.2-4.4-3.4-4.4c-2,0-3.5,1.9-3.5,4.3c0,2.5,1.5,4.3,3.6,4.3c1.2,0,2.1-0.5,2.9-1.3l-0.4-0.6
				c-0.6,0.8-1.5,1.1-2.4,1.1c-1.7,0-2.8-1.5-2.9-3.3h6.1V59.3z M93.9,58.8c0.1-1.4,0.9-3.1,2.6-3.1c1.8,0,2.6,1.7,2.7,3.1H93.9z"/>
			<path d="M108.2,63.4l-2-7.1l-2.1,7.1h-0.8l-2.4-8.3h0.8l1.9,7l2.1-7h0.7l2.1,7l1.9-7h0.8l-2.4,8.3H108.2z"/>
			<path d="M117.5,63.4v-1c-0.6,0.8-1.5,1.2-2.5,1.2c-1.3,0-2.6-1-2.6-2.8c0-1.8,1.3-2.7,2.6-2.7c1,0,1.8,0.4,2.5,1.2v-1.7
				c0-1.2-0.9-1.9-1.9-1.9c-0.9,0-1.6,0.4-2.3,1.2l-0.4-0.6c0.8-0.9,1.6-1.4,2.8-1.4c1.5,0,2.7,0.8,2.7,2.7v5.8H117.5z M117.5,61.7
				v-1.8c-0.5-0.8-1.3-1.1-2.2-1.1c-1.2,0-2,0.9-2,2.1c0,1.2,0.8,2,2,2C116.2,62.9,117,62.5,117.5,61.7z"/>
			<path d="M120.4,65.8c0.2,0.1,0.5,0.1,0.6,0.1c0.5,0,0.8-0.2,1.1-1l0.6-1.5l-3.1-8.3h0.9l2.7,7.2l2.6-7.2h0.9l-3.8,10.1
				c-0.4,1-1,1.5-1.9,1.5c-0.3,0-0.6-0.1-0.8-0.1L120.4,65.8z"/>
		</g>
	</g>
</g>
<g>
</g>
<g>
</g>
<g>
</g>
<g>
</g>
<g>
</g>
<g>
</g>
<g>
</g>
<g>
</g>
<g>
</g>
<g>
</g>
<g>
</g>
<g>
</g>
<g>
</g>
<g>
</g>
<g>
</g>
</svg>
