<?xml version="1.0" encoding="UTF-8" standalone="no"?>
<!-- Creator: CorelDRAW X7 -->

<svg
   xmlns:dc="http://purl.org/dc/elements/1.1/"
   xmlns:cc="http://creativecommons.org/ns#"
   xmlns:rdf="http://www.w3.org/1999/02/22-rdf-syntax-ns#"
   xmlns:svg="http://www.w3.org/2000/svg"
   xmlns="http://www.w3.org/2000/svg"
   xmlns:sodipodi="http://sodipodi.sourceforge.net/DTD/sodipodi-0.dtd"
   xmlns:inkscape="http://www.inkscape.org/namespaces/inkscape"
   xml:space="preserve"
   version="1.1"
   style="shape-rendering:geometricPrecision; text-rendering:geometricPrecision; image-rendering:optimizeQuality; fill-rule:evenodd; clip-rule:evenodd"
   viewBox="0 0 8560 5400"
   id="svg3336"
   inkscape:version="0.91 r13725"
   sodipodi:docname="gw_gatehub.svg"><metadata
     id="metadata3362"><rdf:RDF><cc:Work
         rdf:about=""><dc:format>image/svg+xml</dc:format><dc:type
           rdf:resource="http://purl.org/dc/dcmitype/StillImage" /></cc:Work></rdf:RDF></metadata><sodipodi:namedview
     pagecolor="#ffffff"
     bordercolor="#666666"
     borderopacity="1"
     objecttolerance="10"
     gridtolerance="10"
     guidetolerance="10"
     inkscape:pageopacity="0"
     inkscape:pageshadow="2"
     inkscape:window-width="1920"
     inkscape:window-height="1177"
     id="namedview3360"
     showgrid="false"
     inkscape:zoom="0.16635514"
     inkscape:cx="4280"
     inkscape:cy="2700"
     inkscape:window-x="1912"
     inkscape:window-y="-8"
     inkscape:window-maximized="1"
     inkscape:current-layer="svg3336" /><defs
     id="defs3338"><style
       type="text/css"
       id="style3340"><![CDATA[
    .fil1 {fill:gray}
    .fil0 {fill:black;fill-rule:nonzero}
   ]]></style></defs><g
     id="Layer_x0020_1"
     transform="matrix(1.5387838,0,0,1.5387838,-2303.0613,-1405.1481)"><metadata
       id="CorelCorpID_0Corel-Layer" /><path
       class="fil0"
       d="m 3937,2352 c 54,0 104,15 148,47 7,8 10,16 10,24 l 0,1 c 0,19 -12,31 -35,35 -6,0 -24,-7 -56,-22 -19,-8 -37,-11 -54,-11 l -21,0 c -46,0 -89,22 -131,66 -27,37 -41,75 -41,114 l 0,5 c 0,64 30,116 89,157 30,17 61,26 92,26 l 5,0 c 30,0 59,-8 86,-23 l 0,-101 -85,0 c -22,-4 -33,-16 -33,-35 l 0,-2 c 3,-23 15,-34 34,-34 l 121,0 c 19,0 30,11 34,34 l 0,145 c 0,25 -7,41 -21,48 -46,27 -90,40 -134,40 l -7,0 c -85,0 -156,-39 -213,-118 -27,-44 -40,-91 -40,-139 0,-86 38,-158 114,-214 48,-29 93,-43 138,-43 z"
       id="path3344"
       inkscape:connector-curvature="0"
       style="fill:#000000;fill-rule:nonzero" /><path
       id="1"
       class="fil0"
       d="m 4480,2600 -42,-109 -40,109 82,0 z m -42,-245 c 21,0 36,18 45,55 103,271 156,410 157,418 l 0,4 c 0,19 -11,30 -33,34 l -3,0 c -20,0 -35,-17 -42,-51 l -55,-144 -137,0 -69,183 c -11,8 -20,12 -27,12 l -4,0 c -22,-4 -34,-16 -34,-35 l 0,-3 45,-121 c 77,-200 118,-311 125,-334 11,-12 22,-18 32,-18 z"
       inkscape:connector-curvature="0"
       style="fill:#000000;fill-rule:nonzero" /><path
       id="2"
       class="fil0"
       d="m 4738,2352 322,0 c 21,4 32,15 32,33 l 0,6 c 0,18 -12,29 -38,32 l -119,0 0,409 c 0,19 -12,30 -35,34 l -1,0 c -19,0 -31,-12 -35,-35 l 0,-408 -123,0 c -23,-5 -35,-17 -35,-37 5,-23 16,-34 32,-34 z"
       inkscape:connector-curvature="0"
       style="fill:#000000;fill-rule:nonzero" /><path
       id="3"
       class="fil0"
       d="m 5261,2348 18,3 253,0 5,-1 c 22,0 34,13 38,39 -5,23 -18,34 -39,34 l -228,0 0,155 145,0 19,-2 c 17,0 29,12 34,36 0,16 -10,29 -30,37 l -28,-1 -140,0 0,146 234,0 c 18,0 29,13 33,39 -6,22 -18,33 -34,33 l -271,0 c -23,-4 -34,-16 -34,-35 l 0,-446 c 3,-22 12,-34 25,-34 l 0,-3 z"
       inkscape:connector-curvature="0"
       style="fill:#000000;fill-rule:nonzero" /><path
       id="4"
       class="fil0"
       d="m 5744,2353 7,0 c 21,5 32,15 32,31 l 0,195 224,0 0,-192 c 4,-23 15,-34 34,-34 l 4,0 c 22,4 33,16 33,34 l 0,447 c 0,16 -11,27 -34,32 l -3,0 c -23,-4 -34,-16 -34,-35 l 0,-182 -224,0 0,183 c 0,19 -11,30 -33,34 l -3,0 c -19,0 -30,-12 -35,-35 l 0,-440 c 3,-25 14,-38 32,-38 z"
       inkscape:connector-curvature="0"
       style="fill:#000000;fill-rule:nonzero" /><path
       id="5"
       class="fil0"
       d="m 6259,2353 6,0 c 21,5 32,15 32,31 l 0,277 c 0,56 16,93 47,111 19,15 41,23 65,23 46,0 81,-24 105,-71 5,-15 7,-31 7,-48 l 0,-289 c 4,-23 15,-34 34,-34 l 4,0 c 22,4 33,16 33,34 l 0,302 c 0,55 -26,103 -78,144 -33,22 -67,33 -101,33 l -9,0 c -57,0 -107,-28 -149,-84 -19,-30 -29,-67 -29,-111 l 0,-280 c 3,-25 14,-38 33,-38 z"
       inkscape:connector-curvature="0"
       style="fill:#000000;fill-rule:nonzero" /><path
       id="6"
       class="fil0"
       d="m 6760,2352 17,3 78,0 5,-1 c 43,0 80,20 110,60 15,22 23,47 23,73 l 0,4 c 0,32 -10,59 -29,81 52,29 78,74 78,137 0,64 -32,112 -98,146 -21,7 -40,11 -57,11 l -117,0 c -23,-4 -34,-16 -34,-35 l 0,-442 c 3,-23 11,-34 24,-34 l 0,-3 z m 47,74 0,124 37,0 c 38,0 62,-13 72,-39 3,-7 5,-15 5,-22 l 0,-4 c 0,-28 -17,-47 -50,-58 l -26,-1 -38,0 z m 0,195 0,174 57,0 c 45,0 76,-13 91,-38 10,-14 15,-30 15,-48 l 0,-2 c 0,-42 -23,-70 -68,-84 l -35,-2 -60,0 z"
       inkscape:connector-curvature="0"
       style="fill:#000000;fill-rule:nonzero" /><path
       class="fil0"
       d="m 1745,2421 1,0 4,2 c 51,14 92,47 116,90 24,41 32,91 20,141 l 0,0 -2,5 c -14,51 -47,92 -90,116 -43,24 -95,32 -146,18 -51,-14 -92,-48 -116,-90 -24,-43 -32,-95 -18,-146 14,-51 48,-92 90,-116 42,-24 92,-32 141,-20 z m 62,125 c -15,-27 -41,-49 -74,-58 l -1,0 c -33,-9 -66,-4 -94,12 -28,15 -50,42 -59,75 -9,33 -4,67 12,94 16,28 42,50 75,59 33,9 67,4 95,-12 27,-16 49,-42 58,-75 l 0,0 c 9,-33 4,-67 -12,-95 z"
       id="path3352"
       inkscape:connector-curvature="0"
       style="fill:#000000;fill-rule:nonzero" /><polygon
       class="fil1"
       points="2467,2608 2644,2915 2630,2923 2623,2928 2601,2940 2423,2633 2069,2633 2069,2608 2069,2582 2423,2582 2601,2275 2623,2288 2630,2292 2644,2301 "
       id="polygon3354"
       style="fill:#808080" /><path
       class="fil0"
       d="m 2858,1783 c 51,14 92,48 116,90 24,43 32,95 18,146 -14,51 -47,92 -90,116 -43,24 -95,32 -146,18 -51,-14 -91,-47 -116,-90 -24,-43 -32,-95 -18,-146 14,-51 48,-92 90,-116 43,-24 95,-32 146,-18 z m 58,124 c -16,-28 -43,-50 -76,-59 -33,-9 -66,-4 -94,12 -28,15 -50,42 -59,75 -9,33 -4,67 12,94 16,28 42,50 75,59 33,9 67,4 95,-12 27,-15 49,-42 58,-75 9,-33 4,-67 -11,-94 z"
       id="path3356"
       inkscape:connector-curvature="0"
       style="fill:#000000;fill-rule:nonzero" /><path
       class="fil0"
       d="m 2858,3063 c 51,14 92,47 116,90 25,43 32,95 18,146 -14,51 -47,91 -90,116 -43,24 -95,32 -146,18 -51,-14 -91,-48 -116,-91 -23,-41 -31,-91 -19,-140 l 0,-1 1,-5 c 14,-51 48,-91 90,-115 42,-24 92,-32 141,-20 l 1,0 4,2 z m 58,123 c -16,-27 -42,-49 -75,-58 l -1,0 c -33,-10 -66,-4 -94,11 -28,16 -49,42 -59,75 l 0,1 c -9,33 -4,66 12,94 16,28 42,49 75,59 33,9 67,4 95,-12 27,-16 49,-42 58,-75 9,-33 4,-67 -11,-95 z"
       id="path3358"
       inkscape:connector-curvature="0"
       style="fill:#000000;fill-rule:nonzero" /></g></svg>