<?xml version="1.0" encoding="utf-8"?>
<!-- Generator: Adobe Illustrator 18.1.0, SVG Export Plug-In . SVG Version: 6.00 Build 0)  -->
<svg version="1.1" id="Layer_1" xmlns="http://www.w3.org/2000/svg" xmlns:xlink="http://www.w3.org/1999/xlink" x="0px" y="0px"
	 viewBox="0 0 139.9 99.1" enable-background="new 0 0 139.9 99.1" xml:space="preserve">
<g>
	<rect x="0" y="0" fill="none" width="139.9" height="99.1"/>
	<g>
		<g>
			<g>
				<path d="M91.6,36.6c2.2-2.3,6.1-2.7,8.6-0.7c0.6,0.4,1,1,1.4,1.6c-0.6,0.4-1.2,0.8-1.8,1.1c-0.5-0.8-1.3-1.5-2.2-1.8
					C96,36.3,94,36.9,93,38.3c-1.4,1.8-1.4,4.7,0.2,6.4c0.9,1,2.3,1.6,3.6,1.5c1.3-0.1,2.4-0.9,3.1-1.9c0.6,0.4,1.3,0.7,1.9,1.1
					c-0.6,0.7-1.1,1.4-1.9,1.8c-2.7,1.8-6.7,1.1-8.6-1.5C89.2,43.1,89.3,39,91.6,36.6z"/>
				<g>
					<path d="M109.5,34.8c1.9-0.3,4,0.1,5.4,1.4c2.2,1.9,2.7,5.3,1.7,7.9c-0.6,1.6-1.7,2.9-3.3,3.6c-1.8,0.8-3.9,0.7-5.7-0.2
						c-1.6-0.8-2.7-2.4-3.2-4.1c-0.5-1.9-0.3-4,0.7-5.7C106.1,36.2,107.7,35.1,109.5,34.8z M109.5,36.8c-1.4,0.4-2.5,1.6-2.8,3
						c-0.4,1.7-0.2,3.6,0.9,5c1.4,1.7,4.3,1.9,5.9,0.3c1-1,1.4-2.4,1.4-3.8c0-1.4-0.5-2.9-1.7-3.8C112.2,36.7,110.8,36.5,109.5,36.8
						z"/>
				</g>
				<path d="M44.2,34.9c0.7,0,1.4,0,2.1,0c0,2.7,0,5.4,0,8.1c0,0.8,0.1,1.5-0.1,2.3c-0.3,1.1-1,2.1-2,2.5c-1.5,0.6-3.2,0.6-4.6-0.3
					c-0.5-0.3-0.9-0.8-1.2-1.3c0.4-0.6,0.9-1.1,1.3-1.7c0.4,0.5,0.7,1.1,1.3,1.4c0.9,0.6,2.2,0.4,2.8-0.5c0.4-0.5,0.5-1.1,0.5-1.7
					C44.2,40.8,44.2,37.8,44.2,34.9z"/>
				<path d="M50.6,34.9c0.7,0,1.4,0,2.1,0c0,2.8,0,5.5,0,8.3c0,1.1,0.6,2.4,1.7,2.8c1.2,0.5,2.9,0.3,3.8-0.8
					c0.6-0.7,0.7-1.6,0.7-2.5c0-2.6,0-5.2,0-7.8c0.7,0,1.4,0,2.1,0c0,2.6,0,5.2,0,7.8c0,1.2-0.2,2.5-0.9,3.5c-0.7,1.1-2,1.8-3.3,2
					c-1.8,0.3-3.8-0.1-5-1.5c-0.9-1-1.3-2.5-1.3-3.8C50.6,40.2,50.6,37.6,50.6,34.9z"/>
				<path d="M65.2,37.5c0.4-1.3,1.6-2.3,2.9-2.6c2.2-0.6,4.9,0.1,6.3,2.1c-0.5,0.5-0.9,1.1-1.4,1.6c-0.5-0.6-1-1.2-1.7-1.5
					c-0.5-0.3-1.1-0.3-1.6-0.4c-0.8,0.1-1.8,0.3-2.2,1.1c-0.3,0.6,0,1.4,0.6,1.7c1.8,0.9,3.9,0.9,5.4,2.3c1.8,1.6,1.2,4.9-0.9,5.9
					c-2.6,1.3-6.2,0.6-8-1.9c0.5-0.5,0.9-1.1,1.4-1.6c0.8,1,1.8,1.8,3.1,2c0.9,0.1,2,0.1,2.8-0.6c0.6-0.6,0.7-1.7,0.1-2.3
					c-0.7-0.6-1.7-0.8-2.5-1.1c-1.2-0.3-2.5-0.7-3.4-1.6C65.1,39.9,64.9,38.6,65.2,37.5z"/>
				<path d="M77.3,34.9c3.3,0,6.7,0,10,0c0,0.7,0,1.3,0,2c-1.3,0-2.6,0-4,0c0,3.7,0,7.4,0,11.1c-0.7,0-1.4,0-2.1,0
					c0-3.7,0-7.4,0-11.1c-1.3,0-2.6,0-3.9,0C77.3,36.2,77.3,35.6,77.3,34.9z"/>
				<path d="M120.9,34.9c0.7,0,1.4,0,2.1,0c0,4.4,0,8.8,0,13.1c-0.7,0-1.4,0-2.1,0C120.9,43.7,120.9,39.3,120.9,34.9z"/>
				<path d="M127.3,34.9c0.6,0,1.3,0,1.9,0c2.2,3.1,4.5,6.1,6.7,9.1c0-3,0-6.1,0-9.1c0.7,0,1.4,0,2.1,0c0,4.4,0,8.8,0,13.1
					c-0.6,0-1.2,0-1.8,0c-2.3-3.1-4.5-6.2-6.8-9.3c0,3.1,0,6.2,0,9.3c-0.7,0-1.4,0-2.1,0C127.3,43.7,127.3,39.3,127.3,34.9z"/>
			</g>
			<g>
				<path d="M63.1,53.6c1.6-1.9,4.4-2.5,6.7-1.7c1,0.4,1.9,1,2.5,1.9c-0.3,0.2-0.6,0.4-0.9,0.6c-0.8-1-2-1.7-3.3-1.8
					c-1.5-0.1-3,0.5-4,1.5c-2,2.1-1.9,5.7,0,7.8c1.4,1.5,3.8,2,5.6,1.1c0.7-0.3,1.2-0.8,1.7-1.4c0.3,0.2,0.6,0.4,0.9,0.6
					c-0.8,0.9-1.8,1.7-2.9,2c-2.1,0.6-4.5,0-6.1-1.5C61,60.3,60.9,56.1,63.1,53.6z"/>
				<path d="M117.5,53.3c1.8-1.8,4.7-2.2,7-1.2c0.8,0.3,1.5,1,2.1,1.6c-0.3,0.2-0.6,0.4-0.8,0.6c-1.7-2-4.8-2.3-6.9-0.8
					c-2.7,2-2.8,6.5-0.2,8.7c1.9,1.7,5.1,1.5,6.9-0.3c0-1,0-2,0-3c-1.5,0-3.1,0-4.6,0c0-0.3,0-0.6,0-1c1.9,0,3.8,0,5.8,0
					c0,1.4,0,2.7,0,4.1c0,0.4-0.4,0.6-0.7,0.9c-2.3,1.9-5.9,1.9-8.2,0C115,60.6,114.9,55.8,117.5,53.3z"/>
				<path d="M38.3,51.7c2.6,0,5.2,0,7.9,0c0,0.3,0,0.7,0,1c-2.3,0-4.5,0-6.8,0c0,1.5,0,3,0,4.5c2.2,0,4.4,0,6.6,0c0,0.3,0,0.7,0,1
					c-2.2,0-4.4,0-6.6,0c0,1.6,0,3.3,0,4.9c2.3,0,4.5,0,6.8,0c0,0.3,0,0.7,0,1c-2.6,0-5.2,0-7.9,0C38.3,60,38.3,55.9,38.3,51.7z"/>
				<path d="M48.7,51.8c0.5,0,0.9,0,1.4,0c1.3,1.7,2.7,3.5,4,5.2c1.3-1.7,2.7-3.5,4-5.2c0.5,0,0.9,0,1.4,0c-1.6,2-3.1,4-4.7,6
					c1.7,2.1,3.3,4.3,5,6.4c-0.5,0-0.9,0-1.4,0c-1.4-1.9-2.9-3.7-4.3-5.6c-1.4,1.9-2.9,3.7-4.3,5.6c-0.5,0-0.9,0-1.4,0
					c1.6-2.1,3.3-4.3,5-6.4C51.9,55.8,50.3,53.8,48.7,51.8z"/>
				<path d="M75.3,51.7c0.4,0,0.7,0,1.1,0c0,1.8,0,3.7,0,5.5c2.6,0,5.2,0,7.8,0c0-1.8,0-3.7,0-5.5c0.4,0,0.7,0,1.1,0
					c0,4.1,0,8.3,0,12.4c-0.4,0-0.7,0-1.1,0c0-2,0-3.9,0-5.9c-2.6,0-5.2,0-7.8,0c0,2,0,3.9,0,5.9c-0.4,0-0.7,0-1.1,0
					C75.3,60,75.3,55.9,75.3,51.7z"/>
				<g>
					<path d="M93.1,51.7c0.5,0,0.9,0,1.4,0c1.7,4.1,3.4,8.3,5.1,12.4c-0.4,0-0.8,0-1.3,0c-0.4-1-0.8-2-1.2-3.1c-2.2,0-4.3,0-6.5,0
						c-0.4,1-0.8,2-1.2,3.1c-0.4,0-0.8,0-1.3,0C89.7,60,91.4,55.9,93.1,51.7z M90.9,60.1c1.9,0,3.8,0,5.8,0
						c-0.9-2.4-1.9-4.8-2.9-7.2C92.8,55.4,91.8,57.7,90.9,60.1z"/>
				</g>
				<path d="M102.2,51.7c0.4,0,0.8,0,1.1,0c2.6,3.5,5.1,6.9,7.7,10.4c0-3.5,0-6.9,0-10.4c0.4,0,0.7,0,1.1,0c0,4.1,0,8.3,0,12.4
					c-0.4,0-0.7,0-1.1,0c-2.6-3.5-5.2-7.1-7.8-10.6c0,3.5,0,7.1,0,10.6c-0.4,0-0.7,0-1.1,0C102.2,60,102.2,55.9,102.2,51.7z"/>
				<path d="M130.2,51.7c2.6,0,5.3,0,7.9,0c0,0.3,0,0.7,0,1c-2.3,0-4.5,0-6.8,0c0,1.5,0,3,0,4.5c2.2,0,4.5,0,6.7,0c0,0.3,0,0.7,0,1
					c-2.2,0-4.5,0-6.7,0c0,1.6,0,3.3,0,4.9c2.3,0,4.5,0,6.8,0c0,0.3,0,0.7,0,1c-2.6,0-5.3,0-7.9,0C130.2,60,130.2,55.9,130.2,51.7z"
					/>
			</g>
		</g>
		<g>
			<path d="M15.4,33.2c4.1-0.8,8.6,0.1,12.1,2.4c2.8,1.8,4.9,4.4,6.2,7.5c1.7,3.9,1.7,8.5,0.2,12.5c-1.2,3.1-3.4,5.8-6.1,7.7
				c-2.4,1.7-5.4,2.7-8.3,2.8c-3.3,0.2-6.6-0.6-9.4-2.2c-1.9-1.2-3.7-2.7-5-4.5c1.6,0.3,3.4,0.3,5-0.1c1.6-0.4,3-1.4,3.9-2.7
				c1-1.6,1.4-3.5,1.5-5.3C15.4,45.2,15.4,39.2,15.4,33.2z"/>
			<path d="M6.4,37.7c1.5-1.4,3.2-2.6,5.2-3.3c0,5.2,0,10.5,0,15.7c-0.1,1.1-0.1,2.3-0.6,3.3c-0.3,0.8-0.9,1.4-1.6,1.8
				c-0.8,0.3-1.7,0.5-2.5,0.5c-0.9,0-1.9-0.1-2.8-0.6c-0.7-0.4-1.3-1-1.6-1.8c-0.9-2.9-0.9-6.1-0.1-9C3.2,41.9,4.5,39.6,6.4,37.7z"
				/>
		</g>
	</g>
</g>
<g>
</g>
<g>
</g>
<g>
</g>
<g>
</g>
<g>
</g>
<g>
</g>
<g>
</g>
<g>
</g>
<g>
</g>
<g>
</g>
<g>
</g>
<g>
</g>
<g>
</g>
<g>
</g>
<g>
</g>
</svg>
