<?xml version="1.0" encoding="utf-8"?>
<!-- Generator: Adobe Illustrator 18.1.0, SVG Export Plug-In . SVG Version: 6.00 Build 0)  -->
<svg version="1.1" id="Layer_1" xmlns="http://www.w3.org/2000/svg" xmlns:xlink="http://www.w3.org/1999/xlink" x="0px" y="0px"
	 viewBox="0 0 139.9 99.1" enable-background="new 0 0 139.9 99.1" xml:space="preserve">
<g>
	<rect x="0" y="0" fill="none" width="139.9" height="99.1"/>
	<g>
		<g>
			<path d="M56.6,64.4c-0.3,1.8-1.4,2.5-2.1,2.8c-0.8,0.4-1.7,0.5-3.5,0.5h-3.8v-4.5c0.4,0.1,0.7,0.2,1.5,0.2c1.3,0,1.9-0.3,2.1-0.9
				c0.1-0.3,0.2-0.6,0.2-1.2V49.6h5.7v13.1C56.7,62.8,56.7,63.8,56.6,64.4z"/>
			<path d="M75.6,58.1c-0.2,0.6-1.2,2.5-3.2,3.3c-1.1,0.4-2.2,0.5-3.3,0.5h-4.4v5.9H59V49.6h10.3c1.8,0,3.4,0.1,4.8,1.4
				c1.8,1.6,1.9,3.7,1.9,4.5C76,55.9,76,57,75.6,58.1z M70,54.4c-0.6-1-1.8-1-2.1-1h-3.2V58H68c0.1,0,0.6,0,1-0.2
				c0.5-0.2,1.3-0.7,1.3-2.2C70.3,55.5,70.3,55,70,54.4z"/>
			<path d="M88.9,60.1v7.6h-5.7v-7.6l-7.3-10.5h6.6l3.6,6l3.5-6h6.6L88.9,60.1z"/>
		</g>
		<g>
			<path d="M30.5,78.2v5.4h-2.3v-5.4h-1.8v-1.8h5.9v1.8H30.5z"/>
			<path d="M39,82.9c-1,1-2.3,1-2.8,1c-0.5,0-1.8,0-2.8-1c-0.7-0.7-1.1-1.8-1.1-2.8c0-0.5,0.1-1.8,1.1-2.8c0.4-0.4,1.3-1,2.8-1
				c0.5,0,1.7,0,2.7,1c0.4,0.4,1.1,1.3,1.1,2.8C40.1,80.4,40,81.8,39,82.9z M37.1,78.2C36.7,78,36.4,78,36.3,78
				c-0.2,0-0.7,0-1.1,0.4c-0.3,0.3-0.5,0.8-0.5,1.6c0,0.1,0,1,0.4,1.5c0.1,0.2,0.3,0.3,0.5,0.4c0.1,0.1,0.4,0.1,0.7,0.1
				c0.4,0,0.8-0.1,1.1-0.4c0.3-0.3,0.5-0.8,0.5-1.6C37.8,79.8,37.8,78.7,37.1,78.2z"/>
			<path d="M45.6,83.7L44,80.8L42.9,82v1.7h-2.3v-7.2h2.3v2.7l2.3-2.7H48l-2.5,2.7l2.7,4.5H45.6z"/>
			<path d="M53,80.6v3h-2.3v-3l-2.9-4.2h2.6l1.4,2.4l1.4-2.4h2.6L53,80.6z"/>
			<path d="M61.9,82.9c-1,1-2.3,1-2.8,1c-0.5,0-1.8,0-2.8-1c-0.7-0.7-1.1-1.8-1.1-2.8c0-0.5,0.1-1.8,1.1-2.8c0.4-0.4,1.3-1,2.8-1
				c0.5,0,1.7,0,2.7,1c0.4,0.4,1.1,1.3,1.1,2.8C63,80.4,63,81.8,61.9,82.9z M60,78.2C59.6,78,59.3,78,59.2,78c-0.2,0-0.7,0-1.1,0.4
				c-0.3,0.3-0.5,0.8-0.5,1.6c0,0.1,0,1,0.4,1.5c0.1,0.2,0.3,0.3,0.5,0.4c0.1,0.1,0.4,0.1,0.7,0.1c0.4,0,0.8-0.1,1.1-0.4
				c0.3-0.3,0.5-0.8,0.5-1.6C60.7,79.8,60.8,78.7,60,78.2z"/>
			<path d="M75.5,83.7v-7.2h2.3v7.2H75.5z"/>
			<path d="M84.3,83.2c-0.9,0.7-2.1,0.7-2.5,0.7c-1.1,0-2.1-0.2-2.9-0.8c-0.3-0.2-0.5-0.5-0.8-0.8l1.7-1.1c0.2,0.2,0.2,0.4,0.3,0.4
				c0.4,0.4,1.2,0.5,1.7,0.5c0.6,0,1.1-0.2,1.1-0.6c0-0.1,0-0.1-0.1-0.2c-0.1-0.1-0.1-0.2-0.3-0.3c-0.3-0.1-0.7-0.2-1.4-0.3
				c-1-0.2-1.5-0.4-1.9-0.7c-0.2-0.2-0.6-0.7-0.6-1.5c0-0.2,0-0.6,0.3-1.1c0.7-1.3,2.6-1.3,2.9-1.3c0.4,0,1.7,0,2.7,0.8
				c0.2,0.2,0.4,0.3,0.6,0.5l-1.4,1.2c-0.1-0.1-0.1-0.2-0.2-0.2c-0.4-0.4-1.1-0.5-1.7-0.5c-0.1,0-0.3,0-0.5,0.1c0,0-0.3,0.1-0.3,0.4
				c0,0.1,0.1,0.3,0.2,0.3c0.2,0.1,0.6,0.2,0.8,0.2c0.3,0,0.9,0.1,1.6,0.4c0.4,0.1,1.6,0.5,1.6,2C85.2,82.4,84.6,83,84.3,83.2z"/>
			<path d="M91.5,83.2c-0.9,0.7-2.1,0.7-2.5,0.7c-1.1,0-2.1-0.2-2.9-0.8c-0.3-0.2-0.5-0.5-0.8-0.8l1.7-1.1c0.2,0.2,0.2,0.4,0.3,0.4
				c0.4,0.4,1.2,0.5,1.7,0.5c0.6,0,1.1-0.2,1.1-0.6c0-0.1,0-0.1-0.1-0.2c-0.1-0.1-0.1-0.2-0.3-0.3c-0.3-0.1-0.7-0.2-1.4-0.3
				c-1-0.2-1.5-0.4-1.9-0.7c-0.2-0.2-0.6-0.7-0.6-1.5c0-0.2,0-0.6,0.3-1.1c0.7-1.3,2.6-1.3,2.9-1.3c0.4,0,1.7,0,2.7,0.8
				c0.2,0.2,0.4,0.3,0.6,0.5L91,78.7c-0.1-0.1-0.1-0.2-0.2-0.2c-0.4-0.4-1.1-0.5-1.7-0.5c-0.1,0-0.3,0-0.5,0.1c0,0-0.3,0.1-0.3,0.4
				c0,0.1,0.1,0.3,0.2,0.3c0.2,0.1,0.6,0.2,0.8,0.2c0.3,0,0.9,0.1,1.6,0.4c0.4,0.1,1.6,0.5,1.6,2C92.5,82.4,91.8,83,91.5,83.2z"/>
			<path d="M99.3,82c-0.5,1.3-1.8,1.8-3.1,1.8c-0.3,0-1,0-1.7-0.3c-0.3-0.1-1-0.5-1.4-1.4C93,81.8,93,81.5,93,80.7v-4.3h2.3V81
				c0,0.1,0,0.3,0.1,0.6c0.2,0.6,0.8,0.6,0.9,0.6c0.2,0,0.7,0,0.9-0.6c0.1-0.2,0.1-0.3,0.1-0.6v-4.5h2.3v4.3
				C99.5,81.2,99.5,81.6,99.3,82z"/>
			<path d="M100.2,83.7v-7.2h5.7V78h-3.4v1.1h3.2v1.6h-3.2v1.4h3.7v1.6H100.2z"/>
			<path d="M111,83.7l-1.4-2.5h-0.7v2.5h-2.3v-7.2h3.9c0.2,0,0.4,0,0.6,0c0.3,0,1.2,0.1,1.8,1c0.1,0.2,0.3,0.7,0.3,1.3
				c0,0.7-0.3,1.3-0.8,1.7c-0.2,0.1-0.3,0.2-0.6,0.3l1.8,2.9H111z M110.8,78.3c-0.1-0.1-0.2-0.2-0.2-0.2c-0.2-0.1-0.5-0.1-0.8-0.1
				h-0.9v1.7h1c0.4,0,0.9-0.1,1.1-0.5c0,0,0.1-0.2,0.1-0.3C111,78.6,110.9,78.4,110.8,78.3z"/>
		</g>
		<polygon points="36.9,13 56.9,13 73.8,40.3 		"/>
		<polygon points="63.7,13 80.1,40.3 100.1,40.3 		"/>
	</g>
</g>
<g>
</g>
<g>
</g>
<g>
</g>
<g>
</g>
<g>
</g>
<g>
</g>
<g>
</g>
<g>
</g>
<g>
</g>
<g>
</g>
<g>
</g>
<g>
</g>
<g>
</g>
<g>
</g>
<g>
</g>
</svg>
