<?xml version="1.0" encoding="utf-8"?>
<!-- Generator: Adobe Illustrator 17.0.0, SVG Export Plug-In . SVG Version: 6.00 Build 0)  -->
<!DOCTYPE svg PUBLIC "-//W3C//DTD SVG 1.1//EN" "http://www.w3.org/Graphics/SVG/1.1/DTD/svg11.dtd">
<svg version="1.1" id="レイヤー_1" xmlns="http://www.w3.org/2000/svg" xmlns:xlink="http://www.w3.org/1999/xlink" x="0px"
	 y="0px" width="100px" height="100px" viewBox="0 0 100 100" enable-background="new 0 0 100 100" xml:space="preserve">
<g>
	<path d="M43.247,195.142c-0.008,0.006-0.013,0.015-0.022,0.022C43.234,195.195,43.241,195.179,43.247,195.142z"/>
	<path d="M56.801,195.164c-0.017-0.012-0.027-0.03-0.043-0.043C56.768,195.181,56.782,195.201,56.801,195.164z"/>
	<path d="M87.117,159.615c-1.264,0.309-2.059-1.36,0.987-5.331c3.566-4.634,0.972-12.444,0.131-14.079
		c-1.07-2.042-0.309-5.994,0.566-6.741c-0.987-0.226-3.58,1.492-3.969,3.728c-0.357,2.122-0.649,3.32-1.815,2.786
		c-1.2-0.534-0.309-6.416-1.815-9.074c-0.843-1.538-3.954-3.856-6.447-4.39c-2.529-0.534-4.634-5.688-4.181-7.503
		c-2.981,2.042-3.046,9.091-1.037,12.412c1.571,2.592,3.564,4.601,2.203,6.529c-0.713,1.022-2.105-0.534-2.884-1.603
		c-0.665,3.305,2.105,6.95,3.078,8.993c0.972,2.024,1.231,4.812,0.486,6.091c-0.68,1.168-2.397,0.325-2.397-1.181
		c0-1.492-2.139-2.885-3.111-2.253c1.166,0.534,0.503,5.055-0.843,6.643c-5.347,6.092-11.893,1.281-11.227-3.969
		c0.599-4.49-1.75-6.854-0.617-6.466c1.118,0.405,1.379,0.309,2.205-0.421c-0.826-0.065-1.863-1.264-2.172-1.604
		c-0.309-0.357-0.632-1.133,0.275-0.874c0.859,0.259,1.782-0.065,2.56-1.686c0.762-1.588,2.237-2.105,3.144-2.074
		c-1.913-2.592-5.445-1.037-6.044-0.616c-0.584,0.421-0.924-0.453-0.599-0.68c0.939-0.632,1.717-2.17,1.198-3.338
		c-1.085,1.604-5.201,2.026-8.749,0.211c-3.532-1.799-6.676,1.07-7.551,1.928c0,0,2.56,0.471,3.954,2.124
		c1.36,1.669,2.074,4.407,4.277,5.362c0,0,3.856,10.176-1.911,13.174c-1.427,0.728-5.8,1.279-6.968-1.281
		c-1.133-2.577-0.47-7.501,0.486-8.037c-0.68-0.518-2.414,0.438-3.272,2.253c-0.876,1.815-3.096,2.673-4.456,1.183
		c-1.344-1.508-1.442-6.32,1.571-7.599c2.967-1.281,3.743-7.81,2.771-8.88c-0.275,0.956-1.344,2.771-2.981,3.532
		c-1.636,0.745-2.608,0.47-2.608-1.832c0-3.207,7.81-12.604,2.608-16.46c-0.29,2.656-3.288,5.994-7.436,7.063
		c-3.063,0.778-6.756,3.726-6.756,8.135c0,1.068,0.372,5.654-0.778,6.189c-1.166,0.534-1.475-0.664-1.83-2.786
		c-0.39-2.237-2.998-3.954-3.97-3.728c0.874,0.747,1.636,4.699,0.599,6.741c-0.874,1.636-3.451,9.445,0.081,14.079
		c3.046,3.97,2.268,5.639,1.02,5.331c-1.263-0.323-2.754-2.625-2.754-2.625s-0.259,5.089,1.604,8.004
		c1.377,2.107,3.678,5.12,9.965,4.213c3.662-0.534,4.229,2.933,1.037,3.273c-2.56,0.275-2.447,2.383-2.447,2.383
		s1.573-0.747,4.943,1.442c4.601,3.013,9.867-2.399,11.699,0c0.776,1.02,0.065,2.56-2.042,4.083
		c-1.166,0.841-2.723,2.527-4.505,2.397c-0.647-0.033-1.004-0.924-1.36-1.507c-0.486-0.826-0.908-1.492-2.658-1.264
		c0.486,0.211,0.826,1.556,0.908,2.009c0.194,1.054,0.584,1.588,1.2,2.091c-2.333-0.778-3.76-0.39-4.213,1.102
		c0.843-0.486,0.922,0.211,2.041,0.599c1.362,0.438,2.852,0.129,2.852,0.129c1.717,0.373,1.264,2.869,0.227,3.403
		c1.102,0.292,3.078-1.279,1.88-3.273c-0.941-1.571,8.117-6.967,8.782-7.113c1.457-0.357,3.823,0.455,2.819,3.063
		c-1.005,2.608-3.192,3.338-5.379,2.884c-0.196,1.41,0.551,1.653,1.636,1.961c1.475,0.924,0.81,2.105-0.826,1.961
		c-1.427-0.131-4.456,0.096-4.893,0.906c2.721,1.2,1.49,4.473-1.362,3.954c-1.782-0.34-3.401-1.394-4.893,0.859
		c0.941,0,3.434,1.619,2.56,2.577c-0.551,0.599-1.49,1.052-3.273-0.455c-1.749-1.507-3.386-1.054-4.471-0.146
		c1.085,0.601,1.767,1.799,2.998,4.067c1.215,2.27,4.584,2.366,7.615-0.144c1.085-0.908,1.895,0.307,0.551,1.198
		c-1.377,0.908-0.957,3.159-0.957,3.159s0.551-0.582,1.638-1.037c4.098-0.906,3.808-5.88,3.808-5.88s1.231,3.305,2.187,2.398
		c0.956-7.388,1.767-7.697,2.577-7.989c0.759-0.261,0.912,2.514,0.865,2.847c1.185-0.916,0.916-2.865,0.788-5.407
		c-0.146-2.575,1.847-5.2,2.723-5.298c1.49-0.146,1.555,1.102,1.263,3.532c-0.194,1.506-1.54,2.754-2.091,2.625
		c0.551,0.891,1.054,1.346,1.734,0.891c1.07-0.713,1.475,1.717-0.551,3.532c-1.36,1.2-2.268,3.76-0.908,5.429
		c0.552-1.961,0.908-1.523,1.458-2.27c0.551-0.762,0.989,2.366-0.388,3.872c-1.183,1.329-0.795,2.917-2.723,3.015
		c0.34,0.728,2.042,1.49,3.192,0.405c1.151-1.085,0.795,1.555-0.178,2.819c-0.972,1.264-0.972,3.743-0.098,4.617
		c2.268,2.318,0.908,4.133,0.908,4.133c2.543,1.507,5.752-1.75,5.736-6.806c-0.032-3.662-2.771-7.113-1.475-6.885
		c1.734,0.307,2.869,3.094,2.56,3.629c0.309-0.357,2.124-3.921-0.275-6.124c-2.721-2.529-2.867-3.793-2.17-4.229
		c0.68-0.455,2.17,1.604,2.17,1.604s0.762-2.756-1.004-4.423c-1.767-1.653-2.948-5.736-2.268-6.028c0.68-0.325,1.36,2.56,1.36,2.56
		s1.782-1.961-0.259-4.213c-0.972-1.07-0.908-2.268-0.05-1.832c0.795,0.421,3.419,2.869,3.257,5.444
		c-0.128,2.525-0.375,4.462,0.799,5.386c-0.069-0.434,0.139-3.081,0.838-2.826c0.826,0.292,1.652,0.601,2.608,7.989
		c0.939,0.908,2.172-2.398,2.172-2.398s-0.26,4.974,3.806,5.88c1.087,0.455,1.638,1.037,1.638,1.037s0.405-2.251-0.956-3.159
		c-1.346-0.891-0.536-2.105,0.534-1.198c3.046,2.51,6.416,2.414,7.647,0.144c1.216-2.268,1.896-3.466,2.982-4.067
		c-1.085-0.908-2.721-1.36-4.505,0.146c-1.749,1.506-2.721,1.054-3.24,0.455c-0.874-0.957,1.621-2.577,2.56-2.577
		c-1.49-2.253-3.111-1.2-4.909-0.859c-2.835,0.519-4.05-2.754-1.344-3.954c-0.455-0.81-3.468-1.037-4.894-0.906
		c-1.636,0.144-2.3-1.037-0.81-1.961c1.07-0.309,1.815-0.551,1.621-1.961c-2.172,0.455-4.392-0.275-5.379-2.884
		c-0.989-2.608,1.36-3.419,2.819-3.063c0.664,0.146,9.704,5.542,8.765,7.113c-1.15,1.994,0.793,3.565,1.863,3.273
		c-1.004-0.534-1.458-3.03,0.227-3.403c0,0,1.523,0.309,2.867-0.129c1.118-0.388,1.216-1.085,2.057-0.599
		c-0.469-1.492-1.878-1.88-4.213-1.102c0.584-0.503,1.005-1.037,1.183-2.091c0.081-0.453,0.455-1.799,0.924-2.009
		c-1.782-0.227-2.172,0.438-2.673,1.264c-0.34,0.582-0.697,1.473-1.362,1.507c-1.765,0.129-3.305-1.556-4.488-2.397
		c-2.105-1.523-2.819-3.063-2.041-4.083c1.847-2.399,7.08,3.013,11.699,0c3.37-2.188,4.924-1.442,4.924-1.442
		s0.115-2.107-2.431-2.383c-3.176-0.34-2.608-3.808,1.054-3.273c6.27,0.908,8.571-2.105,9.933-4.213
		c1.878-2.915,1.619-8.004,1.619-8.004S88.365,159.292,87.117,159.615z M52.546,170.258L53.595,178h-7.006l1.048-7.656
		c-2.085-0.912-3.549-2.863-3.549-5.289c0-3.256,2.655-5.911,5.911-5.911c3.269,0,5.911,2.655,5.911,5.911
		C55.911,167.41,54.536,169.307,52.546,170.258z"/>
</g>
<path d="M-34.125,30.875c0,12.392-10.046,22.438-22.438,22.438S-79,43.267-79,30.875S-68.954,8.438-56.562,8.438
	S-34.125,18.483-34.125,30.875z M-56,93.874c20-0.015,36.812-3.812,36.812-3.812s-7.656-21.281-10.281-24.406
	c-2.52-3-25.531-5.8-26.531-6.016v-0.015c0,0-0.463,0.003-0.5,0.008c-0.037-0.005-0.5-0.008-0.5-0.008v0.015
	c-1,0.216-23.855,2.984-26.375,5.985C-86,68.75-93.625,90-93.625,90s16.248,3.859,37.062,3.874L-56.5,94c0.021,0,0.042,0,0.062,0
	S-56,94-56,94V93.874z"/>
<g>
	<path fill-rule="evenodd" clip-rule="evenodd" d="M143.2,23.267h18.007L167.21,5.26h-30.012L143.2,23.267z"/>
	<path fill-rule="evenodd" clip-rule="evenodd" d="M161.207,24H143.2l-15.006,49.154l24.01,21.576l24.01-21.859L161.207,24z
		 M141.442,57.192l16.583-16.583l1.712,5.632L138.088,67.89l3.276-10.776L141.442,57.192z M161.836,53.145l1.765,5.805
		l-19.216,19.057l-3.706-3.706L161.836,53.145z M155.205,32l0.841,2.432L145.005,45.64L149.202,32H155.205z M152.203,85.825
		l-2.9-2.9l16.586-16.448l1.32,4.342L152.203,85.825z"/>
	<path fill-rule="evenodd" clip-rule="evenodd" d="M167.21,32.271l6.002,21.008l15.006,9.004l-6.003-21.009L167.21,32.271z"/>
</g>
<g>
	<path fill-rule="evenodd" clip-rule="evenodd" d="M5.5-18.75l28.125-25.312L50.5-30l16.875-14.062L95.5-18.75H5.5z"/>
	<path fill-rule="evenodd" clip-rule="evenodd" d="M95.5-66.562L70.188-46.875l25.312,22.5V-66.562z"/>
	<path fill-rule="evenodd" clip-rule="evenodd" d="M5.5-66.562l25.312,19.688L5.5-24.375V-66.562z"/>
	<path fill-rule="evenodd" clip-rule="evenodd" d="M5.5-80.625v8.438l45,36.563l45-36.563v-8.438H5.5z"/>
</g>
<g>
	<path fill-rule="evenodd" clip-rule="evenodd" d="M-35.409-69.77l18.281,18.281l-40.218,40.218l-18.281-18.281L-35.409-69.77z"/>
	<path fill-rule="evenodd" clip-rule="evenodd" d="M-77.456-27.724l18.281,18.281l-25.593,7.312L-77.456-27.724z"/>
	<path fill-rule="evenodd" clip-rule="evenodd" d="M-9.588-65.885l-11.425-11.425c-1.893-1.893-5.064-1.791-7.084,0.229
		l-5.484,5.484L-15.3-53.317l5.484-5.484C-7.797-60.821-7.694-63.992-9.588-65.885z"/>
</g>
<path fill-rule="evenodd" clip-rule="evenodd" d="M187.731-92h-71.414C111.387-92,106-87.995,106-83.065v59.512
	c0,4.93,5.387,7.553,10.317,7.553h5.035c-1.294,4-3.962,9.878-8.01,11.902c0,0,22.206-1.902,30.667-11.902h43.722
	c4.93,0,8.269-2.623,8.269-7.553v-59.512C196-87.995,192.661-92,187.731-92z M128.22-47.358c-3.287,0-5.951-2.665-5.951-5.951
	s2.665-5.951,5.951-5.951c3.287,0,5.951,2.664,5.951,5.951S131.506-47.358,128.22-47.358z M152.024-47.358
	c-3.287,0-5.951-2.665-5.951-5.951s2.664-5.951,5.951-5.951c3.287,0,5.951,2.664,5.951,5.951S155.311-47.358,152.024-47.358z
	 M175.829-47.358c-3.287,0-5.951-2.665-5.951-5.951s2.664-5.951,5.951-5.951c3.287,0,5.951,2.664,5.951,5.951
	S179.116-47.358,175.829-47.358z"/>
<g>
	<path fill-rule="evenodd" clip-rule="evenodd" d="M145.341,192.183c0,0-5.545,2.772-8.317,5.545
		c-2.772,2.772,2.772,2.772,2.772,2.772h33.269c0,0,5.545,0,2.772-2.772c-2.772-2.772-8.317-5.545-8.317-5.545v-8.317h-22.179
		V192.183z"/>
	<path fill-rule="evenodd" clip-rule="evenodd" d="M199,118.545c0-3.062-2.483-5.545-5.545-5.545h-77.91
		c-3.062,0-5.545,2.482-5.545,5.545v57.911c0,3.062,2.483,5.545,5.545,5.545h77.91c3.062,0,5.545-2.482,5.545-5.545V118.545z
		 M194,163.455c0,3.062-2.483,5.545-5.545,5.545h-66.91c-3.062,0-5.545-2.483-5.545-5.545v-38.91c0-3.062,2.483-5.545,5.545-5.545
		h66.91c3.062,0,5.545,2.483,5.545,5.545V163.455z"/>
</g>
<path d="M281.255-85H214v5h16v42.257c0,6.32-0.786,9.483-3.128,9.483c-4.04,0-5.872-3.374-5.872-10.121
	c0-1.915,0.614-5.032,1.646-9.346l-6.563,1.778c-0.974,3.619-1.435,6.61-1.435,8.981c0,3.983,1.716,7.363,5.118,10.144
	c3.402,2.781,7.148,4.171,12.043,4.171c11.061,0,16.191-7.858,16.191-23.57V-80h5v58h18v-25h7.664
	c17.188,0,25.784-6.594,25.784-19.092C304.448-78.467,296.717-85,281.255-85z M276.441-53H271v-27h5.441
	c6.666,0,9.999,4.813,9.999,13.083C286.44-58.091,283.107-53,276.441-53z"/>
<path fill="#040000" d="M-63.418,133.723c4.433-2.639,8.05-5.038,9.29-5.773c1.243-0.74,1.196-2.634,0.138-4.407
	c-1.056-1.775-9.821-16.486-9.821-16.486c-1.373-2.305-2.887-4.648-5.014-3.377c-2.128,1.266-3.723,2.216-9.218,5.491
	c-5.495,3.272-12.789,21.669,6.322,53.758c19.114,32.085,38.767,34.43,44.26,31.158c5.498-3.274,7.093-4.225,9.221-5.491
	c2.125-1.27,0.789-3.713-0.584-6.019c0,0-8.763-14.716-9.818-16.486c-1.058-1.775-2.7-2.716-3.942-1.978
	c-1.24,0.74-5.068,2.782-9.501,5.421s-9.365-4.031-15.807-14.844C-64.333,143.876-67.85,136.365-63.418,133.723z"/>
<path fill="#231815" d="M28.408,54.182c-0.46,0.506-0.915,1.006-1.364,1.5c-0.759,0.724-1.415,1.086-1.968,1.086
	c-0.564,0-1.047-0.253-1.45-0.759c-0.403-0.506-0.604-1.064-0.604-1.674v-1.329l2.054-8.714c0-0.149-0.11-0.357-0.328-0.621
	c-0.219-0.265-0.403-0.397-0.552-0.397c-1.105,0-2.106,1.116-3.003,3.349c-0.656,1.634-1.22,3.705-1.692,6.214
	c-0.173,1.128-0.345,2.25-0.518,3.366c-0.046,0.046-0.227,0.107-0.544,0.181c-0.317,0.075-0.671,0.112-1.062,0.112
	c-0.299,0.011-0.478,0.017-0.535,0.017c-0.081,0-0.132-0.047-0.155-0.14c-0.023-0.093-0.075-0.197-0.155-0.314l2.589-12.475
	c0-0.38-0.063-0.67-0.19-0.871c-0.127-0.201-0.305-0.302-0.535-0.302c-1.001,0-1.985,1.087-2.952,3.262
	c-0.714,1.6-1.392,3.723-2.037,6.369c-0.322,1.439-0.645,2.871-0.967,4.298H9.991v-0.57c0.184-0.415,0.524-1.498,1.018-3.249
	c0.575-2.039,1.03-3.859,1.364-5.46c0.449-2.131,0.673-3.738,0.673-4.821c0-0.772-0.21-1.35-0.63-1.736
	c-0.42-0.386-0.998-0.579-1.735-0.579c-1.082,0-2.043,0.491-2.883,1.471c-0.771,0.9-1.157,1.818-1.157,2.752
	c0,0.738,0.149,1.264,0.449,1.575c0.299,0.312,0.777,0.467,1.433,0.467c0.391,0,0.696-0.075,0.915-0.224
	c0.035-0.023,0.265-0.242,0.69-0.656h0.397v0.57c0,0.61-0.245,1.148-0.734,1.614c-0.489,0.466-1.108,0.699-1.856,0.699
	c-0.759,0-1.433-0.273-2.019-0.82c-0.587-0.546-0.72-0.818-0.88-1.734c-0.083-0.472,0-1.209,0-1.209
	c0.096-1.122,0.662-2.158,1.985-3.4c1.381-1.3,2.698-1.95,3.953-1.95h1.329c0.46,0,0.984,0.213,1.571,0.639
	c0.794,0.576,1.191,1.329,1.191,2.261c0,0.598-0.006,1.024-0.017,1.277c-0.012,0.253-0.058,0.645-0.138,1.174
	c0.334,0,0.82-0.486,1.459-1.459c0.639-0.972,1.407-1.458,2.304-1.458c0.426,0,0.84,0.127,1.243,0.38
	c0.529,0.334,0.794,0.794,0.794,1.381v1.881l0.138,0.311c0.702-0.897,1.231-1.536,1.588-1.916c0.621-0.667,1.352-1.001,2.192-1.001
	c0.46,0,0.92,0.259,1.381,0.776c0.552,0.61,0.829,1.369,0.829,2.278c0,0.299-0.181,1.234-0.544,2.804
	c-0.362,1.57-0.722,3.092-1.079,4.564c-0.196,0.782-0.391,1.565-0.587,2.347c0,0.046,0.104,0.158,0.311,0.337
	c0.207,0.178,0.351,0.267,0.432,0.267c0.38,0,0.863-0.35,1.45-1.051c0.23-0.276,0.615-0.798,1.156-1.568h0.432V54.182z
	 M35.036,52.562c-0.173,0.126-0.34,0.252-0.501,0.379c-0.127,0.069-0.322,0.103-0.587,0.103c-0.576,0-1.047-0.28-1.415-0.841
	c-0.265-0.446-0.529-0.893-0.794-1.339c-0.714,1.182-1.231,2.153-1.553,2.91c-0.322,0.861-0.639,1.717-0.949,2.566H27.51v-1.568
	c0.127-0.402,0.267-1.249,0.423-2.542c0.155-1.292,0.325-2.18,0.509-2.662c0.311-0.815,0.782-1.224,1.415-1.224
	c0.092,0,0.247,0.115,0.466,0.345c0.219,0.231,0.328,0.374,0.328,0.432l-0.639,2.054v0.622c0.506-0.391,1.122-1.162,1.847-2.313
	c0.472-0.759,1.11-1.139,1.916-1.139c0.242,0,0.408,0.023,0.501,0.069c0.196,0.092,0.293,0.275,0.293,0.551
	c0,0.184-0.155,0.608-0.466,1.274c-0.311,0.666-0.466,1.13-0.466,1.394c0,0.345,0.196,0.563,0.587,0.654
	C34.616,52.379,34.886,52.47,35.036,52.562z M37.124,55.098c0,0.381-0.184,0.698-0.552,0.953c-0.276,0.196-0.501,0.294-0.673,0.294
	c-0.311,0-0.593-0.115-0.846-0.346c-0.253-0.231-0.38-0.479-0.38-0.745c0-0.289,0.127-0.578,0.38-0.866
	c0.299-0.335,0.633-0.502,1.001-0.502c0.449,0,0.754,0.144,0.915,0.433C37.073,54.503,37.124,54.763,37.124,55.098z M59.945,53.624
	c0.097,0.098,0.156,0.171,0.175,0.219c0.019,0.049,0.029,0.093,0.029,0.131c0,0.117-0.083,0.332-0.248,0.643
	c-0.166,0.312-0.395,0.692-0.687,1.14c-0.273,0.428-0.487,0.716-0.643,0.862c-0.156,0.146-0.341,0.219-0.555,0.219
	c-0.351,0-0.779-0.185-1.285-0.555c-0.409-0.292-0.799-0.623-1.169-0.994c-0.37-0.37-0.838-0.906-1.402-1.607
	c-0.351-0.448-0.648-0.818-0.891-1.11c-0.244-0.292-0.458-0.54-0.643-0.745c-0.185-0.204-0.351-0.375-0.497-0.511
	c-0.146-0.136-0.297-0.273-0.453-0.409c-0.195-0.156-0.39-0.292-0.584-0.409c-0.195-0.117-0.341-0.175-0.438-0.175
	c-0.175,0-0.321,0.166-0.438,0.497c-0.37,0.877-0.75,1.621-1.139,2.235c-0.39,0.614-0.857,1.183-1.403,1.709
	c-0.662,0.624-1.349,1.11-2.06,1.461c-0.711,0.351-1.388,0.526-2.031,0.526c-0.916,0-1.651-0.4-2.206-1.198
	c-0.555-0.798-0.833-1.841-0.833-3.126c0-0.876,0.146-1.812,0.438-2.805c0.292-0.993,0.701-2.001,1.227-3.024
	c0.526-1.022,1.169-2.031,1.928-3.024c0.76-0.993,1.607-1.948,2.542-2.863c0.896-0.857,1.807-1.592,2.732-2.206
	c0.925-0.614,1.826-1.076,2.703-1.388c0.545-0.214,1.159-0.38,1.841-0.497c0.682-0.117,1.275-0.175,1.782-0.175
	c1.383,0,2.493,0.365,3.331,1.096c0.837,0.73,1.256,1.709,1.256,2.936c0,0.838-0.19,1.651-0.57,2.44
	c-0.38,0.789-0.906,1.51-1.578,2.162c-0.672,0.653-1.466,1.213-2.381,1.68c-0.916,0.468-1.909,0.799-2.98,0.994
	c-0.312,0.058-0.468,0.136-0.468,0.234c0,0.098,0.097,0.205,0.292,0.321c0.351,0.214,0.798,0.57,1.344,1.066
	c0.545,0.497,1.023,0.999,1.432,1.505l1.519,1.87c0.234,0.273,0.623,0.653,1.169,1.139c0.214,0.195,0.384,0.326,0.511,0.395
	c0.126,0.068,0.238,0.102,0.336,0.102c0.234,0,0.37-0.117,0.409-0.351l0.088-0.292c0.039-0.175,0.136-0.263,0.292-0.263
	C59.799,53.478,59.867,53.527,59.945,53.624z M53.59,38.46c0,0.117-0.039,0.253-0.117,0.409c-0.098,0.195-0.195,0.438-0.293,0.73
	c-0.176,0.467-0.323,0.935-0.44,1.402c-0.039,0.156-0.098,0.409-0.176,0.76c-0.079,0.351-0.186,0.789-0.323,1.315l-0.44,1.782
	c-0.176,0.701-0.293,1.15-0.352,1.344c-0.039,0.117-0.064,0.219-0.073,0.307c-0.01,0.088-0.025,0.18-0.044,0.278v0.029
	c0,0.195,0.147,0.292,0.44,0.292c0.274,0,0.65-0.083,1.129-0.248c0.479-0.165,0.963-0.384,1.452-0.657
	c0.547-0.292,0.997-0.604,1.349-0.935c0.352-0.331,0.684-0.75,0.997-1.256c0.704-1.11,1.056-2.24,1.056-3.389
	c0-0.954-0.308-1.733-0.924-2.337c-0.616-0.604-1.403-0.906-2.361-0.906c-1.564,0-3.128,0.614-4.692,1.841s-3.099,3.058-4.604,5.493
	c-0.626,1.032-1.139,1.992-1.54,2.878c-0.401,0.887-0.758,1.855-1.07,2.907c-0.176,0.624-0.313,1.203-0.411,1.738
	c-0.098,0.536-0.147,1.018-0.147,1.446c0,0.74,0.142,1.315,0.425,1.724c0.283,0.409,0.679,0.614,1.188,0.614
	c0.782,0,1.481-0.404,2.097-1.213c0.616-0.808,1.217-2.099,1.804-3.871c0.117-0.351,0.205-0.584,0.264-0.701
	c0.019-0.078,0.039-0.151,0.059-0.219c0.02-0.068,0.03-0.122,0.03-0.161c0-0.097-0.044-0.18-0.132-0.248
	c-0.088-0.068-0.191-0.102-0.308-0.102h-0.029c-0.059,0-0.122,0.005-0.191,0.015c-0.068,0.01-0.152,0.025-0.249,0.044
	c-0.117,0.02-0.21,0.034-0.279,0.044c-0.068,0.01-0.113,0.015-0.132,0.015c-0.117,0.039-0.195,0.059-0.235,0.059
	c-0.137,0-0.205-0.059-0.205-0.175c0-0.059,0.039-0.146,0.117-0.263c0.098-0.136,0.181-0.253,0.249-0.351
	c0.069-0.097,0.122-0.175,0.162-0.234c0.312-0.467,0.527-0.774,0.645-0.92c0.117-0.146,0.225-0.267,0.323-0.365
	c0.117-0.097,0.303-0.175,0.557-0.234l0.205-0.058c0.039-0.039,0.073-0.102,0.102-0.19c0.029-0.088,0.093-0.316,0.191-0.687
	l0.323-1.286c0.039-0.097,0.093-0.326,0.161-0.687c0.068-0.36,0.171-0.862,0.308-1.505c0.136-0.682,0.263-1.251,0.381-1.709
	c0.117-0.457,0.235-0.813,0.352-1.066c0.059-0.136,0.126-0.234,0.205-0.292c0.078-0.058,0.215-0.136,0.411-0.234l2.405-1.11
	c0.078-0.039,0.147-0.058,0.205-0.058C53.531,38.255,53.59,38.324,53.59,38.46z M62.195,49.855l1.549-0.234h0.088
	c0.253,0,0.38,0.107,0.38,0.321c0,0.078-0.01,0.136-0.029,0.175l-0.877,3.565l-0.059,0.204l-0.058,0.321v0.088
	c0,0.331,0.117,0.497,0.351,0.497c0.214,0,0.414-0.107,0.599-0.321c0.185-0.214,0.336-0.487,0.453-0.818
	c0.097-0.234,0.165-0.384,0.205-0.453c0.039-0.068,0.097-0.102,0.175-0.102c0.117,0,0.175,0.088,0.175,0.263v0.146
	c-0.058,0.175-0.142,0.375-0.248,0.599c-0.107,0.224-0.219,0.414-0.336,0.57c-0.39,0.507-0.852,0.931-1.388,1.271
	c-0.536,0.341-1.008,0.511-1.417,0.511c-0.682,0-1.023-0.351-1.023-1.052c0-0.078,0-0.166,0-0.263c0-0.097,0.01-0.194,0.029-0.292
	c0.019-0.292,0.048-0.516,0.088-0.672l0.059-0.292l0.789-3.418C61.795,50.098,61.961,49.894,62.195,49.855z M64.415,46.626
	c-0.253,0.244-0.565,0.365-0.935,0.365c-0.39,0-0.706-0.122-0.95-0.365c-0.244-0.243-0.365-0.55-0.365-0.92
	c0-0.389,0.121-0.716,0.365-0.979c0.243-0.263,0.55-0.395,0.92-0.395c0.389,0,0.711,0.132,0.964,0.395
	c0.253,0.263,0.38,0.589,0.38,0.979C64.795,46.076,64.668,46.383,64.415,46.626z M67.6,49.942l1.432-0.263h0.058
	c0.253,0,0.38,0.117,0.38,0.351v0.175c-0.039,0.175-0.059,0.302-0.059,0.38c0,0.078,0,0.156,0,0.234
	c0,0.156,0.019,0.234,0.059,0.234c0.039,0,0.107-0.058,0.204-0.175c0.234-0.273,0.404-0.457,0.511-0.555
	c0.107-0.097,0.238-0.194,0.394-0.292c0.234-0.156,0.492-0.282,0.774-0.38c0.282-0.097,0.53-0.146,0.745-0.146
	c0.448,0,0.833,0.219,1.154,0.657c0.321,0.438,0.482,0.95,0.482,1.534c0,0.584-0.136,1.198-0.409,1.841
	c-0.273,0.643-0.643,1.218-1.11,1.724c-0.332,0.351-0.701,0.628-1.11,0.833c-0.409,0.205-0.808,0.307-1.198,0.307
	c-0.409,0-0.741-0.078-0.993-0.234c-0.136-0.097-0.234-0.146-0.292-0.146c-0.136,0-0.234,0.166-0.292,0.497l-0.497,3.009
	c-0.058,0.331-0.253,0.506-0.584,0.526l-1.169,0.146h-0.234c-0.195,0-0.292-0.117-0.292-0.351c0-0.039,0-0.088,0-0.146
	c0-0.039,0.01-0.098,0.029-0.175l0.029-0.234l1.519-8.824C67.191,50.176,67.347,50.001,67.6,49.942z M69.411,55.085
	c0.078,0.273,0.151,0.458,0.219,0.555c0.068,0.098,0.19,0.146,0.365,0.146c0.448,0,0.847-0.506,1.198-1.519
	c0.214-0.701,0.321-1.295,0.321-1.782c0-0.311-0.064-0.56-0.19-0.745c-0.127-0.185-0.297-0.278-0.511-0.278
	c-0.175,0-0.375,0.069-0.599,0.205c-0.224,0.136-0.414,0.312-0.57,0.526c-0.136,0.156-0.248,0.321-0.336,0.497
	c-0.088,0.175-0.171,0.361-0.248,0.555c-0.156,0.429-0.258,0.74-0.307,0.935c-0.049,0.195-0.073,0.351-0.073,0.468
	c0,0.175,0.088,0.263,0.263,0.263h0.029l0.205-0.029h0.029C69.304,54.88,69.372,54.949,69.411,55.085z M76.19,49.942l1.432-0.263
	h0.058c0.253,0,0.38,0.117,0.38,0.351v0.175c-0.039,0.175-0.059,0.302-0.059,0.38c0,0.078,0,0.156,0,0.234
	c0,0.156,0.019,0.234,0.059,0.234c0.039,0,0.107-0.058,0.204-0.175c0.234-0.273,0.404-0.457,0.511-0.555
	c0.107-0.097,0.238-0.194,0.394-0.292c0.234-0.156,0.492-0.282,0.774-0.38c0.282-0.097,0.53-0.146,0.745-0.146
	c0.448,0,0.833,0.219,1.154,0.657c0.321,0.438,0.482,0.95,0.482,1.534c0,0.584-0.136,1.198-0.409,1.841
	c-0.273,0.643-0.643,1.218-1.11,1.724c-0.332,0.351-0.701,0.628-1.11,0.833c-0.409,0.205-0.808,0.307-1.198,0.307
	c-0.409,0-0.741-0.078-0.993-0.234c-0.136-0.097-0.234-0.146-0.292-0.146c-0.136,0-0.234,0.166-0.292,0.497l-0.497,3.009
	c-0.058,0.331-0.253,0.506-0.584,0.526l-1.169,0.146h-0.234c-0.195,0-0.292-0.117-0.292-0.351c0-0.039,0-0.088,0-0.146
	c0-0.039,0.01-0.098,0.029-0.175l0.029-0.234l1.519-8.824C75.78,50.176,75.936,50.001,76.19,49.942z M78.001,55.085
	c0.078,0.273,0.151,0.458,0.219,0.555c0.068,0.098,0.19,0.146,0.365,0.146c0.448,0,0.847-0.506,1.198-1.519
	c0.214-0.701,0.321-1.295,0.321-1.782c0-0.311-0.064-0.56-0.19-0.745c-0.127-0.185-0.297-0.278-0.511-0.278
	c-0.175,0-0.375,0.069-0.599,0.205c-0.224,0.136-0.414,0.312-0.57,0.526c-0.136,0.156-0.248,0.321-0.336,0.497
	c-0.088,0.175-0.171,0.361-0.248,0.555c-0.156,0.429-0.258,0.74-0.307,0.935c-0.049,0.195-0.073,0.351-0.073,0.468
	c0,0.175,0.088,0.263,0.263,0.263h0.029l0.205-0.029h0.029C77.894,54.88,77.962,54.949,78.001,55.085z M85.773,38.942
	c0.058-0.068,0.165-0.121,0.321-0.161l1.402-0.263c0.058-0.019,0.117-0.029,0.175-0.029c0.234,0,0.351,0.098,0.351,0.292
	c0,0.078-0.01,0.136-0.029,0.175l-2.425,13.557l-0.059,0.351c-0.039,0.215-0.068,0.375-0.088,0.482
	c-0.02,0.107-0.029,0.18-0.029,0.219c-0.059,0.332-0.088,0.604-0.088,0.818c0,0.39,0.126,0.584,0.38,0.584
	c0.156,0,0.326-0.058,0.511-0.175c0.185-0.117,0.355-0.267,0.511-0.453c0.156-0.185,0.302-0.399,0.438-0.643
	c0.136-0.243,0.234-0.492,0.292-0.745c0.097-0.389,0.214-0.584,0.351-0.584c0.097,0,0.18,0.063,0.248,0.19
	c0.068,0.127,0.102,0.288,0.102,0.482c0,0.312-0.098,0.624-0.292,0.935c-0.195,0.312-0.516,0.663-0.964,1.052
	c-0.487,0.448-0.896,0.77-1.227,0.964c-0.332,0.195-0.73,0.36-1.198,0.497c-0.292,0.097-0.545,0.146-0.76,0.146
	c-0.643,0-0.964-0.419-0.964-1.256c0-0.097,0-0.194,0-0.292c0-0.117,0.01-0.224,0.029-0.321c0-0.097,0.005-0.185,0.015-0.263
	c0.01-0.078,0.019-0.165,0.029-0.263c0.01-0.097,0.029-0.214,0.059-0.351c0.029-0.136,0.063-0.311,0.102-0.526l0.058-0.292
	l2.6-13.732C85.665,39.142,85.714,39.01,85.773,38.942z M94.727,52.309c-0.146,0.292-0.341,0.551-0.584,0.774
	c-0.244,0.224-0.526,0.404-0.847,0.54c-0.321,0.137-0.657,0.204-1.008,0.204c-0.253,0-0.467-0.039-0.643-0.117
	c-0.098-0.019-0.171-0.034-0.219-0.044c-0.049-0.01-0.093-0.015-0.132-0.015c-0.214,0-0.321,0.175-0.321,0.526
	c0,0.409,0.097,0.75,0.292,1.023c0.195,0.273,0.448,0.409,0.76,0.409c0.273,0,0.589-0.088,0.95-0.263
	c0.36-0.175,0.647-0.399,0.862-0.672c0.058-0.059,0.185-0.234,0.38-0.526c0.019-0.078,0.068-0.156,0.146-0.234
	c0.097-0.175,0.195-0.263,0.292-0.263c0.136,0,0.204,0.069,0.204,0.205c0,0.312-0.137,0.653-0.409,1.022
	c-0.37,0.487-0.838,0.872-1.402,1.154c-0.565,0.283-1.159,0.424-1.782,0.424c-0.838,0-1.51-0.243-2.016-0.731
	c-0.507-0.487-0.76-1.149-0.76-1.987c0-0.584,0.117-1.139,0.351-1.665c0.234-0.526,0.541-0.993,0.92-1.402
	c0.38-0.409,0.823-0.73,1.329-0.964c0.506-0.234,1.042-0.351,1.607-0.351c0.623,0,1.154,0.195,1.592,0.584
	c0.438,0.39,0.657,0.867,0.657,1.432C94.947,51.705,94.874,52.017,94.727,52.309z M91.893,52.806
	c0.088-0.039,0.17-0.078,0.248-0.117c0.292-0.194,0.55-0.482,0.774-0.862c0.224-0.38,0.336-0.725,0.336-1.037
	c0-0.448-0.136-0.672-0.409-0.672c-0.273,0-0.526,0.146-0.76,0.438c-0.156,0.175-0.312,0.438-0.468,0.789
	c-0.234,0.526-0.351,0.906-0.351,1.139c0,0.253,0.117,0.38,0.351,0.38C91.713,52.864,91.806,52.845,91.893,52.806z M52.036,33.701
	c0.172-0.195,0.421-0.345,0.745-0.454c0.238,0,0.518,0.055,0.843,0.162c1.921,0.713,4.092,0.983,6.511,0.81
	c0.368,0,0.692,0.141,0.972,0.421c0.151,0.475,0.054,0.918-0.292,1.328l-0.388,0.161l-3.531-0.065l-0.648-0.097
	c-0.195,0-0.4-0.033-0.615-0.098h-0.325c-0.237-0.086-0.486-0.14-0.745-0.162l-1.556-0.454l-0.874-0.421
	C52.025,34.532,51.992,34.154,52.036,33.701z M55.632,27.092l0.226-0.065h1.491c1.706-0.151,3.38,0.173,5.02,0.972
	c-0.064,0.152-0.194,0.324-0.389,0.518l-0.939,1.036c-0.086,0.087-0.161,0.178-0.227,0.276c-0.064,0.097-0.14,0.2-0.226,0.308
	l-0.226,0.259l-0.39,0.551l-0.194,0.259l-0.163,0.356c-0.174,0.238-0.269,0.432-0.291,0.583c-0.109,0.152-0.184,0.335-0.225,0.551
	l-0.067,0.097c-0.043,0.324-0.021,0.637,0.067,0.94l-0.067,0.097l-1.23,0.065l-0.453-0.065h-0.583l-0.356-0.033l-1.491-0.388
	l-0.421-0.194c0-0.325,0.043-0.67,0.131-1.037v-0.162l0.064-0.551c0.087-0.238,0.108-0.551,0.064-0.94v-1.069l-0.064-0.421
	c0-0.173-0.064-0.41-0.195-0.713v-0.161l-0.323-0.875l0.679-0.097l0.357-0.032L55.632,27.092z"/>
</svg>
