<?xml version="1.0" encoding="utf-8"?>
<!-- Generator: Adobe Illustrator 18.1.0, SVG Export Plug-In . SVG Version: 6.00 Build 0)  -->
<svg version="1.1" id="Layer_1" xmlns="http://www.w3.org/2000/svg" xmlns:xlink="http://www.w3.org/1999/xlink" x="0px" y="0px"
	 viewBox="0 0 139.9 99.1" enable-background="new 0 0 139.9 99.1" xml:space="preserve">
<g>
	<rect x="0" y="0" fill="none" width="139.9" height="99.1"/>
	<g>
		<g>
			<path d="M15.5,29.4c13.6,0,27.1,0,40.7,0c-0.1,2-0.1,4.1,0,6.1C42.6,42.8,29,50,15.5,57.2C15.5,48,15.5,38.7,15.5,29.4z"/>
			<path d="M56,37c3.9-2.3,7.4-5.1,11.3-7.4c-3.6,3-7.4,5.8-11.1,8.6c0,0.6-0.1,1.2-0.1,1.7C42.5,48.5,29,57,15.5,65.6
				c0-1,0-2.1,0-3.1C28.9,53.9,42.4,45.4,56,37z"/>
			<path d="M18.9,69.6c17.3-13.1,34.7-26.1,51.8-39.4c-4.6,4.5-9.6,8.6-14.3,12.9c-0.5,0.6-0.3,1.5-0.4,2.2
				c-9.8,7.7-19.7,15.3-29.5,23.1C24.5,70.5,21.4,69.3,18.9,69.6z"/>
			<path d="M77.5,31.1c2.5-0.1,5.1-0.5,7.4,0.5c2.2,1,2.5,4,1.4,5.9c-0.9,1.5-2.6,2.1-4.2,2.3c-0.7,0.2-1.2-0.1-1.4-0.8
				c1.2-0.5,2.9-0.9,3.1-2.4c0.2-1.2,0.3-2.8-0.7-3.6c-0.7-0.7-1.8-0.4-2.7-0.5c0,4.3,0,8.6,0,13c-1,0-1.9,0-2.9,0
				C77.5,40.6,77.4,35.8,77.5,31.1z"/>
			<path d="M67.9,37.5c2.3-2.3,4.6-4.6,7-6.7c-6.2,7.3-12.6,14.5-18.9,21.8c0.2,5.7,0,11.3,0.1,17c-7.2,0-14.4,0-21.5,0
				C45.8,58.9,56.9,48.3,67.9,37.5z"/>
			<g>
				<path d="M89.2,36.8c1.8-0.7,3.7-1.4,5.6-1.2c0.9,0.1,1.7,0.8,1.8,1.7c0.2,2.3-0.1,4.7,0.3,7c0.4,0,1.3,0.1,1.8,0.1
					c-1,1.6-3.4,2.1-4.7,0.5c-1,0.5-2.1,1.2-3.3,1c-2.9-0.2-3.2-5-0.5-5.8c1.2-0.5,2.5-0.4,3.7-0.4c0-0.7-0.1-1.3-0.1-2
					C92.7,36,90.2,38.6,89.2,36.8z M91.5,41.1c-0.1,1.1,0,2.2,0.2,3.3c0.8-0.1,1.6-0.2,2.4-0.4c-0.1-1.1-0.1-2.3-0.1-3.4
					C93.1,40.8,92.3,40.9,91.5,41.1z"/>
			</g>
			<path d="M98.3,36.3c0.2-0.2,0.5-0.5,0.7-0.7c1.1,0.1,2.7-0.3,3.3,0.9c1.1,2,1.8,4.2,2.5,6.3c1.5-1.9,1.8-4.5,1.5-6.8
				c0.7-0.1,1.5-0.2,2.2-0.4c0.5,3.2-1.3,6-3,8.5c-1.6,2.3-2.8,5-4.9,7c-1,1.1-3,1.5-4.2,0.4c3.1-0.8,4.9-3.6,6.6-6.1
				c-1-2.6-1.9-5.2-3.1-7.6C99.6,37.1,98.9,36.7,98.3,36.3z"/>
		</g>
		<g>
			<g>
				<path d="M61.6,53.4c2.5-0.4,5.7-0.7,8,0.8c2.3,2,1.2,6.1-1.4,7.3c1.3,2.3,2.6,4.6,5.2,5.6c-1.3,0.7-3,0.8-4.3,0.1
					c-1.9-1.2-2.5-3.5-3.8-5.1c-0.2-0.1-0.7-0.2-0.9-0.3c0,1.9,0,3.9,0,5.8c-1,0-1.9,0-2.9,0C61.5,62.9,61.3,58.1,61.6,53.4z
					 M64.3,54.6c0,1.9,0,3.9,0,5.8c1.1-0.2,2.5-0.1,3.1-1.3c0.5-1.2,0.5-2.7-0.2-3.8C66.5,54.6,65.3,54.8,64.3,54.6z"/>
			</g>
			<path d="M97.2,59.3c1.1-1.3,2.6-2.2,4.2-2.7c0,0.4,0.1,1.3,0.1,1.7c1,0,2,0,3,0c0.3,1.8-1.9,1.3-3.1,1.6c0.1,2.1-0.3,4.4,0.3,6.4
				c1,0.4,2.1,0,3.2,0c-1.2,1.4-3.1,1.8-4.9,1.7c-0.8,0-1.4-0.8-1.4-1.6c-0.1-2.2,0-4.4,0-6.7C98.3,59.7,97.6,59.5,97.2,59.3z"/>
			<g>
				<path d="M76.5,58.1c2-0.7,4.6-0.5,6,1.2c1.3,1.7,1.3,4,0.7,6c-1.4,3.9-8.3,3.8-9.4-0.4C73.1,62.5,73.7,59,76.5,58.1z M76.6,60.9
					c-0.2,2-0.5,4.4,1.2,5.8c0.7-0.1,1.5-0.1,2.2-0.5c0.7-1.8,0.7-3.9,0.2-5.8C79.8,58.7,76.6,58.9,76.6,60.9z"/>
			</g>
			<g>
				<path d="M106.8,59.9c1.2-2.1,4.1-2.7,6.2-1.7c1.5,0.7,1.9,2.4,2.4,3.7c-2,1-4.3,0.7-6.5,1.1c0.2,1.2,0.3,2.8,1.6,3.4
					c1.7,0.6,3.5-0.7,5.2-0.6c-2.1,1.9-5.6,3.3-8.1,1.5C105.7,65.4,105.7,62.2,106.8,59.9z M108.9,61.9c1.1,0,2.2,0,3.3,0
					c-0.3-1-0.4-2.8-1.9-2.6C109.1,59.3,109.3,61.1,108.9,61.9z"/>
			</g>
			<path d="M118.4,58.6c1.5-1.2,3.6-0.8,5.4-0.5c-0.1,0.6-0.2,1.2-0.3,1.8c-1.3-0.3-2.6-0.6-3.9-0.4c-0.4,0.8-0.1,1.6,0.8,1.8
				c1.4,0.7,3.5,1,3.9,2.8c0.4,1.7-0.9,3.1-2.3,3.8c-1.7,0.7-3.6,0.2-5.3-0.5c0.2-0.4,0.5-1.3,0.7-1.8c1.4,0.7,2.9,1.1,4.4,1
				c0-0.7,0.5-1.9-0.5-2.2c-1.3-0.7-3.1-0.9-4-2.3C116.7,60.9,117.3,59.3,118.4,58.6z"/>
			<path d="M86.1,58.3c0.9,0,1.9,0,2.8,0c0.1,2.5-0.2,5,0.1,7.5c0.5,1.5,2.4,0.4,3.4,0c0-2.5,0-5,0-7.5c0.9,0,1.9,0,2.8,0
				c0,3.1,0,6.2,0,9.3c-0.8,0-1.6,0-2.4,0c-0.1-0.3-0.3-0.8-0.3-1.1c-1.1,0.5-2.1,1.2-3.3,1.5c-1.5,0.4-3.1-0.9-3-2.5
				C86,63.2,86.1,60.7,86.1,58.3z"/>
		</g>
	</g>
</g>
<g>
</g>
<g>
</g>
<g>
</g>
<g>
</g>
<g>
</g>
<g>
</g>
<g>
</g>
<g>
</g>
<g>
</g>
<g>
</g>
<g>
</g>
<g>
</g>
<g>
</g>
<g>
</g>
<g>
</g>
</svg>
