<?xml version="1.0" encoding="utf-8"?>
<!-- Generator: Adobe Illustrator 18.1.0, SVG Export Plug-In . SVG Version: 6.00 Build 0)  -->
<svg version="1.1" id="Layer_1" xmlns="http://www.w3.org/2000/svg" xmlns:xlink="http://www.w3.org/1999/xlink" x="0px" y="0px"
	 viewBox="0 0 139.9 99.1" enable-background="new 0 0 139.9 99.1" xml:space="preserve">
<g>
	<rect x="0" y="0" fill="none" width="139.9" height="99.1"/>
	<g>
		<path opacity="0.2" d="M14.5,53.1c-0.4-0.6-0.9-1.1-1.5-1.4c-0.2-0.1-0.4-0.3-0.5-0.5c-0.3-0.4-0.3-1,0-1.4s0.7-0.7,1.2-0.7
			c0.3,0,0.5,0.1,0.7,0.2c0.6,0.4,1.3,0.6,2,0.6c1.3,0,2.5-0.7,3.1-1.9c0.6-1.1,0.6-2.5,0-3.6c-0.7-1.1-1.9-1.8-3.2-1.8
			c-1.3,0-2.5,0.7-3.1,1.9c-0.3,0.6-0.5,1.3-0.5,2c0,0.3-0.1,0.5-0.2,0.7c-0.2,0.4-0.7,0.7-1.2,0.7c-0.3,0-0.5-0.1-0.7-0.2
			c-0.2-0.1-0.4-0.3-0.5-0.5c-0.1-0.2-0.2-0.5-0.2-0.7c0-0.7-0.1-1.4-0.5-2c-0.7-1.1-1.9-1.8-3.2-1.8c-1.3,0-2.5,0.7-3.1,1.9
			c-0.6,1.1-0.6,2.5,0,3.6c0.7,1.1,1.9,1.8,3.2,1.8c0.7,0,1.4-0.2,1.9-0.6c0.2-0.1,0.5-0.2,0.7-0.2c0.3,0,0.5,0.1,0.7,0.2
			c0.2,0.1,0.4,0.3,0.5,0.5c0.3,0.4,0.3,1,0,1.4c-0.1,0.2-0.3,0.4-0.5,0.5c-0.6,0.3-1.1,0.8-1.4,1.4c-0.6,1.1-0.6,2.5,0,3.6
			c0.7,1.1,1.9,1.8,3.2,1.8c1.3,0,2.5-0.7,3.1-1.9C15.1,55.6,15.1,54.2,14.5,53.1z"/>
		<path opacity="0.4" d="M15.4,52.1c-0.5-0.5-1.1-0.8-1.8-0.9c-0.2-0.1-0.5-0.2-0.6-0.4c-0.4-0.4-0.5-0.9-0.4-1.4
			c0.1-0.5,0.5-0.9,1-1c0.2-0.1,0.5-0.1,0.7,0c0.7,0.2,1.4,0.2,2,0c1.2-0.4,2.2-1.4,2.5-2.6c0.3-1.3-0.1-2.6-1-3.5
			c-0.9-0.9-2.3-1.2-3.5-0.8c-1.2,0.4-2.2,1.4-2.5,2.6c-0.2,0.7-0.1,1.4,0.1,2c0.1,0.2,0.1,0.5,0,0.8c-0.1,0.5-0.5,0.9-1,1
			c-0.2,0.1-0.5,0.1-0.7,0c-0.2-0.1-0.5-0.2-0.7-0.4c-0.2-0.2-0.3-0.4-0.4-0.6c-0.2-0.7-0.5-1.3-1-1.8c-0.9-0.9-2.3-1.2-3.5-0.8
			c-1.2,0.4-2.2,1.4-2.5,2.6c-0.3,1.3,0.1,2.6,1,3.5c0.9,0.9,2.3,1.2,3.5,0.8c0.7-0.2,1.3-0.6,1.7-1.1C8.5,50,8.7,49.9,9,49.8
			c0.2-0.1,0.5-0.1,0.7,0c0.2,0.1,0.5,0.2,0.7,0.4c0.4,0.4,0.5,0.9,0.4,1.4c-0.1,0.3-0.2,0.5-0.4,0.7c-0.5,0.5-0.8,1.1-1,1.8
			c-0.3,1.3,0.1,2.6,1,3.5c0.9,0.9,2.3,1.2,3.5,0.8c1.2-0.4,2.2-1.4,2.5-2.6C16.7,54.4,16.3,53,15.4,52.1z"/>
		<g>
			<path d="M51.5,41.1c0.8,0,1.6,0,2.5,0c0,4.2-0.1,8.5,0,12.7c-0.8,0-1.6,0-2.5,0.1C51.5,49.7,51.5,45.4,51.5,41.1z"/>
			<path d="M27.8,41.5c0.9-0.8,2.6-0.1,2.4,1.2c0,1-1.3,1.6-2.1,1.1C27.2,43.3,27.1,42.1,27.8,41.5z"/>
			<path d="M73.6,41.4c0.8-0.6,2.2-0.2,2.3,0.9c0.2,0.9-0.7,1.8-1.7,1.6C73.1,43.8,72.6,42.1,73.6,41.4z"/>
			<path d="M65.6,42.4c1.7-1.1,3.8-0.8,5.6-0.4c0,0.9,0,1.7,0,2.6c-1.1-0.6-2.5-1.1-3.7-0.6c-0.7,0.2-1.1,1.2-0.5,1.8
				c1,1,2.6,1.2,3.6,2.3c1.6,1.5,1.4,4.7-0.7,5.6c-1.8,0.8-4,0.7-5.8-0.1c0-0.9,0-1.8,0-2.7c1.2,0.8,2.6,1.5,4.1,1
				c0.7-0.2,1.2-1.2,0.6-1.7c-0.9-1.1-2.5-1.3-3.6-2.2C63.6,46.5,63.7,43.5,65.6,42.4z"/>
			<g>
				<path d="M34.4,46.5c0.7-0.8,1.5-1.5,2.6-1.5c1.5-0.1,2.7,1.1,2.9,2.5c0.5,2.1,0.3,4.8-1.6,6.1c-1.3,0.9-3,0.5-3.9-0.7
					c0.1,1.6,0,3.3,0,4.9c-0.8,0-1.6,0-2.4,0c0-4.2,0-8.4,0-12.6c0.8,0,1.6,0,2.5,0C34.4,45.6,34.4,46.2,34.4,46.5z M35.4,47.3
					c-1.1,0.7-1.1,2.2-0.9,3.3c0.1,1,1.2,1.9,2.2,1.3c1.2-0.7,1.2-2.3,1-3.4C37.5,47.5,36.3,46.7,35.4,47.3z"/>
			</g>
			<g>
				<path d="M41.7,45.3c0.8,0,1.6,0,2.5,0c0,0.3,0,0.9,0,1.2c0.7-0.8,1.7-1.6,2.8-1.4c1.5,0.1,2.5,1.4,2.8,2.8
					c0.4,2,0.1,4.4-1.5,5.7c-1.2,1-3.1,0.7-4.1-0.5c0,1.6,0,3.3,0,4.9c-0.8,0-1.6,0-2.4,0C41.7,53.7,41.8,49.5,41.7,45.3z M45,47.4
					c-1,0.7-1,2.2-0.9,3.3c0.1,1.1,1.4,1.9,2.3,1.2c1.1-0.8,1.1-2.4,0.8-3.6C47.1,47.3,45.8,46.8,45,47.4z"/>
			</g>
			<g>
				<path d="M56.7,46.2c1.4-1.6,4.3-1.6,5.5,0.2c0.8,1.1,0.8,2.6,0.8,4c-1.7,0-3.4,0-5.2,0c0.2,0.6,0.3,1.3,0.9,1.6
					c1.1,0.6,2.5,0.2,3.6-0.3c0,0.6,0,1.3,0,1.9c-1.9,0.8-4.6,1-6-0.9C55.1,50.8,55.2,48,56.7,46.2z M57.8,48.7c1,0.1,2.1,0.1,3.2,0
					c-0.3-0.6-0.4-1.7-1.2-1.7C58.6,46.7,58.1,47.9,57.8,48.7z"/>
			</g>
			<path d="M80.1,46.5c0.7-0.9,1.8-1.7,3-1.5c1.2,0.1,2,1.3,2.1,2.4c0.2,2.1,0,4.3,0.1,6.4c-0.8,0-1.7,0-2.5,0c0-1.7,0-3.4,0-5.1
				c0-0.6-0.1-1.4-0.8-1.7c-0.9-0.5-1.9,0.5-1.9,1.4c-0.1,1.8,0,3.6,0,5.3c-0.8,0-1.6,0-2.4,0c-0.1-2.9,0-5.8-0.1-8.7
				c0.8,0,1.7,0,2.5,0C80.2,45.6,80.1,46.2,80.1,46.5z"/>
			<g>
				<path d="M88.5,45.6c1.2-0.9,3.1-0.7,4,0.5c0-0.2,0.1-0.6,0.1-0.9c0.8-0.1,1.6,0,2.4,0c-0.1,2.7,0,5.4,0,8.1c0,1.5-0.7,3.1-2,3.9
					c-1.6,1-3.7,0.8-5.4,0.3c0-0.8,0-1.5,0-2.3c1.2,0.6,2.8,1.1,4,0.3c0.9-0.6,1-1.8,1.1-2.8c-0.8,0.8-1.7,1.6-2.9,1.4
					C88.1,54,87,52.5,86.8,51C86.6,49.1,86.9,46.9,88.5,45.6z M90.2,47.4c-1.3,1.1-1.4,3.9,0.3,4.7c1.6,0.5,2.3-1.5,2.1-2.8
					C92.7,48,91.4,46.5,90.2,47.4z"/>
			</g>
			<g>
				<path d="M97.1,45.7c1.5-0.5,3.2-1,4.7-0.3c1.1,0.5,1.6,1.7,1.6,2.8c0.1,1.9,0,3.8,0,5.7c-0.8,0-1.6,0-2.3,0c0-0.3,0-0.9,0-1.2
					c-0.7,0.9-1.7,1.7-2.9,1.4c-2.4-0.4-2.6-4.2-0.5-5.1c1.1-0.5,2.3-0.5,3.5-0.7c-0.3-2.2-3-1.4-4.2-0.5
					C97.1,47.1,97.1,46.4,97.1,45.7z M98.7,50.7c-0.5,0.8,0.4,1.8,1.3,1.5c1.1-0.3,1.2-1.5,1.3-2.4C100.4,50.1,99.2,49.8,98.7,50.7z
					"/>
			</g>
			<g>
				<path d="M107.8,46.5c0.6-0.6,1.2-1.4,2.2-1.5c1.5-0.3,2.9,0.8,3.3,2.2c0.6,2.1,0.4,4.8-1.4,6.2c-1.3,1-3.1,0.7-4.1-0.5
					c0.1,1.6,0,3.3,0,4.9c-0.8,0-1.6,0-2.4,0c0-4.2,0-8.4,0-12.6c0.8,0,1.6,0,2.5,0C107.8,45.6,107.8,46.2,107.8,46.5z M108.8,47.3
					c-1.1,0.7-1.1,2.2-0.9,3.3c0.1,1.1,1.4,1.9,2.4,1.2c1-0.8,1-2.4,0.7-3.6C110.8,47.3,109.6,46.8,108.8,47.3z"/>
			</g>
			<g>
				<path d="M117.4,45.3c1.6-0.5,3.7-0.3,4.8,1.1c1.3,1.6,1.3,4,0.4,5.7c-1.4,2.8-6.1,2.7-7.4-0.1C114.1,49.7,114.7,46.2,117.4,45.3
					z M118.3,47.2c-2,0.9-1.6,5.3,1,4.8c1.5-0.4,1.4-2.3,1.3-3.5C120.5,47.5,119.3,46.8,118.3,47.2z"/>
			</g>
			<path d="M127.1,46.9c0.5-1.1,1.5-1.9,2.7-1.7c0,0.8,0,1.7,0,2.5c-0.9-0.3-2-0.2-2.4,0.7c-0.6,1.8-0.2,3.7-0.3,5.6
				c-0.8,0-1.6,0-2.5,0c0.1-2.9,0-5.8,0-8.6c0.8,0,1.6,0,2.4,0C127.2,45.8,127.2,46.3,127.1,46.9z"/>
			<g>
				<path d="M132,46.1c1.4-1.4,4.2-1.3,5.4,0.4c0.8,1.1,0.7,2.6,0.8,4c-1.7,0-3.5,0-5.2,0c0.3,0.5,0.4,1.3,1,1.5
					c1.1,0.6,2.4,0.2,3.5-0.3c0,0.6,0,1.3,0,1.9c-2,0.9-4.9,1-6.2-1C130.1,50.5,130.3,47.7,132,46.1z M132.9,48.7c1,0,2.1,0,3.1,0
					c-0.2-0.7-0.3-1.7-1.2-1.8C133.7,46.7,133.2,47.9,132.9,48.7z"/>
			</g>
			<path d="M21.3,45.3c0.8,0,1.6,0,2.4,0c0,0.5,0,1,0,1.5c0.5-1.1,1.5-1.9,2.7-1.7c0,0.8,0,1.7,0,2.5c-1-0.3-2.2-0.1-2.5,1
				c-0.4,1.7-0.1,3.6-0.2,5.4c-0.8,0-1.6,0-2.4,0C21.3,51.1,21.3,48.2,21.3,45.3z"/>
			<path d="M27.5,45.3c0.8,0,1.6,0,2.4,0c0,2.9,0,5.8,0,8.7c-0.8,0-1.6,0-2.5,0C27.6,51,27.5,48.2,27.5,45.3z"/>
			<path d="M73.3,53.9c0-2.9,0-5.8,0-8.7c0.8,0,1.6,0,2.4,0c0,2.9,0,5.8,0,8.6C74.9,53.9,74.1,53.9,73.3,53.9z"/>
		</g>
		<g>
			<path d="M16,51.1c-0.6-0.4-1.3-0.5-2-0.5c-0.3,0-0.5-0.1-0.7-0.2c-0.4-0.3-0.7-0.7-0.7-1.2s0.3-1,0.7-1.2
				c0.2-0.1,0.5-0.2,0.7-0.2c0.7,0,1.4-0.1,2-0.5c1.1-0.6,1.8-1.8,1.8-3.1c0-1.3-0.7-2.5-1.8-3.1c-1.1-0.6-2.5-0.6-3.6,0
				c-1.1,0.6-1.8,1.8-1.8,3.1c0,0.7,0.2,1.4,0.6,1.9c0.1,0.2,0.2,0.5,0.2,0.7c0,0.5-0.3,1-0.7,1.2c-0.2,0.1-0.5,0.2-0.7,0.2
				c-0.3,0-0.5-0.1-0.7-0.2c-0.2-0.1-0.4-0.3-0.5-0.5c-0.3-0.6-0.8-1.1-1.4-1.5c-1.1-0.6-2.5-0.6-3.6,0c-1.1,0.6-1.8,1.8-1.8,3.1
				c0,1.3,0.7,2.5,1.8,3.1c1.1,0.6,2.5,0.6,3.6,0c0.6-0.4,1.1-0.9,1.4-1.5c0.1-0.2,0.3-0.4,0.5-0.5c0.2-0.1,0.5-0.2,0.7-0.2
				c0.3,0,0.5,0.1,0.7,0.2c0.4,0.3,0.7,0.7,0.7,1.2c0,0.3-0.1,0.5-0.2,0.7c-0.4,0.6-0.6,1.2-0.6,1.9c0,1.3,0.7,2.5,1.8,3.1
				c1.1,0.6,2.5,0.6,3.6,0c1.1-0.6,1.8-1.8,1.8-3.1C17.8,52.9,17.1,51.8,16,51.1z"/>
		</g>
	</g>
</g>
<g>
</g>
<g>
</g>
<g>
</g>
<g>
</g>
<g>
</g>
<g>
</g>
<g>
</g>
<g>
</g>
<g>
</g>
<g>
</g>
<g>
</g>
<g>
</g>
<g>
</g>
<g>
</g>
<g>
</g>
</svg>
