<?xml version="1.0" encoding="utf-8"?>
<!-- Generator: Adobe Illustrator 18.1.0, SVG Export Plug-In . SVG Version: 6.00 Build 0)  -->
<svg version="1.1" id="Layer_1" xmlns="http://www.w3.org/2000/svg" xmlns:xlink="http://www.w3.org/1999/xlink" x="0px" y="0px"
	 viewBox="0 0 139.9 99.1" enable-background="new 0 0 139.9 99.1" xml:space="preserve">
<g>
	<rect x="0" y="0" fill="none" width="139.9" height="99.1"/>
	<g>
		<path d="M8.1,40.7c-0.3,3.4-0.5,6.8,0.5,10.1c0-4.7,1.1-9.7,4.3-13.3c2.1-2.4,5-4,8-5.1c2.8-1,5.8-1,8.8-1.3c-3-1-6.2-1.2-9.4-1.5
			c3.1-0.7,6.2-1.3,9.3-1.2c-3-1.9-6.8-2.2-10.3-1.8c-6.9,1.1-13,5.7-16.3,11.7c2.2-0.9,4.3-1.9,6.5-2.9C8.9,37.2,8.3,38.9,8.1,40.7
			z"/>
		<path d="M44.5,40.1c-3.5-4-8.1-6.8-13.1-8.3c4.8,2.7,9.2,6.8,10.3,12.5c1.4,5.3-0.5,10.6-2.7,15.3c2.3-2.3,4.2-5,5.8-7.9
			c-0.8,3.2-2,6.4-3.6,9.4c4.1-2.5,6.3-7,7.3-11.5c1-5.7-0.6-11.7-3.4-16.7C44.9,35.4,44.7,37.7,44.5,40.1z"/>
		<path d="M16,61.5c-3.3-2.3-5.4-5.8-7.6-9c0.8,3.4,1.9,6.8,3.8,9.8C10,59.6,7.4,57,6.1,53.7c-0.3,4.7,2,9.2,5.4,12.5
			c4.2,4.1,10,6.3,15.8,6.5c-1.8-1.5-3.7-2.9-5.6-4.4c5.1-0.9,10.2-2.9,14.1-6.4c-2.5,1-5,2.1-7.6,2.5C24,65.1,19.5,64,16,61.5z"/>
		<path d="M39.8,44.3c-0.9-3.9-3.7-7.4-7.3-9.2c-3.1-1.8-6.8-2-10.2-1.4c-3.8,0.8-7.1,3.2-9.3,6.4c-2.5,3.9-3,9-1.3,13.3
			c2,5.5,7.6,9.4,13.5,9.5c5.2,0.1,10.5-2.8,13.1-7.3C40.3,52.3,40.7,48.1,39.8,44.3z M35.5,57.6c-1.3,1.4-3.2,1.9-5,1.5
			c-1.8-0.4-3.3-1.8-3.8-3.6c-0.3-1-0.3-2,0-2.9c0.1-0.4,0.1-0.7,0-1.1c-0.2-0.7-0.8-1.2-1.5-1.4c-0.4-0.1-0.7-0.1-1.1,0
			c-0.3,0.1-0.7,0.3-0.9,0.6c-0.3,0.3-0.4,0.6-0.5,1c-0.2,1-0.6,1.9-1.3,2.6c-1.3,1.4-3.2,1.9-5,1.5c-1.8-0.4-3.3-1.8-3.8-3.6
			c-0.5-1.8-0.1-3.7,1.2-5.1c1.3-1.4,3.2-1.9,5-1.5c1,0.2,1.9,0.7,2.5,1.4c0.3,0.3,0.6,0.4,1,0.5c0.4,0.1,0.7,0.1,1.1,0
			c0.3-0.1,0.7-0.3,0.9-0.6c0.5-0.5,0.7-1.3,0.5-2c-0.1-0.4-0.3-0.7-0.6-0.9c-0.7-0.6-1.3-1.5-1.6-2.4c-0.5-1.8-0.1-3.7,1.2-5.1
			c1.3-1.4,3.2-1.9,5-1.5c1.8,0.4,3.3,1.8,3.8,3.6c0.5,1.8,0.1,3.7-1.2,5.1c-0.7,0.7-1.6,1.3-2.5,1.5c-0.3,0.1-0.7,0.3-0.9,0.6
			c-0.5,0.5-0.7,1.3-0.5,2c0.2,0.7,0.8,1.2,1.5,1.4c0.4,0.1,0.7,0.1,1.1,0c0.9-0.3,1.9-0.4,2.9-0.2c1.8,0.4,3.3,1.8,3.8,3.6
			C37.3,54.3,36.8,56.2,35.5,57.6z"/>
		<circle cx="4" cy="42.9" r="2.2"/>
		<circle cx="30.9" cy="69.5" r="2.2"/>
		<circle cx="40.5" cy="31.6" r="2.2"/>
		<path d="M85.6,40.2c-0.3,0-0.6,0-0.8,0l-0.2,0l0,0.2c0,2.3,0,4.7,0,7l0,4.2h0.2l1.8,0l0-0.2c0-1.4,0-2.8,0-4.1c0-2.3,0-4.6,0-7
			l0-0.2l-0.2,0C86.1,40.2,85.9,40.2,85.6,40.2z"/>
		<path d="M116.5,46c-0.1-1.4-1.4-2.6-2.9-2.6c-0.1,0-0.2,0-0.3,0c-0.7,0-1.5,0.3-2.1,0.9l0-4.1l-2,0l0,0.2c0,2.2,0,4.5,0,6.7
			c0,1.5,0,4.6,0,4.6h2l0-2.2l0-3.1c0.4-0.5,1.1-1.1,2-1.1h0c0.6,0,1.3,0.4,1.3,1c0,1.1,0,2.1,0,3.2l0,2.2h2c0,0,0-1.6,0-2.3
			C116.6,48.2,116.6,47.1,116.5,46z"/>
		<path d="M107.4,48.7c-0.2-0.1-0.3-0.3-0.4-0.4l-0.1-0.2l-0.1,0.2c-0.8,0.8-1.8,1.4-2.9,1.6c-0.3,0.1-0.6,0.1-0.8,0.1
			c-1,0-1.9-0.4-2.6-1c-1.4-1.4-1.4-4,0-5.4c0.6-0.7,1.5-1,2.5-1c0.1,0,0.2,0,0.2,0c1.2,0.1,2.4,0.6,3.3,1.4l0.1,0.1l1.5-1.5
			l-0.1-0.1c-1.3-1.2-3.1-1.9-5-1.9c-0.2,0-0.4,0-0.6,0c-1.8,0.1-3.4,1.1-4.3,2.6c-1.4,2.2-1.1,5.2,0.7,7c1,1.1,2.6,1.7,4.3,1.7
			l0.2,0c1.8,0,3.6-0.8,5-2.1l0.1-0.1l-0.1-0.1C108,49.2,107.7,49,107.4,48.7z"/>
		<path d="M58.7,47.3c1-0.4,1.7-1.1,2-2c0.4-1,0.2-2.3-0.5-3.1c-0.7-0.8-1.8-1.3-3.1-1.3c-0.6,0-1.1,0-1.7,0l-2.3,0c-0.6,0-2,0-2,0
			l0,0.2c-0.1,0.4,0,0.7,0,1.1l0,9.4h2.1l0-4l1.2,0c0,0,1.7,0,2.1,0l0.8,1.4c0.5,0.8,0.9,1.7,1.4,2.5l0.1,0.1l2.5,0L61,51.3
			C60.2,50,59.5,48.6,58.7,47.3z M53.1,42.9l2.4,0c0.5,0,1.1,0,1.6,0c0.4,0,0.8,0.2,1.1,0.5c0.3,0.3,0.4,0.6,0.4,0.9
			c0,0.7-0.7,1.4-1.5,1.4c-0.5,0-1,0-1.5,0l-2.1,0l-0.4,0V42.9z"/>
		<path d="M70.1,43.3c-0.3,0-0.5,0-0.8,0.1c-0.6,0.1-1.2,0.5-1.6,0.9c0-0.2,0-0.4-0.1-0.6l0-0.2l-0.8,0c-0.3,0-1.1,0-1.1,0l0,0.2
			c0.2,0.7,0.2,1.5,0.2,2.2l0,9l2-1.1l0-0.1c0,0,0-1.6,0-2.9c0.6,0.5,1.2,0.8,1.8,0.9c0.1,0,0.2,0,0.4,0c1.1,0,2.2-0.5,2.9-1.4
			c1.1-1.3,1.3-3.4,0.5-5.1C72.9,44.2,71.5,43.3,70.1,43.3z M70.6,49.9C70.4,50,70.1,50,69.9,50c-0.8,0-1.6-0.6-2-0.9
			c0-0.5,0-1.1,0-1.6c0-0.5,0-0.9,0-1.4c0.5-0.6,1.3-1,2-1c0.1,0,0.2,0,0.3,0c0.9,0.2,1.4,1.1,1.5,1.8C72,48.1,71.6,49.5,70.6,49.9z
			"/>
		<path d="M79.5,43.3c-0.3,0-0.5,0-0.8,0.1c-0.6,0.1-1.2,0.5-1.6,0.9c0-0.2-0.1-0.8-0.1-0.8l-0.8,0c-0.3,0-1.1,0-1.1,0l0,0.2
			c0.1,0.5,0.2,1.1,0.2,1.8l0,9.4l2-1.1l0-0.1c0,0,0-1.6,0-2.9c0.6,0.5,1.2,0.8,1.8,0.9c0.1,0,0.2,0,0.4,0c1.1,0,2.1-0.5,2.8-1.2
			c1.2-1.3,1.5-3.4,0.7-5.1C82.4,44.2,81,43.3,79.5,43.3z M77.3,46.1c0.5-0.6,1.3-1,2-1c0.1,0,0.2,0,0.3,0c0.9,0.2,1.4,1.1,1.5,1.8
			c0.2,1-0.1,2.3-1.1,2.8C79.9,50,79.6,50,79.3,50c-0.7,0-1.5-0.4-2-0.9c0-0.6,0-1.1,0-1.7C77.3,47,77.3,46.6,77.3,46.1z"/>
		<path d="M91.9,43.3c-1.1,0-2.1,0.4-2.8,1.1c-1.6,1.5-1.8,4.2-0.5,6c0.7,0.8,1.7,1.4,2.9,1.4l0.2,0c1.5,0,3-0.5,3.9-1.5l0.1-0.1
			l-0.2-0.1c-0.4-0.3-0.7-0.7-1.1-1l-0.1-0.1L94.3,49c-0.6,0.6-1.5,1-2.3,1c-0.4,0-0.8-0.1-1.2-0.3c-0.6-0.3-0.9-1-1.1-1.6
			c0.4,0,0.9,0,1.3,0l2.5,0c0.7,0,1.5,0,2.2,0l0.2,0l0-0.2c0-0.9,0-2.2-0.8-3.1C94.4,43.9,93.2,43.3,91.9,43.3z M91.3,45.1
			c0.2,0,0.3-0.1,0.5-0.1c0.9,0,1.8,0.5,1.9,1.4c0,0-3.4,0-3.9,0C90.1,46,90.5,45.3,91.3,45.1z"/>
		<path d="M128.8,46c-0.1-1.6-1.6-2.7-3-2.7c-0.1,0-0.1,0-0.2,0c-1,0-1.8,0.6-2.3,1.1c0-0.2-0.1-0.9-0.1-0.9l-0.2,0
			c-0.2,0-0.5,0-0.7,0c-0.3,0-0.5,0-0.8,0l-0.3,0l0.1,0.2c0.2,0.7,0.2,1.5,0.2,2.2v5.6h2l0-2.1c0-1.1,0-2.2,0-3.2
			c0.6-0.7,1.2-1.1,1.9-1.1l0.1,0c0.6,0,1.3,0.4,1.3,1c0,1.1,0,2.1,0,3.2c0,0.7,0,2.2,0,2.2h2c0,0,0-1.6,0-2.3
			C128.8,48.2,128.8,47.1,128.8,46z"/>
		<path d="M138,51.4c-0.1-0.5-0.2-0.9-0.2-1.2c0-0.7,0-1.3,0-2c0-0.9,0-1.7,0-2.6c0-1.1-1-1.7-1.7-1.9c-0.6-0.2-1.2-0.3-1.9-0.3
			c-1.3,0-2.6,0.3-3.7,1l-0.2,0.1l0.1,0.2c0.2,0.4,0.4,0.9,0.6,1.4l0.1,0.2l0.2-0.1c0.9-0.6,2-0.9,3-0.9l0.1,0
			c0.5,0,1.1,0.2,1.4,0.6c0.1,0.3,0.1,0.6,0.1,0.9c0,0,0,0.1,0,0.1c-0.6-0.3-1.3-0.4-2.2-0.4c-0.2,0-0.4,0-0.5,0
			c-0.8,0.1-2.2,0.3-2.8,1.4c-0.6,1-0.3,2.4,0.6,3.2c0.6,0.5,1.5,0.8,2.3,0.8c1,0,2-0.3,2.7-0.9c0,0.2,0.1,0.4,0.1,0.6l0,0.1l2,0
			L138,51.4z M135.7,49.2c-0.7,0.5-1.5,0.8-2.2,0.8c-0.3,0-0.6-0.1-0.9-0.2c-0.2-0.1-0.5-0.3-0.6-0.6c-0.1-0.2-0.1-0.5,0-0.7
			c0.2-0.3,0.7-0.5,1.4-0.6c0.2,0,0.3,0,0.5,0c0.7,0,1.4,0.2,2,0.5c0,0.1,0,0.1,0,0.2C135.8,48.9,135.8,49.1,135.7,49.2z"/>
		<path d="M63.4,40.1c-0.2,0-0.3,0-0.4,0.1c-0.3,0.1-0.6,0.4-0.7,0.7c-0.1,0.3-0.1,0.6,0.1,0.9c0.2,0.4,0.6,0.6,1.1,0.6
			c0.5,0,1.1-0.3,1.2-0.9c0.1-0.3,0-0.6-0.2-0.9C64.2,40.3,63.8,40.1,63.4,40.1z"/>
		<path d="M63.5,43.6c-0.3,0-0.6,0-0.9,0l-0.2,0l0,0.2c0,1.6,0,3.2,0,4.7c0,1,0,3.1,0,3.1h2l0-8L63.5,43.6z"/>
		<path d="M118.9,40.2c-0.2,0-0.3,0-0.4,0.1c-0.3,0.1-0.6,0.4-0.7,0.7c-0.1,0.3-0.1,0.6,0.1,0.9c0.2,0.4,0.6,0.6,1.1,0.6
			c0.5,0,1.1-0.3,1.2-0.9c0.1-0.3,0-0.6-0.2-0.9C119.7,40.3,119.3,40.2,118.9,40.2z"/>
		<path d="M119,43.6c-0.3,0-0.6,0-0.9,0l-0.2,0l0,0.2c0,1.6,0,3.2,0,4.7c0,1,0,3.1,0,3.1h2l0-8L119,43.6z"/>
	</g>
</g>
<g>
</g>
<g>
</g>
<g>
</g>
<g>
</g>
<g>
</g>
<g>
</g>
<g>
</g>
<g>
</g>
<g>
</g>
<g>
</g>
<g>
</g>
<g>
</g>
<g>
</g>
<g>
</g>
<g>
</g>
</svg>
