<?xml version="1.0" encoding="utf-8"?>
<!-- Generator: Adobe Illustrator 18.1.0, SVG Export Plug-In . SVG Version: 6.00 Build 0)  -->
<svg version="1.1" id="Layer_1" xmlns="http://www.w3.org/2000/svg" xmlns:xlink="http://www.w3.org/1999/xlink" x="0px" y="0px"
	 viewBox="0 0 139.9 99.1" enable-background="new 0 0 139.9 99.1" xml:space="preserve">
<g>
	<rect x="0" y="0" fill="none" width="139.9" height="99.1"/>
	<g>
		<g>
			<g>
				<path d="M33.6,56.8V43.3h3.9v1.2c0.3-0.3,0.6-0.6,1-0.8c0.7-0.4,1.5-0.7,2.5-0.7c0.2,0,0.4,0,0.6,0.1c0.2,0,0.4,0.1,0.6,0.1
					l0.3,0.1v3.9L42,47c-0.3-0.1-0.5-0.1-0.7-0.2c-0.2,0-0.5-0.1-0.7-0.1c-0.7,0-1.2,0.1-1.6,0.4c-0.4,0.2-0.7,0.5-0.9,0.8
					c-0.2,0.3-0.4,0.6-0.4,0.9c-0.1,0.4-0.1,0.6-0.1,0.7v7.2H33.6L33.6,56.8z"/>
				<path d="M44.3,56.8V43.3h3.9v13.5H44.3z"/>
				<path d="M44.2,39.4c0-0.5,0.2-1,0.6-1.3c0.4-0.4,0.9-0.6,1.4-0.6c0.6,0,1.1,0.2,1.5,0.5c0.4,0.4,0.6,0.8,0.6,1.4
					c0,0.5-0.2,1-0.6,1.4c-0.4,0.4-0.9,0.5-1.5,0.5c-0.6,0-1.1-0.2-1.4-0.6C44.4,40.3,44.2,39.9,44.2,39.4z"/>
				<path d="M50.8,62.8V43.3h3.8v1.2c0.4-0.4,0.9-0.7,1.4-1c0.8-0.4,1.7-0.6,2.7-0.6c1,0,2,0.2,2.8,0.5c0.8,0.4,1.5,0.9,2.1,1.5
					c0.6,0.6,1,1.4,1.3,2.3c0.3,0.9,0.4,1.8,0.4,2.7c0,1-0.2,1.9-0.5,2.8c-0.3,0.9-0.8,1.6-1.3,2.2c-0.6,0.6-1.3,1.1-2.1,1.5
					c-0.8,0.4-1.7,0.6-2.6,0.6c-0.6,0-1.2-0.1-1.7-0.2c-0.5-0.1-0.9-0.3-1.3-0.5c-0.4-0.2-0.7-0.4-1-0.7c0,0,0,0-0.1-0.1v7.2H50.8z
					 M58,46.6c-0.5,0-1,0.1-1.4,0.3c-0.4,0.2-0.8,0.4-1.1,0.8c-0.3,0.3-0.5,0.7-0.7,1.1c-0.2,0.4-0.2,0.9-0.2,1.3
					c0,0.4,0.1,0.9,0.2,1.3c0.2,0.4,0.4,0.8,0.7,1.1c0.3,0.3,0.6,0.6,1.1,0.8c0.4,0.2,0.9,0.3,1.4,0.3c0.5,0,1-0.1,1.4-0.3
					c0.4-0.2,0.8-0.4,1.1-0.8c0.3-0.3,0.5-0.7,0.7-1.1c0.2-0.4,0.2-0.9,0.2-1.3c0-0.4-0.1-0.9-0.2-1.3c-0.2-0.4-0.4-0.8-0.7-1.1
					c-0.3-0.3-0.6-0.6-1.1-0.8C58.9,46.7,58.5,46.6,58,46.6z"/>
				<path d="M66.9,62.8V43.3h3.8v1.2c0.4-0.4,0.9-0.7,1.4-1c0.8-0.4,1.7-0.6,2.7-0.6c1,0,2,0.2,2.8,0.5c0.8,0.4,1.5,0.9,2.1,1.5
					c0.6,0.6,1,1.4,1.3,2.3c0.3,0.9,0.4,1.8,0.4,2.7c0,1-0.2,1.9-0.5,2.8c-0.3,0.9-0.8,1.6-1.3,2.2c-0.6,0.6-1.3,1.1-2.1,1.5
					c-0.8,0.4-1.7,0.6-2.6,0.6c-0.6,0-1.2-0.1-1.7-0.2c-0.5-0.1-0.9-0.3-1.3-0.5c-0.4-0.2-0.7-0.4-1-0.7c0,0,0,0-0.1-0.1v7.2H66.9z
					 M74,46.6c-0.5,0-1,0.1-1.4,0.3c-0.4,0.2-0.8,0.4-1.1,0.8c-0.3,0.3-0.5,0.7-0.7,1.1c-0.2,0.4-0.2,0.9-0.2,1.3
					c0,0.4,0.1,0.9,0.2,1.3c0.2,0.4,0.4,0.8,0.7,1.1c0.3,0.3,0.6,0.6,1.1,0.8c0.4,0.2,0.9,0.3,1.4,0.3c0.5,0,1-0.1,1.4-0.3
					c0.4-0.2,0.8-0.4,1.1-0.8c0.3-0.3,0.5-0.7,0.7-1.1c0.2-0.4,0.2-0.9,0.2-1.3c0-0.4-0.1-0.9-0.2-1.3c-0.2-0.4-0.4-0.8-0.7-1.1
					c-0.3-0.3-0.6-0.6-1.1-0.8C75,46.7,74.6,46.6,74,46.6z"/>
				<rect x="83" y="36.2" width="3.9" height="20.8"/>
				<path d="M95.8,57.1c-1,0-2-0.2-2.8-0.5c-0.9-0.3-1.7-0.8-2.3-1.4c-0.7-0.6-1.2-1.4-1.6-2.2c-0.4-0.9-0.6-1.8-0.6-2.9
					c0-1.1,0.2-2,0.6-2.9c0.4-0.9,0.9-1.6,1.6-2.2c0.7-0.6,1.4-1.1,2.3-1.4c0.9-0.3,1.8-0.5,2.8-0.5c0.9,0,1.8,0.2,2.6,0.5
					c0.8,0.3,1.5,0.8,2,1.4c0.6,0.6,1,1.4,1.3,2.3c0.3,0.9,0.5,1.9,0.5,3.1v1.3h-9.6c0.1,0.7,0.4,1.2,0.9,1.6
					c0.6,0.5,1.2,0.7,2.1,0.7c0.7,0,1.3-0.1,1.8-0.4c0.5-0.3,0.9-0.7,1.3-1.1l0.2-0.3l2.9,2.2l-0.2,0.3c-0.8,1-1.7,1.7-2.6,2.1
					C97.9,56.9,96.9,57.1,95.8,57.1z M98.2,48.4c-0.1-0.7-0.3-1.2-0.7-1.6c-0.5-0.5-1.2-0.7-2.1-0.7c-0.9,0-1.5,0.2-2,0.7
					c-0.4,0.4-0.7,0.9-0.8,1.6H98.2z"/>
			</g>
			<g>
				<path d="M24.5,52.6c-1-0.6-2.1-0.8-3.2-0.8c-0.4,0-0.8-0.1-1.1-0.3c-0.7-0.4-1.1-1.2-1.1-2c0-0.8,0.4-1.6,1.1-2
					c0.3-0.2,0.7-0.3,1.1-0.3c1.1,0.1,2.2-0.2,3.2-0.8c1.8-1,2.9-3,2.9-5c0-2.1-1.1-4-2.9-5c-1.8-1-4-1-5.8,0c-1.8,1-2.9,3-2.9,5
					c0,1.1,0.3,2.2,0.9,3.1c0.2,0.3,0.3,0.8,0.3,1.2c0,0.8-0.4,1.6-1.1,2c-0.3,0.2-0.7,0.3-1.1,0.3c-0.4,0-0.8-0.1-1.1-0.3
					c-0.4-0.2-0.7-0.5-0.9-0.9c-0.5-1-1.3-1.8-2.2-2.3c-1.8-1-4-1-5.8,0c-1.8,1-2.9,3-2.9,5c0,2.1,1.1,4,2.9,5c1.8,1,4,1,5.8,0
					c1-0.6,1.7-1.4,2.2-2.3c0.2-0.4,0.5-0.7,0.9-0.9c0.3-0.2,0.7-0.3,1.1-0.3c0.4,0,0.8,0.1,1.1,0.3c0.7,0.4,1.1,1.2,1.1,2
					c0,0.4-0.1,0.8-0.3,1.2c-0.6,0.9-0.9,2-0.9,3.1c0,2.1,1.1,4,2.9,5c1.8,1,4,1,5.8,0c1.8-1,2.9-3,2.9-5
					C27.4,55.6,26.3,53.7,24.5,52.6z"/>
			</g>
		</g>
		<g>
			<path d="M105,43.1c1-2.1,3-3.7,5.3-4.2c3.2-0.7,6.5-0.3,9.5,1c0,1.7,0,3.3-0.1,4.9c-2-1.4-4.2-3.2-6.9-2.5
				c-3.8,1-4.7,6.2-2.9,9.2c1.2,2.2,4.2,2.8,6.4,1.8c1.2-0.6,2.2-1.5,3.5-2.1c0,1.6,0,3.2,0,4.7c-3.4,1.6-7.4,2.1-10.9,0.6
				c-2.6-1.1-4.4-3.7-4.7-6.5C103.9,47.8,103.9,45.3,105,43.1z"/>
			<path d="M121.5,38.8c1.9,0.1,5.6,0,5.6,0l6.5,10.1V38.8h4.4v18.4l-4.7,0l-7.4-12l-0.1,12c0,0-2.9,0-4.4,0
				C121.5,51.1,121.5,44.9,121.5,38.8z"/>
		</g>
	</g>
</g>
<g>
</g>
<g>
</g>
<g>
</g>
<g>
</g>
<g>
</g>
<g>
</g>
<g>
</g>
<g>
</g>
<g>
</g>
<g>
</g>
<g>
</g>
<g>
</g>
<g>
</g>
<g>
</g>
<g>
</g>
</svg>
