<?xml version="1.0" encoding="utf-8"?>
<!-- Generator: Adobe Illustrator 18.1.0, SVG Export Plug-In . SVG Version: 6.00 Build 0)  -->
<svg version="1.1" id="Layer_1" xmlns="http://www.w3.org/2000/svg" xmlns:xlink="http://www.w3.org/1999/xlink" x="0px" y="0px"
	 viewBox="0 0 139.9 99.1" enable-background="new 0 0 139.9 99.1" xml:space="preserve">
<g>
	<rect x="0" y="0" fill="none" width="139.9" height="99.1"/>
	<g>
		<g>
			<g>
				<g>
					<path d="M63.3,53.4c-0.3-0.1-0.8-0.2-1.3-0.3c-0.6-0.1-1.2-0.2-2-0.2c-0.4,0-0.9,0-1.4,0.1c-0.5,0.1-0.8,0.1-1,0.2v12h-3.9V51
						c0.7-0.3,1.7-0.5,2.8-0.7c1.1-0.2,2.4-0.3,3.7-0.3c0.3,0,0.6,0,0.9,0c0.3,0,0.7,0.1,1,0.1c0.3,0,0.7,0.1,1,0.2
						c0.3,0.1,0.6,0.1,0.8,0.2L63.3,53.4z"/>
				</g>
				<g>
					<path d="M70.3,45.9c0,0.7-0.2,1.2-0.7,1.6c-0.5,0.4-1,0.6-1.7,0.6c-0.7,0-1.2-0.2-1.7-0.6c-0.5-0.4-0.7-0.9-0.7-1.6
						c0-0.7,0.2-1.2,0.7-1.6c0.5-0.4,1-0.6,1.7-0.6c0.6,0,1.2,0.2,1.7,0.6C70.1,44.7,70.3,45.2,70.3,45.9z M69.9,65.3H66v-15h3.9
						V65.3z"/>
				</g>
				<g>
					<path d="M88.1,57.8c0,1.2-0.2,2.2-0.5,3.2c-0.3,1-0.8,1.8-1.4,2.5c-0.6,0.7-1.4,1.2-2.3,1.6c-0.9,0.4-2,0.6-3.2,0.6
						c-0.8,0-1.5-0.1-2.2-0.3c-0.7-0.2-1.2-0.4-1.6-0.6v5.8H73V50.8c0.8-0.2,1.8-0.4,2.9-0.5c1.2-0.2,2.4-0.3,3.6-0.3
						c1.3,0,2.5,0.2,3.5,0.5c1,0.4,1.9,0.9,2.7,1.6c0.7,0.7,1.3,1.5,1.7,2.5C87.9,55.5,88.1,56.6,88.1,57.8z M84.1,57.9
						c0-1.5-0.4-2.8-1.2-3.6c-0.8-0.9-2-1.3-3.8-1.3c-0.4,0-0.7,0-1.1,0c-0.4,0-0.8,0.1-1.2,0.2v8.6c0.3,0.2,0.8,0.4,1.4,0.6
						c0.6,0.2,1.2,0.3,1.8,0.3c1.4,0,2.4-0.4,3.1-1.3C83.8,60.5,84.1,59.3,84.1,57.9z"/>
				</g>
				<g>
					<path d="M105.4,57.8c0,1.2-0.2,2.2-0.5,3.2c-0.3,1-0.8,1.8-1.4,2.5c-0.6,0.7-1.4,1.2-2.3,1.6c-0.9,0.4-2,0.6-3.1,0.6
						c-0.8,0-1.5-0.1-2.2-0.3c-0.7-0.2-1.2-0.4-1.6-0.6v5.8h-3.9V50.8c0.8-0.2,1.8-0.4,2.9-0.5c1.1-0.2,2.4-0.3,3.6-0.3
						c1.3,0,2.5,0.2,3.5,0.5c1,0.4,1.9,0.9,2.7,1.6c0.7,0.7,1.3,1.5,1.7,2.5C105.2,55.5,105.4,56.6,105.4,57.8z M101.4,57.9
						c0-1.5-0.4-2.8-1.2-3.6c-0.8-0.9-2-1.3-3.8-1.3c-0.4,0-0.7,0-1.1,0c-0.4,0-0.8,0.1-1.2,0.2v8.6c0.3,0.2,0.8,0.4,1.4,0.6
						c0.6,0.2,1.2,0.3,1.8,0.3c1.4,0,2.4-0.4,3.1-1.3C101.1,60.5,101.4,59.3,101.4,57.9z"/>
				</g>
				<g>
					<path d="M107.3,57.9c0-1.3,0.2-2.5,0.7-3.5c0.4-1,1-1.8,1.7-2.5c0.7-0.7,1.6-1.2,2.5-1.5c0.9-0.3,1.9-0.5,2.9-0.5
						c2.3,0,4.1,0.6,5.4,1.9c1.3,1.3,1.9,3.2,1.9,5.7c0,0.2,0,0.4,0,0.6c0,0.2,0,0.5,0,0.6c-3.7,0-7.4,0-11,0
						c0.1,1.2,0.6,2.1,1.4,2.8c0.8,0.7,2.1,1,3.7,1c0.9,0,1.8-0.1,2.6-0.2c0.8-0.2,1.4-0.3,1.8-0.5c0.2,1.1,0.3,1.7,0.5,2.8
						c-0.2,0.1-0.5,0.2-0.9,0.3c-0.4,0.1-0.8,0.2-1.3,0.3c-0.5,0.1-1,0.2-1.5,0.2c-0.6,0.1-1.1,0.1-1.7,0.1c-1.5,0-2.8-0.2-3.8-0.6
						c-1.1-0.4-2-0.9-2.7-1.6c-0.7-0.7-1.2-1.5-1.6-2.5C107.4,60,107.3,59,107.3,57.9z M118.5,56.3c0-0.5-0.1-0.9-0.2-1.4
						c-0.2-0.4-0.4-0.8-0.7-1.1c-0.3-0.3-0.6-0.6-1.1-0.7c-0.4-0.2-0.9-0.3-1.5-0.3c-0.6,0-1.1,0.1-1.6,0.3
						c-0.4,0.2-0.8,0.5-1.1,0.8c-0.3,0.3-0.5,0.7-0.7,1.1c-0.2,0.4-0.3,0.9-0.4,1.3C114.2,56.3,115.6,56.3,118.5,56.3z"/>
					<path d="M130,54.9c1.4-1.8,2.1-2.8,3.6-4.6c1.6,0,2.4,0,4.1,0c-2.2,2.9-3.4,4.3-5.6,7.2c1.2,1.3,2.3,2.7,3.4,4
						c1.1,1.4,2,2.6,2.7,3.8c-1.7,0-2.5,0-4.2,0c-0.2-0.3-0.5-0.7-0.8-1.2c-0.3-0.4-0.6-0.9-1-1.3c-0.4-0.5-0.7-0.9-1.1-1.4
						c-0.4-0.4-1-1.3-1.1-1.3c-0.3,0-1.5,1.6-2.2,2.6c-0.7,0.9-1.3,1.8-1.8,2.5c-1.6,0-2.4,0-3.9,0c0.3-0.6,0.7-1.2,1.2-1.8
						c0.5-0.6,1-1.3,1.5-2c0.5-0.7,1.1-1.3,1.6-2c0.6-0.7,1.1-1.3,1.7-1.9c-2.3-2.9-3.4-4.4-5.7-7.3c1.7,0,2.6,0,4.3,0
						C127.9,52.1,128.6,53,130,54.9z"/>
				</g>
			</g>
		</g>
		<g>
			<g>
				<path d="M40.4,53.3"/>
			</g>
			<g>
				<path d="M13.3,74.1c-1.8,0-3.5-1.2-4.1-3L2,48.8c-0.4-1.1-0.3-2.3,0.3-3.3c0.5-1,1.4-1.8,2.5-2.1L31,35c2.3-0.7,4.7,0.5,5.4,2.8
					l2.3,7.1l-1.8,0.6l-2.3-7.1c-0.4-1.3-1.8-2-3.1-1.6L5.4,45.2c-0.6,0.2-1.1,0.6-1.4,1.2c-0.3,0.6-0.3,1.2-0.2,1.8L11,70.5
					c0.4,1.3,1.8,2,3.1,1.6l26.2-8.4c0.6-0.2,1.1-0.6,1.4-1.2c0.3-0.6,0.4-1.2,0.2-1.9l-2.3-7.1l1.8-0.6l2.3,7.1
					c0.4,1.1,0.3,2.3-0.3,3.3c-0.5,1-1.4,1.8-2.5,2.1l-26.2,8.4C14.2,74,13.7,74.1,13.3,74.1z"/>
			</g>
			<g>
				<path d="M32,56.8c-1.5,0-2.8-1-3.2-2.4L27.7,51c-0.6-1.8,0.4-3.7,2.1-4.3l7.3-2.3c0.3-0.1,0.7-0.2,1-0.2c1.5,0,2.8,1,3.2,2.4
					l1.1,3.4c0.6,1.8-0.4,3.7-2.1,4.3L33,56.6C32.7,56.7,32.4,56.8,32,56.8z M38.1,46c-0.2,0-0.3,0-0.5,0.1l-7.3,2.3
					c-0.8,0.3-1.3,1.2-1,2.1l1.1,3.4c0.2,0.7,0.9,1.2,1.6,1.2c0.2,0,0.3,0,0.5-0.1l7.2-2.3c0.8-0.3,1.3-1.2,1-2.1l-1.1-3.4
					C39.4,46.5,38.8,46,38.1,46z"/>
			</g>
			<g>
				<path d="M33.3,53.6c-1.1,0-2.1-0.7-2.4-1.7c-0.4-1.3,0.3-2.7,1.6-3.2c0.3-0.1,0.5-0.1,0.8-0.1c1.1,0,2.1,0.7,2.4,1.7
					c0.4,1.3-0.3,2.7-1.6,3.2C33.8,53.5,33.5,53.6,33.3,53.6z M33.3,50c-0.1,0-0.2,0-0.3,0.1c-0.6,0.2-0.9,0.8-0.7,1.3
					c0.2,0.5,0.8,0.9,1.3,0.7c0.6-0.2,0.9-0.8,0.7-1.3C34.1,50.3,33.7,50,33.3,50z"/>
			</g>
		</g>
		<g>
			<g>
				<path d="M42.9,33.7c0.5-0.1,1-0.3,1.5-0.4C42.6,26.6,36,24,31,25.4c0.1,0.4,0.2,0.9,0.3,1.3c0.1,0.2,0.1,0.2,0.3,0.2
					c0.7-0.2,1.4-0.3,2.1-0.3c0.4,0,0.9,0,1.3,0.1c0.6,0.1,1.3,0.2,1.9,0.4c0.8,0.3,1.6,0.7,2.3,1.2c0.7,0.5,1.3,1,1.8,1.7
					c0.6,0.7,1.1,1.5,1.5,2.4C42.6,32.8,42.8,33.2,42.9,33.7z M31.8,28.4c0.1,0.5,0.3,1,0.4,1.5c1.7-0.4,3.3-0.2,4.8,0.7
					c1.5,0.9,2.5,2.2,2.9,3.9c0.5-0.1,1-0.3,1.5-0.4C40.5,30.3,36.4,27.2,31.8,28.4z M36.9,35.2c0.5-0.1,0.9-0.2,1.4-0.4
					c0,0,0.1-0.1,0.1-0.1c-0.2-0.6-0.4-1.1-0.8-1.6c-0.4-0.5-0.8-0.9-1.4-1.2c-0.6-0.3-1.2-0.6-1.8-0.6c-0.4,0-0.8,0-1.2,0
					c-0.2,0-0.5,0.1-0.7,0.1c0.1,0.5,0.3,1,0.4,1.5c0.9-0.2,1.7-0.1,2.5,0.3C36.2,33.7,36.6,34.4,36.9,35.2z"/>
			</g>
		</g>
	</g>
</g>
<g>
</g>
<g>
</g>
<g>
</g>
<g>
</g>
<g>
</g>
<g>
</g>
<g>
</g>
<g>
</g>
<g>
</g>
<g>
</g>
<g>
</g>
<g>
</g>
<g>
</g>
<g>
</g>
<g>
</g>
</svg>
