<?xml version="1.0" encoding="utf-8"?>
<!-- Generator: Adobe Illustrator 18.1.0, SVG Export Plug-In . SVG Version: 6.00 Build 0)  -->
<svg version="1.1" id="Layer_1" xmlns="http://www.w3.org/2000/svg" xmlns:xlink="http://www.w3.org/1999/xlink" x="0px" y="0px"
	 viewBox="0 0 139.9 99.1" enable-background="new 0 0 139.9 99.1" xml:space="preserve">
<g>
	<rect x="0" y="0" fill="none" width="139.9" height="99.1"/>
	<g>
		<g>
			<path d="M36.9,61.3H33v-2.8h3.8V61.3z M36.8,74.2h-3.6V62.9h3.6V74.2z"/>
			<path d="M52,68.4c0,0.9-0.1,1.8-0.4,2.5c-0.3,0.8-0.7,1.4-1.1,1.9c-0.5,0.5-1,0.9-1.6,1.2c-0.6,0.3-1.3,0.4-2,0.4
				c-0.6,0-1.2-0.1-1.6-0.2c-0.4-0.1-0.9-0.3-1.4-0.6v4.7h-3.6V62.9h3.6v1.2c0.6-0.4,1.1-0.8,1.7-1.1s1.2-0.4,2-0.4
				c1.4,0,2.5,0.5,3.3,1.6C51.6,65.2,52,66.6,52,68.4z M48.2,68.5c0-1.1-0.2-1.9-0.6-2.4c-0.4-0.5-1-0.7-1.8-0.7
				c-0.3,0-0.7,0.1-1.1,0.2c-0.4,0.1-0.7,0.3-1,0.4v5.7c0.2,0.1,0.5,0.2,0.8,0.2c0.3,0,0.5,0,0.8,0c1,0,1.7-0.3,2.1-0.8
				C48,70.5,48.2,69.6,48.2,68.5z"/>
			<path d="M66.4,68.4c0,0.9-0.1,1.8-0.4,2.5c-0.3,0.8-0.7,1.4-1.1,1.9c-0.5,0.5-1,0.9-1.6,1.2c-0.6,0.3-1.3,0.4-2,0.4
				c-0.6,0-1.2-0.1-1.6-0.2c-0.4-0.1-0.9-0.3-1.4-0.6v4.7h-3.6V62.9h3.6v1.2c0.6-0.4,1.1-0.8,1.7-1.1s1.2-0.4,2-0.4
				c1.4,0,2.5,0.5,3.3,1.6C66,65.2,66.4,66.6,66.4,68.4z M62.7,68.5c0-1.1-0.2-1.9-0.6-2.4c-0.4-0.5-1-0.7-1.8-0.7
				c-0.3,0-0.7,0.1-1.1,0.2c-0.4,0.1-0.7,0.3-1,0.4v5.7c0.2,0.1,0.5,0.2,0.8,0.2c0.3,0,0.5,0,0.8,0c1,0,1.7-0.3,2.1-0.8
				C62.4,70.5,62.7,69.6,62.7,68.5z"/>
			<path d="M72.7,74.2H69V58.6h3.6V74.2z"/>
			<path d="M87.2,69.2h-8.3c0.1,0.9,0.4,1.6,1,2c0.6,0.5,1.5,0.7,2.7,0.7c0.8,0,1.5-0.1,2.2-0.4c0.7-0.3,1.3-0.6,1.7-0.9H87v2.9
				c-0.8,0.3-1.6,0.6-2.3,0.7c-0.7,0.1-1.5,0.2-2.4,0.2c-2.3,0-4-0.5-5.2-1.5c-1.2-1-1.8-2.5-1.8-4.4c0-1.9,0.6-3.3,1.7-4.4
				c1.1-1.1,2.7-1.6,4.7-1.6c1.8,0,3.2,0.5,4.2,1.4c0.9,0.9,1.4,2.3,1.4,4V69.2z M83.6,67.1c0-0.8-0.2-1.3-0.6-1.7
				c-0.4-0.4-0.9-0.6-1.7-0.6c-0.7,0-1.3,0.2-1.7,0.5c-0.5,0.4-0.7,0.9-0.8,1.7H83.6z"/>
		</g>
		<g>
			<path d="M82.5,57.1h-3.6v-5.6c0-0.5,0-0.9-0.1-1.4c0-0.5-0.1-0.8-0.2-1c-0.1-0.2-0.3-0.4-0.6-0.5c-0.3-0.1-0.6-0.2-1.1-0.2
				c-0.3,0-0.7,0.1-1,0.2c-0.3,0.1-0.7,0.3-1.1,0.5v8h-3.6V45.8h3.6V47c0.6-0.5,1.3-0.9,1.9-1.2c0.6-0.3,1.3-0.4,2-0.4
				c1.2,0,2.2,0.4,2.9,1.1c0.7,0.7,1,1.8,1,3.2V57.1z"/>
			<path d="M89.6,44.2h-3.8v-2.8h3.8V44.2z M89.5,57.1h-3.6V45.8h3.6V57.1z"/>
			<path d="M104.5,51.4c0,1.9-0.5,3.3-1.6,4.4c-1.1,1.1-2.6,1.6-4.6,1.6s-3.5-0.5-4.6-1.6c-1.1-1.1-1.6-2.5-1.6-4.4
				c0-1.9,0.5-3.3,1.6-4.4c1.1-1.1,2.6-1.6,4.6-1.6c2,0,3.5,0.5,4.6,1.6C103.9,48.1,104.5,49.6,104.5,51.4z M100,54.2
				c0.2-0.3,0.4-0.6,0.5-1c0.1-0.4,0.2-1,0.2-1.7c0-0.7-0.1-1.2-0.2-1.7c-0.1-0.4-0.3-0.8-0.5-1.1c-0.2-0.3-0.5-0.5-0.8-0.6
				C99,48,98.6,48,98.3,48s-0.7,0-0.9,0.1c-0.3,0.1-0.5,0.3-0.8,0.6c-0.2,0.3-0.4,0.6-0.5,1.1c-0.1,0.5-0.2,1-0.2,1.7
				c0,0.6,0.1,1.2,0.2,1.6c0.1,0.5,0.3,0.8,0.5,1.1c0.2,0.3,0.5,0.5,0.8,0.6c0.3,0.1,0.6,0.2,1,0.2c0.3,0,0.6-0.1,0.9-0.2
				C99.5,54.6,99.8,54.5,100,54.2z"/>
			<path d="M118.4,57.1h-3.6v-5.6c0-0.5,0-0.9-0.1-1.4c0-0.5-0.1-0.8-0.2-1c-0.1-0.2-0.3-0.4-0.6-0.5c-0.3-0.1-0.6-0.2-1.1-0.2
				c-0.3,0-0.7,0.1-1,0.2c-0.3,0.1-0.7,0.3-1.1,0.5v8h-3.6V45.8h3.6V47c0.6-0.5,1.3-0.9,1.9-1.2c0.6-0.3,1.3-0.4,2-0.4
				c1.2,0,2.2,0.4,2.9,1.1c0.7,0.7,1,1.8,1,3.2V57.1z"/>
		</g>
		<g opacity="0.6">
			<path d="M71.2,57.1H59.6v-4c-2.2,1.6-4.1,2.9-5.9,3.7c-1.8,0.9-3.9,1.3-6.4,1.3c-4,0-7.1-1.2-9.3-3.5c-2.2-2.3-3.2-5.7-3.2-10.2
				V20.8h11.7v18c0,1.8,0.1,3.4,0.2,4.6c0.1,1.2,0.4,2.2,0.8,3c0.4,0.8,1,1.4,1.9,1.7s2,0.5,3.5,0.5c1,0,2.1-0.2,3.3-0.5
				c0.2-0.1,0.5-0.3,0.7-0.5c1.9-2.3,2.8-5.3,2.8-8.3V20.8h11.7V57.1z"/>
		</g>
		<g opacity="0.6">
			<path d="M48,48.9h-1c-0.5-0.2-1.3-0.3-2.4-0.4c-1.1-0.1-2-0.1-2.8-0.1c-1.7,0-3.1,0.1-4.4,0.3c0,0,0,0,0,0
				c-2.4,0.4-4.1,2.5-4.1,4.9v20.7H21.4V37.7h11.8v5.4c2.6-2.2,4.8-3.7,6.7-4.4c1.9-0.7,3.7-1.1,5.3-1.1c0.4,0,0.9,0,1.4,0
				c0.5,0,1,0.1,1.4,0.1V48.9z"/>
		</g>
		<g>
			<path d="M47.4,46.4c-0.4-0.8-0.7-1.8-0.8-3c-0.1-1.2-0.2-2.8-0.2-4.6v-1.2c-0.4,0-0.8,0-1.2,0c-1.6,0-3.4,0.4-5.3,1.1
				c-1.5,0.6-3.3,1.6-5.2,3.2v2.6c0,1.9,0.2,3.6,0.6,5.1c0.6-0.4,1.3-0.7,2-0.8c0,0,0,0,0,0c1.3-0.2,2.8-0.3,4.4-0.3
				c0.7,0,1.7,0,2.8,0.1c1.1,0.1,1.9,0.2,2.4,0.4h1v-1.6C47.8,47,47.6,46.7,47.4,46.4z"/>
		</g>
	</g>
</g>
<g>
</g>
<g>
</g>
<g>
</g>
<g>
</g>
<g>
</g>
<g>
</g>
<g>
</g>
<g>
</g>
<g>
</g>
<g>
</g>
<g>
</g>
<g>
</g>
<g>
</g>
<g>
</g>
<g>
</g>
</svg>
