<?xml version="1.0" encoding="utf-8"?>
<!-- Generator: Adobe Illustrator 18.1.0, SVG Export Plug-In . SVG Version: 6.00 Build 0)  -->
<svg version="1.1" id="Layer_1" xmlns="http://www.w3.org/2000/svg" xmlns:xlink="http://www.w3.org/1999/xlink" x="0px" y="0px"
	 viewBox="0 0 139.9 99.1" enable-background="new 0 0 139.9 99.1" xml:space="preserve">
<g>
	<rect x="0" y="0" fill="none" width="139.9" height="99.1"/>
	<g>
		<path d="M2,37.4h3.6c0.4,0,0.7,0.1,0.9,0.3s0.4,0.4,0.5,0.7l3.9,13.8c0.1,0.3,0.2,0.7,0.3,1.1c0.1,0.4,0.2,0.8,0.2,1.3
			c0.1-0.4,0.2-0.9,0.3-1.3c0.1-0.4,0.2-0.8,0.3-1.1l4.5-13.8c0.1-0.2,0.3-0.5,0.5-0.7s0.6-0.3,0.9-0.3h1.3c0.4,0,0.7,0.1,0.9,0.3
			c0.2,0.2,0.4,0.4,0.5,0.7l4.5,13.8c0.2,0.7,0.4,1.4,0.6,2.3c0.1-0.4,0.2-0.8,0.2-1.2c0.1-0.4,0.2-0.7,0.2-1.1l3.9-13.8
			c0.1-0.3,0.2-0.5,0.5-0.7c0.3-0.2,0.6-0.3,0.9-0.3h3.4l-7.1,23h-3.9l-5-15.7c-0.1-0.2-0.1-0.4-0.2-0.7c-0.1-0.2-0.1-0.5-0.2-0.7
			c-0.1,0.3-0.1,0.5-0.2,0.7c-0.1,0.2-0.1,0.5-0.2,0.7L13,60.4H9.1L2,37.4z"/>
		<path d="M41.9,39.3c0,0.3-0.1,0.7-0.2,1s-0.3,0.6-0.5,0.8s-0.5,0.4-0.8,0.5c-0.3,0.1-0.6,0.2-1,0.2c-0.3,0-0.7-0.1-1-0.2
			c-0.3-0.1-0.6-0.3-0.8-0.5s-0.4-0.5-0.5-0.8c-0.1-0.3-0.2-0.6-0.2-1c0-0.3,0.1-0.7,0.2-1c0.1-0.3,0.3-0.6,0.5-0.8s0.5-0.4,0.8-0.5
			s0.6-0.2,1-0.2c0.3,0,0.7,0.1,1,0.2s0.6,0.3,0.8,0.5s0.4,0.5,0.5,0.8S41.9,39,41.9,39.3z M41.3,44.1v16.3h-3.9V44.1H41.3z"/>
		<path d="M55.5,47.3c-0.1,0.2-0.2,0.3-0.3,0.4c-0.1,0.1-0.3,0.1-0.4,0.1c-0.2,0-0.4-0.1-0.6-0.2c-0.2-0.1-0.5-0.2-0.8-0.4
			c-0.3-0.1-0.6-0.3-1-0.4c-0.4-0.1-0.8-0.2-1.3-0.2c-0.8,0-1.4,0.2-1.8,0.5c-0.4,0.3-0.7,0.8-0.7,1.3c0,0.3,0.1,0.6,0.3,0.9
			c0.2,0.2,0.5,0.4,0.9,0.6c0.4,0.2,0.8,0.3,1.3,0.5c0.5,0.1,1,0.3,1.5,0.5c0.5,0.2,1,0.4,1.5,0.6c0.5,0.2,0.9,0.5,1.3,0.8
			c0.4,0.3,0.7,0.7,0.9,1.2c0.2,0.5,0.3,1,0.3,1.7c0,0.8-0.1,1.5-0.4,2.2c-0.3,0.7-0.7,1.2-1.3,1.7c-0.6,0.5-1.2,0.9-2,1.1
			c-0.8,0.3-1.7,0.4-2.8,0.4c-0.6,0-1.1,0-1.6-0.2s-1-0.2-1.5-0.4c-0.5-0.2-0.9-0.4-1.4-0.6c-0.4-0.2-0.8-0.5-1.1-0.8l0.9-1.5
			c0.1-0.2,0.3-0.3,0.4-0.4s0.4-0.1,0.6-0.1c0.2,0,0.5,0.1,0.7,0.2c0.2,0.1,0.5,0.3,0.8,0.4s0.6,0.3,1,0.4c0.4,0.1,0.9,0.2,1.5,0.2
			c0.5,0,0.9-0.1,1.2-0.2c0.3-0.1,0.6-0.3,0.8-0.4c0.2-0.2,0.4-0.4,0.5-0.6c0.1-0.2,0.2-0.5,0.2-0.7c0-0.4-0.1-0.7-0.3-0.9
			c-0.2-0.2-0.5-0.5-0.9-0.6c-0.4-0.2-0.8-0.3-1.3-0.5c-0.5-0.1-1-0.3-1.5-0.5c-0.5-0.2-1-0.4-1.5-0.6c-0.5-0.2-0.9-0.5-1.3-0.9
			c-0.4-0.4-0.7-0.8-0.9-1.3s-0.3-1.1-0.3-1.8c0-0.7,0.1-1.3,0.4-1.9c0.3-0.6,0.7-1.1,1.2-1.6c0.5-0.5,1.2-0.8,1.9-1.1
			c0.8-0.3,1.7-0.4,2.7-0.4c1.1,0,2.1,0.2,3.1,0.6s1.7,0.9,2.3,1.5L55.5,47.3z"/>
		<path d="M66.4,43.8c1,0,2,0.2,2.8,0.5c0.9,0.3,1.6,0.8,2.2,1.4c0.6,0.6,1.1,1.4,1.5,2.3s0.5,2,0.5,3.1c0,0.3,0,0.5,0,0.7
			s-0.1,0.3-0.1,0.5c-0.1,0.1-0.2,0.2-0.3,0.2c-0.1,0-0.3,0.1-0.4,0.1H62.5c0.1,1.7,0.6,2.9,1.4,3.7c0.8,0.8,1.8,1.2,3.1,1.2
			c0.6,0,1.2-0.1,1.6-0.2c0.5-0.1,0.9-0.3,1.2-0.5c0.3-0.2,0.6-0.3,0.9-0.5c0.3-0.1,0.5-0.2,0.8-0.2c0.2,0,0.3,0,0.4,0.1
			c0.1,0.1,0.2,0.2,0.3,0.3l1.1,1.4c-0.4,0.5-0.9,0.9-1.5,1.3c-0.5,0.3-1.1,0.6-1.7,0.8c-0.6,0.2-1.2,0.4-1.8,0.4
			c-0.6,0.1-1.2,0.1-1.8,0.1c-1.1,0-2.2-0.2-3.2-0.6c-1-0.4-1.8-0.9-2.5-1.7s-1.3-1.6-1.7-2.7c-0.4-1.1-0.6-2.3-0.6-3.8
			c0-1.1,0.2-2.2,0.5-3.1s0.9-1.8,1.5-2.6s1.5-1.3,2.5-1.7C64.1,44,65.2,43.8,66.4,43.8z M66.5,46.6c-1.1,0-2,0.3-2.7,1
			s-1.1,1.6-1.2,2.8h7.4c0-0.5-0.1-1-0.2-1.4s-0.3-0.8-0.6-1.2s-0.6-0.6-1.1-0.8S67.1,46.6,66.5,46.6z"/>
		<path d="M81.3,52.3v8.1H77v-23h7.5c1.5,0,2.9,0.2,4,0.5c1.1,0.4,2.1,0.9,2.8,1.5c0.7,0.6,1.3,1.4,1.6,2.3c0.3,0.9,0.5,1.9,0.5,3
			c0,1.1-0.2,2.1-0.6,3.1s-0.9,1.7-1.7,2.4s-1.7,1.2-2.8,1.6c-1.1,0.4-2.4,0.6-3.9,0.6H81.3z M81.3,49h3.2c0.8,0,1.5-0.1,2.1-0.3
			c0.6-0.2,1.1-0.5,1.4-0.8c0.4-0.4,0.7-0.8,0.9-1.3s0.3-1.1,0.3-1.8c0-0.6-0.1-1.2-0.3-1.7s-0.5-0.9-0.9-1.3s-0.9-0.6-1.4-0.8
			c-0.6-0.2-1.3-0.3-2.1-0.3h-3.2V49z"/>
		<path d="M108.5,60.4h-1.8c-0.4,0-0.7-0.1-0.9-0.2s-0.4-0.3-0.5-0.7l-0.3-1.2c-0.4,0.4-0.8,0.7-1.2,1c-0.4,0.3-0.8,0.5-1.2,0.7
			c-0.4,0.2-0.9,0.3-1.4,0.4c-0.5,0.1-1,0.1-1.6,0.1c-0.7,0-1.3-0.1-1.9-0.3c-0.6-0.2-1.1-0.5-1.5-0.8c-0.4-0.4-0.7-0.8-1-1.4
			c-0.2-0.6-0.3-1.2-0.3-1.9c0-0.6,0.2-1.2,0.5-1.8s0.9-1.1,1.6-1.6c0.8-0.5,1.8-0.9,3-1.2c1.3-0.3,2.8-0.5,4.7-0.5v-1
			c0-1.1-0.2-1.9-0.7-2.4s-1.1-0.8-2-0.8c-0.6,0-1.2,0.1-1.6,0.2c-0.4,0.1-0.8,0.3-1.1,0.5s-0.6,0.4-0.9,0.5
			c-0.3,0.1-0.6,0.2-0.9,0.2c-0.3,0-0.5-0.1-0.7-0.2c-0.2-0.1-0.3-0.3-0.5-0.5l-0.7-1.3c1.9-1.7,4.1-2.6,6.8-2.6
			c1,0,1.8,0.2,2.6,0.5s1.4,0.7,1.9,1.3c0.5,0.6,0.9,1.2,1.2,2s0.4,1.6,0.4,2.5V60.4z M100.9,57.9c0.4,0,0.8,0,1.1-0.1
			c0.3-0.1,0.7-0.2,1-0.3c0.3-0.1,0.6-0.3,0.9-0.5c0.3-0.2,0.6-0.5,0.9-0.8v-2.7c-1.1,0-2.1,0.1-2.9,0.2c-0.8,0.1-1.4,0.3-1.9,0.6
			c-0.5,0.2-0.8,0.5-1,0.8c-0.2,0.3-0.3,0.6-0.3,1c0,0.7,0.2,1.2,0.6,1.5S100.2,57.9,100.9,57.9z"/>
		<path d="M122.1,47.3c-0.1,0.2-0.2,0.3-0.3,0.4c-0.1,0.1-0.3,0.1-0.4,0.1c-0.2,0-0.4-0.1-0.6-0.2c-0.2-0.1-0.5-0.2-0.8-0.4
			c-0.3-0.1-0.6-0.3-1-0.4c-0.4-0.1-0.8-0.2-1.3-0.2c-0.8,0-1.4,0.2-1.8,0.5c-0.4,0.3-0.7,0.8-0.7,1.3c0,0.3,0.1,0.6,0.3,0.9
			c0.2,0.2,0.5,0.4,0.9,0.6c0.4,0.2,0.8,0.3,1.3,0.5c0.5,0.1,1,0.3,1.5,0.5c0.5,0.2,1,0.4,1.5,0.6c0.5,0.2,0.9,0.5,1.3,0.8
			c0.4,0.3,0.7,0.7,0.9,1.2c0.2,0.5,0.3,1,0.3,1.7c0,0.8-0.1,1.5-0.4,2.2c-0.3,0.7-0.7,1.2-1.3,1.7c-0.6,0.5-1.2,0.9-2,1.1
			c-0.8,0.3-1.7,0.4-2.8,0.4c-0.6,0-1.1,0-1.6-0.2s-1-0.2-1.5-0.4c-0.5-0.2-0.9-0.4-1.4-0.6c-0.4-0.2-0.8-0.5-1.1-0.8l0.9-1.5
			c0.1-0.2,0.3-0.3,0.4-0.4s0.4-0.1,0.6-0.1c0.2,0,0.5,0.1,0.7,0.2c0.2,0.1,0.5,0.3,0.8,0.4s0.6,0.3,1,0.4c0.4,0.1,0.9,0.2,1.5,0.2
			c0.5,0,0.9-0.1,1.2-0.2c0.3-0.1,0.6-0.3,0.8-0.4c0.2-0.2,0.4-0.4,0.5-0.6c0.1-0.2,0.2-0.5,0.2-0.7c0-0.4-0.1-0.7-0.3-0.9
			c-0.2-0.2-0.5-0.5-0.9-0.6c-0.4-0.2-0.8-0.3-1.3-0.5c-0.5-0.1-1-0.3-1.5-0.5c-0.5-0.2-1-0.4-1.5-0.6c-0.5-0.2-0.9-0.5-1.3-0.9
			c-0.4-0.4-0.7-0.8-0.9-1.3s-0.3-1.1-0.3-1.8c0-0.7,0.1-1.3,0.4-1.9c0.3-0.6,0.7-1.1,1.2-1.6c0.5-0.5,1.2-0.8,1.9-1.1
			c0.8-0.3,1.7-0.4,2.7-0.4c1.1,0,2.1,0.2,3.1,0.6s1.7,0.9,2.3,1.5L122.1,47.3z"/>
		<path d="M136,47.3c-0.1,0.2-0.2,0.3-0.3,0.4c-0.1,0.1-0.3,0.1-0.4,0.1c-0.2,0-0.4-0.1-0.6-0.2c-0.2-0.1-0.5-0.2-0.8-0.4
			c-0.3-0.1-0.6-0.3-1-0.4c-0.4-0.1-0.8-0.2-1.3-0.2c-0.8,0-1.4,0.2-1.8,0.5c-0.4,0.3-0.7,0.8-0.7,1.3c0,0.3,0.1,0.6,0.3,0.9
			c0.2,0.2,0.5,0.4,0.9,0.6c0.4,0.2,0.8,0.3,1.3,0.5c0.5,0.1,1,0.3,1.5,0.5c0.5,0.2,1,0.4,1.5,0.6c0.5,0.2,0.9,0.5,1.3,0.8
			c0.4,0.3,0.7,0.7,0.9,1.2c0.2,0.5,0.3,1,0.3,1.7c0,0.8-0.1,1.5-0.4,2.2c-0.3,0.7-0.7,1.2-1.3,1.7c-0.6,0.5-1.2,0.9-2,1.1
			c-0.8,0.3-1.7,0.4-2.8,0.4c-0.6,0-1.1,0-1.6-0.2s-1-0.2-1.5-0.4c-0.5-0.2-0.9-0.4-1.4-0.6c-0.4-0.2-0.8-0.5-1.1-0.8l0.9-1.5
			c0.1-0.2,0.3-0.3,0.4-0.4s0.4-0.1,0.6-0.1c0.2,0,0.5,0.1,0.7,0.2c0.2,0.1,0.5,0.3,0.8,0.4s0.6,0.3,1,0.4c0.4,0.1,0.9,0.2,1.5,0.2
			c0.5,0,0.9-0.1,1.2-0.2c0.3-0.1,0.6-0.3,0.8-0.4c0.2-0.2,0.4-0.4,0.5-0.6c0.1-0.2,0.2-0.5,0.2-0.7c0-0.4-0.1-0.7-0.3-0.9
			c-0.2-0.2-0.5-0.5-0.9-0.6c-0.4-0.2-0.8-0.3-1.3-0.5c-0.5-0.1-1-0.3-1.5-0.5c-0.5-0.2-1-0.4-1.5-0.6c-0.5-0.2-0.9-0.5-1.3-0.9
			c-0.4-0.4-0.7-0.8-0.9-1.3s-0.3-1.1-0.3-1.8c0-0.7,0.1-1.3,0.4-1.9c0.3-0.6,0.7-1.1,1.2-1.6c0.5-0.5,1.2-0.8,1.9-1.1
			c0.8-0.3,1.7-0.4,2.7-0.4c1.1,0,2.1,0.2,3.1,0.6s1.7,0.9,2.3,1.5L136,47.3z"/>
	</g>
</g>
<g>
</g>
<g>
</g>
<g>
</g>
<g>
</g>
<g>
</g>
<g>
</g>
<g>
</g>
<g>
</g>
<g>
</g>
<g>
</g>
<g>
</g>
<g>
</g>
<g>
</g>
<g>
</g>
<g>
</g>
</svg>
