<?xml version="1.0" encoding="utf-8"?>
<!-- Generated by IcoMoon.io -->
<!DOCTYPE svg PUBLIC "-//W3C//DTD SVG 1.1//EN" "http://www.w3.org/Graphics/SVG/1.1/DTD/svg11.dtd">
<svg version="1.1" xmlns="http://www.w3.org/2000/svg" xmlns:xlink="http://www.w3.org/1999/xlink" width="30" height="32" viewBox="0 0 30 32">
	<path d="M2.988 16.948c-0.381 0-3.118 8.297-2.737 8.297s13.295 0 13.628 0c0.333 0-2.351-8.297-2.737-8.297s-7.773 0-8.153 0z" fill="#000000"></path>
	<path d="M18.954 16.948c-0.381 0-3.118 8.297-2.737 8.297s13.295 0 13.628 0c0.333 0-2.351-8.297-2.737-8.297s-7.773 0-8.153 0z" fill="#000000"></path>
	<path d="M10.971 6.237c-0.381 0-3.118 8.297-2.737 8.297s13.295 0 13.628 0c0.333 0-2.351-8.297-2.737-8.297s-7.773 0-8.153 0z" fill="#000000"></path>
</svg>
