<?xml version="1.0" encoding="utf-8"?>
<!-- Generated by IcoMoon.io -->
<!DOCTYPE svg PUBLIC "-//W3C//DTD SVG 1.1//EN" "http://www.w3.org/Graphics/SVG/1.1/DTD/svg11.dtd">
<svg version="1.1" xmlns="http://www.w3.org/2000/svg" xmlns:xlink="http://www.w3.org/1999/xlink" width="30" height="32" viewBox="0 0 30 32">
	<path d="M16.998 28.493c1.754 3.247 5.81 4.457 9.056 2.703 3.248-1.755 4.458-5.81 2.703-9.056-1.229-2.275-3.588-3.548-6.005-3.505l-0.001-0.029c-0.703 0.074-1.41-0.145-1.95-0.602-1.048-0.8-1.339-2.279-0.633-3.425 0.555-0.902 1.573-1.345 2.559-1.213 2.218-0.024 4.376-1.15 5.625-3.179 1.935-3.143 0.955-7.259-2.187-9.194-3.143-1.935-7.26-0.956-9.194 2.188-1.355 2.201-1.279 4.88-0.032 6.953h-0.001c0.096 0.164 0.189 0.329 0.278 0.497l-0.021 0.011c0.004 0.009 0.007 0.018 0.011 0.028 0.158 0.348 0.243 0.737 0.231 1.146-0.040 1.434-1.236 2.564-2.67 2.523-1.051-0.029-1.939-0.682-2.322-1.592-0.001-0.003-0.002-0.005-0.004-0.008-0.009-0.015-0.017-0.030-0.025-0.045-1.134-1.89-3.178-3.181-5.545-3.248-3.689-0.104-6.764 2.803-6.868 6.492-0.104 3.69 2.803 6.765 6.491 6.869 2.585 0.073 4.866-1.332 6.038-3.449l0.025 0.014c0.416-0.932 1.362-1.57 2.446-1.54 0.155 0.004 0.307 0.023 0.454 0.053 0.752 0.135 1.438 0.598 1.83 1.323 0.504 0.932 0.378 2.035-0.23 2.823-1.089 1.934-1.192 4.365-0.060 6.461z" fill="#000000" />
</svg>
