<?xml version="1.0" encoding="utf-8"?>
<!-- Generator: Adobe Illustrator 18.1.0, SVG Export Plug-In . SVG Version: 6.00 Build 0)  -->
<!DOCTYPE svg PUBLIC "-//W3C//DTD SVG 1.1//EN" "http://www.w3.org/Graphics/SVG/1.1/DTD/svg11.dtd">
<svg version="1.1" id="Ebene_1" xmlns="http://www.w3.org/2000/svg" xmlns:xlink="http://www.w3.org/1999/xlink" x="0px" y="0px"
	 viewBox="448.1 381.6 708 138" enable-background="new 448.1 381.6 708 138" xml:space="preserve">
<g>
	<g>
		<path fill="#232323" d="M586.5,482.6v-60.8h17.6v5.3c1.2-1.6,2.5-2.5,4.5-3.8c3.3-2,6.9-2.8,11.1-2.8c1.2,0,2,0,2.8,0.5
			c0.8,0.5,2,0.5,2.5,0.5l1.2,0.5v17.3l-2-0.5c-1.2-0.5-2.5-0.5-3.3-0.8c-1.2-0.5-2-0.5-3.3-0.5c-2.8,0-5.3,0.5-6.9,1.6
			c-2,1.3-3.3,2.5-4.1,3.8c-1.2,1.2-1.6,2.8-2,4.1c-0.5,2-0.5,2.8-0.5,3.3v32.4H586.5L586.5,482.6z"/>
		<path fill="#232323" d="M634.5,482.6v-60.8h17.6v60.8H634.5z"/>
		<path fill="#232323" d="M634.1,404.2c0-2.5,0.8-4.1,2.5-6.1c1.6-1.6,4.1-2.5,6.6-2.5s4.9,0.8,6.6,2.5c1.6,1.6,2.5,3.8,2.5,6.1
			c0,2.5-0.5,4.5-2,6.1c-2,1.6-4.1,2.5-6.6,2.5s-4.9-0.8-6.6-2.5C635.3,408.8,634.1,406.7,634.1,404.2z"/>
		<path fill="#232323" d="M663.8,509.8v-87.8h16.8v5.8c2-2,3.8-3.3,6.1-4.5c3.8-1.6,7.4-2.5,11.9-2.5c4.5,0,8.6,0.8,12.3,2.5
			c3.6,1.7,6.9,4.1,9.4,6.9s4.5,6.1,6.1,9.9c1.2,3.8,2,7.8,2,12.3c0,4.4-0.8,8.6-2,12.3c-1.2,4.1-3.3,6.9-6.1,9.9
			c-2.5,2.8-5.8,5.3-9.4,6.9c-3.8,1.6-7.8,2.5-11.9,2.5c-2.8,0-5.3-0.5-7.8-0.8c-2-0.5-4.1-1.2-5.8-2.5c-1.7-1.3-3.3-2-4.1-2.8
			l-0.5-0.5v32.4h-17V509.8z M695.7,437c-2.5,0-4.5,0.5-6.1,1.2c-2,0.8-3.3,2-4.9,3.3c-1.2,1.2-2.5,3.3-2.8,4.9
			c-0.8,2-1.2,4.1-1.2,5.8c0,2,0.5,4.1,1.2,5.8c0.8,2,1.6,3.3,2.8,4.9c1.2,1.2,2.8,2.5,4.9,3.3c2,0.8,4.1,1.2,6.1,1.2
			c2,0,4.5-0.5,6.1-1.2c2-0.8,3.3-2,4.9-3.3c1.6-1.2,2.5-3.3,2.8-4.9c0.8-2,1.2-4.1,1.2-5.8c0-2-0.5-4.1-1.2-5.8
			c-0.8-2-1.6-3.3-2.8-4.9c-1.2-1.3-2.8-2.5-4.9-3.3C699.8,437.5,698.2,437,695.7,437z"/>
		<path fill="#232323" d="M735.9,509.8v-87.8h16.8v5.8c2-2,3.8-3.3,6.1-4.5c3.8-1.6,7.8-2.5,11.9-2.5c4.5,0,8.6,0.8,12.3,2.5
			c3.8,1.6,6.9,4.1,9.4,6.9s4.5,6.1,6.1,9.9c1.2,3.8,2,7.8,2,12.3c0,4.4-0.8,8.6-2,12.3c-1.3,4.1-3.3,6.9-6.1,9.9
			c-2.5,2.8-5.8,5.3-9.4,6.9c-3.8,1.6-7.8,2.5-11.9,2.5c-2.8,0-5.3-0.5-7.8-0.8c-2-0.5-4.1-1.2-5.8-2.5c-1.6-1.3-3.3-2-4.5-2.8
			l-0.5-0.5v32.4h-16.6V509.8z M768.4,437c-2.5,0-4.5,0.5-6.1,1.2c-2,0.8-3.3,2-4.9,3.3c-1.2,1.2-2.5,3.3-2.8,4.9
			c-0.8,2-1.3,4.1-1.3,5.8c0,2,0.5,4.1,1.3,5.8c0.8,2,1.6,3.3,2.8,4.9c1.2,1.2,2.8,2.5,4.9,3.3c2,0.8,4.1,1.2,6.1,1.2
			c2.5,0,4.5-0.5,6.1-1.2c2-0.8,3.3-2,4.9-3.3c1.2-1.2,2.5-3.3,2.8-4.9c0.8-2,1.3-4.1,1.3-5.8c0-2-0.5-4.1-1.3-5.8
			c-0.8-2-1.6-3.3-2.8-4.9c-1.2-1.3-2.8-2.5-4.9-3.3C773,437.5,770.8,437,768.4,437z"/>
		<rect x="808.6" y="390.2" fill="#232323" width="17.6" height="93.6"/>
		<path fill="#232323" d="M866.1,483.9c-4.5,0-8.6-0.8-12.7-2.5c-4.1-1.7-7.4-3.7-10.7-6.1c-2.8-2.8-5.3-6.1-6.9-9.9
			c-2-4.1-2.5-8.2-2.5-13.2c0-4.9,0.8-9.4,2.5-13.2c1.6-4.1,4.1-6.9,6.9-9.9c2.8-2.5,6.1-4.9,10.7-6.1c4.1-1.6,8.2-2.5,12.7-2.5
			c4.1,0,8.2,0.8,11.5,2c3.3,1.6,6.6,3.7,9,6.1c2.5,2.8,4.5,6.1,5.8,10.2s2,8.6,2,14v5.8h-43.1c0.5,2.8,2,5.3,4.1,6.9
			c2.5,2,5.8,3.3,9.4,3.3c3.3,0,6.1-0.5,8.2-2c2-1.2,4.1-3.3,5.8-5.3l1.3-1.3l13.2,9.9l-1.3,1.2c-3.3,4.1-7.4,7.4-11.9,9.4
			C875.6,483.1,870.6,483.9,866.1,483.9z M876.8,444.9c-0.5-2.8-1.2-5.3-3.3-6.9c-2-2-5.3-3.3-9.4-3.3s-6.9,1.2-9,3.3
			c-2,2-3.3,4.1-3.8,6.9H876.8L876.8,444.9z"/>
	</g>
	<g>
		
			<radialGradient id="SVGID_1_" cx="-3159.7124" cy="-182.5775" r="413.1227" gradientTransform="matrix(0.134 0 0 -0.134 943.0892 426.7888)" gradientUnits="userSpaceOnUse">
			<stop  offset="0" style="stop-color:#4F92B9"/>
			<stop  offset="1" style="stop-color:#3C6AAB"/>
		</radialGradient>
		<path fill="url(#SVGID_1_)" d="M551.1,463.9c-4.1-2.4-8.6-3.4-13.2-3.2c-1.7,0-3.3-0.5-4.8-1.2c-3-1.7-4.8-4.9-4.8-8.2
			c0-3.4,1.8-6.5,4.8-8.2c1.5-0.8,3.1-1.3,4.8-1.3c4.5,0.2,9.1-0.8,13.2-3.2c7.4-4.3,12-12.3,12-20.8s-4.5-16.5-12-20.8
			c-7.4-4.3-16.6-4.3-24,0s-12,12.3-12,20.8c0,4.7,1.4,9.1,3.8,13c0.9,1.5,1.4,3.1,1.4,4.9c0,3.4-1.8,6.5-4.8,8.2
			c-1.5,0.8-3.1,1.3-4.8,1.3s-3.3-0.5-4.8-1.3c-1.5-0.9-2.7-2.2-3.5-3.5c-2-4-5.2-7.4-9.3-9.8c-7.4-4.3-16.6-4.3-24,0
			c-7.3,4.1-11.9,12-11.9,20.6s4.5,16.5,12,20.8c7.4,4.3,16.6,4.3,24,0c4-2.3,7.3-5.7,9.3-9.8c0.8-1.5,2-2.7,3.5-3.5
			s3.1-1.2,4.8-1.2c1.7,0,3.3,0.5,4.8,1.2c3,1.7,4.8,4.9,4.8,8.2c0,1.7-0.5,3.4-1.4,4.9c-2.4,3.8-3.8,8.3-3.8,13
			c0,8.5,4.5,16.5,12,20.8c7.4,4.3,16.6,4.3,24,0c7.4-4.3,12-12.3,12-20.8C563.3,476.1,558.6,468.1,551.1,463.9z"/>
	</g>
</g>
<g enable-background="new    ">
	<path fill="#3B6AAC" d="M925.7,478.5c3.3,0,6.6-0.5,9-0.8v4.5c-2.5,0.8-5.8,1.2-9,1.2c-5.3,0-9-1.2-11.9-4.1
		c-2.8-2.8-3.7-7.4-3.7-13.2v-39.4h-9V424l9-2.5l2.8-13.5h2.8v14.3h17.6v4.5h-17.6v37.7c0,4.5,0.8,7.8,2.5,10.2
		C919.4,477.3,921.9,478.5,925.7,478.5z"/>
	<path fill="#3B6AAC" d="M965.9,421c2.5,0,5.3,0.5,8.2,0.8l-1.2,5.3c-2.5-0.8-4.9-0.8-7.8-0.8c-4.9,0-9.4,2-12.7,6.6
		c-3.3,4.5-4.9,9.9-4.9,16.5v33.3H942v-60.3h4.5l0.5,10.7h0.5c2.5-4.5,4.9-7.4,7.8-9.4C958.5,421.9,961.7,421,965.9,421z"/>
	<path fill="#3B6AAC" d="M1017.6,482.3l-1.2-9.4h-0.5c-2.8,3.7-6.1,6.6-9.4,8.2c-3.3,1.6-6.9,2.5-11.1,2.5c-5.8,0-10.2-1.6-13.5-4.5
		c-3.3-2.8-4.9-6.9-4.9-12.3c0-5.8,2.5-10.2,7.4-13.5s11.9-4.9,20.9-4.9l11.5-0.5v-4.1c0-5.8-1.2-9.9-3.3-12.7
		c-2.5-2.8-6.1-4.5-11.1-4.5c-5.8,0-11.5,1.6-17.3,4.5l-2-4.9c6.6-3.3,13.2-4.5,19.7-4.5s11.5,1.6,14.8,4.9c3.3,3.3,4.9,8.6,4.9,16
		v39.8L1017.6,482.3L1017.6,482.3z M995.5,478.1c6.6,0,11.5-1.6,15.2-5.3c3.8-3.8,5.3-8.6,5.3-15.2v-6.1l-10.2,0.5
		c-8.2,0.5-14.3,1.6-18.1,4.1c-3.8,2-5.3,5.8-5.3,10.2c0,3.8,1.2,6.6,3.3,8.6C988.1,477.3,991.4,478.1,995.5,478.1z"/>
	<path fill="#3B6AAC" d="M1057.4,421c4.5,0,8.2,0.8,11.1,2.5c3.3,1.6,6.1,4.1,8.6,8.2h0.5c-0.5-4.5-0.5-9-0.5-13.5v-21.7h5.3v85.8
		h-3.8l-1.2-9h-0.5c-4.5,6.9-11.1,10.2-19.7,10.2c-8.2,0-14.8-2.5-18.9-7.8c-4.5-5.3-6.6-12.7-6.6-22.6c0-10.2,2-18.5,6.6-23.9
		C1043.1,424,1049.2,421,1057.4,421z M1057.4,426c-6.6,0-11.5,2.5-14.8,6.9c-3.3,4.4-4.9,11.1-4.9,20.1c0,16.8,6.6,25.5,19.7,25.5
		c6.6,0,11.9-2,14.8-5.8c2.8-3.8,4.9-10.2,4.9-19.3v-0.8c0-9.4-1.6-16-4.5-20.1C1069.8,428.1,1064.4,426,1057.4,426z"/>
	<path fill="#3B6AAC" d="M1121.8,483.1c-8.6,0-15.6-2.8-20.6-8.2c-4.9-5.3-7.4-12.7-7.4-22.6c0-9.4,2.5-17.3,6.9-23
		c4.5-5.8,11.1-8.6,18.9-8.6c6.9,0,12.7,2.5,16.8,7.4c4.1,4.9,6.1,11.5,6.1,20.1v4.5h-43.1c0,8.2,2,14.3,5.8,18.9
		c3.8,4.5,9,6.6,16,6.6c3.3,0,6.6-0.5,9-0.8c2.5-0.5,5.8-1.6,9.9-3.3v4.9c-3.3,1.6-6.6,2.5-9.4,2.8
		C1128.4,483.1,1125.1,483.1,1121.8,483.1z M1120.2,426c-5.8,0-10.2,2-14,5.8c-3.3,3.7-5.3,9.4-6.1,16.5h36.9
		c0-6.9-1.6-12.3-4.5-16.5C1129.7,428.1,1125.6,426,1120.2,426z"/>
</g>
</svg>
