<?xml version="1.0" encoding="utf-8"?>
<!-- Generator: Adobe Illustrator 18.1.0, SVG Export Plug-In . SVG Version: 6.00 Build 0)  -->
<svg version="1.1" xmlns="http://www.w3.org/2000/svg" xmlns:xlink="http://www.w3.org/1999/xlink" x="0px" y="0px"
	 viewBox="0 0 628.9 245.5" enable-background="new 0 0 628.9 245.5" xml:space="preserve">
<g id="Reference">
</g>
<g id="Guides">
</g>
<g id="Worklayer">
	<g>
		
			<text transform="matrix(0.9869 0 0.1614 0.9869 38.7481 236.9692)" opacity="0.1" fill="#1F527C" font-family="'CFLCD-Regular'" font-size="245.5195" letter-spacing="4.1">OOO</text>
		<g>
			<polygon opacity="0.5" fill="#FFFFFF" points="105.9,128.6 107.4,149.6 49.9,233.7 30,240.1 28.6,219.3 86.2,134.8 			"/>
			<polygon fill="#FFFFFF" points="196.7,3.8 197.9,24.8 139,108.6 118.8,115 117.6,94.3 177,10.3 			"/>
			<polygon fill="#FFFFFF" points="121.5,128.6 120.5,149.6 178.7,233.7 198.8,240.1 199.8,219.3 141.3,134.8 			"/>
			<polygon opacity="0.5" fill="#FFFFFF" points="255,44.4 255.3,99 242.4,115.8 229.6,99.2 229.2,6.1 			"/>
			<polygon fill="#FFFFFF" points="369.2,18.7 352.5,31.5 260,31.5 241.6,6.1 352.8,6.1 			"/>
			<polygon fill="#FFFFFF" points="369.6,122.9 353.2,135.8 268.9,135.8 252.3,122.9 268.7,110.3 353.3,110.3 			"/>
			<polygon fill="#FFFFFF" points="383.4,242.1 363.7,234.4 320.8,167.2 323,146.2 342.3,153.8 385.8,221.5 			"/>
			<polygon fill="#FFFFFF" points="451.9,45.6 452.2,100.5 439.6,117 426.8,100.5 426.4,7.3 			"/>
			<polygon fill="#FFFFFF" points="439.6,133.3 452.4,150.1 452.8,226.7 440,243.3 427.4,227 426.9,149.9 			"/>
			<polygon fill="#FFFFFF" points="566.1,19.9 549.6,32.7 457,32.7 438.5,7.3 549.7,7.3 			"/>
			<g>
				<polygon opacity="0.3" fill="#1A4A6B" points="29.6,3.8 28.6,24.8 88.3,108.6 108.4,115 109.4,94.3 49.5,10.3 				"/>
				<polygon opacity="0.3" fill="#1A4A6B" points="242.6,132.1 255.5,148.9 255.9,225.5 243.1,242.1 230.3,225.7 230,148.6 				"/>
				<polygon opacity="0.3" fill="#1A4A6B" points="379,27.6 391.9,44.4 392.2,99 379.6,115.8 366.8,99.2 366.4,44.1 				"/>
				<polygon opacity="0.3" fill="#1A4A6B" points="566.6,124.2 550.1,137 466.1,137 449.4,124.2 465.7,111.6 550.2,111.6 				"/>
			</g>
			<polygon opacity="0.5" fill="#FFFFFF" points="575.9,28.8 589.1,45.6 589.4,100.5 576.5,117 563.7,100.5 563.6,45.3 			"/>
		</g>
	</g>
</g>
<g id="UserA" display="none">
</g>
<g id="UserB" display="none">
</g>
<g id="UserC">
</g>
<g id="Layer_5">
</g>
<g id="DD_x5F_Currencies" display="none">
</g>
</svg>
