<?xml version="1.0" encoding="utf-8"?>
<!-- Generator: Adobe Illustrator 18.1.0, SVG Export Plug-In . SVG Version: 6.00 Build 0)  -->
<svg version="1.1" xmlns="http://www.w3.org/2000/svg" xmlns:xlink="http://www.w3.org/1999/xlink" x="0px" y="0px"
	 viewBox="0 0 172.2 33.5" enable-background="new 0 0 172.2 33.5" xml:space="preserve">
<g id="Reference">
</g>
<g id="Guides">
</g>
<g id="Worklayer">
	<g>
		<g>
			<g>
				<path fill="#232323" d="M34.1,24.7V9.9h4.3v1.3c0.3-0.4,0.6-0.6,1.1-0.9c0.8-0.5,1.7-0.7,2.7-0.7c0.3,0,0.5,0,0.7,0.1
					c0.2,0.1,0.5,0.1,0.6,0.1l0.3,0.1v4.3L43.4,14c-0.3-0.1-0.6-0.1-0.8-0.2c-0.3-0.1-0.5-0.1-0.8-0.1c-0.7,0-1.3,0.1-1.7,0.4
					c-0.5,0.3-0.8,0.6-1,0.9c-0.3,0.3-0.4,0.7-0.5,1c-0.1,0.5-0.1,0.6-0.1,0.8v7.9L34.1,24.7L34.1,24.7z"/>
				<path fill="#232323" d="M45.8,24.7V9.9h4.3v14.8H45.8z"/>
				<path fill="#232323" d="M45.8,5.6c0-0.6,0.2-1,0.6-1.5c0.4-0.4,1-0.6,1.6-0.6s1.2,0.2,1.6,0.6s0.6,0.9,0.6,1.5S50.1,6.7,49.6,7
					c-0.5,0.4-1,0.6-1.6,0.6S46.8,7.4,46.4,7C46,6.7,45.8,6.2,45.8,5.6z"/>
				<path fill="#232323" d="M52.9,31.3V9.9H57v1.4c0.5-0.5,0.9-0.8,1.5-1.1c0.9-0.4,1.9-0.6,2.9-0.6c1.1,0,2.1,0.2,3,0.6
					c0.9,0.4,1.7,1,2.3,1.7c0.6,0.7,1.1,1.5,1.5,2.4c0.3,0.9,0.5,1.9,0.5,3s-0.2,2.1-0.5,3c-0.3,1-0.8,1.7-1.5,2.4
					c-0.6,0.7-1.4,1.3-2.3,1.7c-0.9,0.4-1.9,0.6-2.9,0.6c-0.7,0-1.3-0.1-1.9-0.2c-0.5-0.1-1-0.3-1.4-0.6c-0.4-0.3-0.8-0.5-1-0.7
					l-0.1-0.1v7.9L52.9,31.3L52.9,31.3z M60.8,13.6c-0.6,0-1.1,0.1-1.5,0.3c-0.5,0.2-0.8,0.5-1.2,0.8c-0.3,0.3-0.6,0.8-0.7,1.2
					c-0.2,0.5-0.3,1-0.3,1.4c0,0.5,0.1,1,0.3,1.4c0.2,0.5,0.4,0.8,0.7,1.2c0.3,0.3,0.7,0.6,1.2,0.8c0.5,0.2,1,0.3,1.5,0.3
					s1.1-0.1,1.5-0.3c0.5-0.2,0.8-0.5,1.2-0.8c0.3-0.3,0.6-0.8,0.7-1.2c0.2-0.5,0.3-1,0.3-1.4c0-0.5-0.1-1-0.3-1.4
					c-0.2-0.5-0.4-0.8-0.7-1.2c-0.3-0.3-0.7-0.6-1.2-0.8S61.3,13.6,60.8,13.6z"/>
				<path fill="#232323" d="M70.5,31.3V9.9h4.1v1.4c0.5-0.5,0.9-0.8,1.5-1.1C77,9.8,78,9.6,79,9.6c1.1,0,2.1,0.2,3,0.6
					s1.7,1,2.3,1.7c0.6,0.7,1.1,1.5,1.5,2.4c0.3,0.9,0.5,1.9,0.5,3s-0.2,2.1-0.5,3s-0.8,1.7-1.5,2.4c-0.6,0.7-1.4,1.3-2.3,1.7
					c-0.9,0.4-1.9,0.6-2.9,0.6c-0.7,0-1.3-0.1-1.9-0.2c-0.5-0.1-1-0.3-1.4-0.6c-0.4-0.3-0.8-0.5-1.1-0.7l-0.1-0.1v7.9L70.5,31.3
					L70.5,31.3z M78.4,13.6c-0.6,0-1.1,0.1-1.5,0.3c-0.5,0.2-0.8,0.5-1.2,0.8c-0.3,0.3-0.6,0.8-0.7,1.2c-0.2,0.5-0.3,1-0.3,1.4
					c0,0.5,0.1,1,0.3,1.4c0.2,0.5,0.4,0.8,0.7,1.2c0.3,0.3,0.7,0.6,1.2,0.8c0.5,0.2,1,0.3,1.5,0.3c0.6,0,1.1-0.1,1.5-0.3
					c0.5-0.2,0.8-0.5,1.2-0.8c0.3-0.3,0.6-0.8,0.7-1.2c0.2-0.5,0.3-1,0.3-1.4c0-0.5-0.1-1-0.3-1.4c-0.2-0.5-0.4-0.8-0.7-1.2
					c-0.3-0.3-0.7-0.6-1.2-0.8C79.5,13.7,79,13.6,78.4,13.6z"/>
				<rect x="88.2" y="2.1" fill="#232323" width="4.3" height="22.8"/>
				<path fill="#232323" d="M102.2,25c-1.1,0-2.1-0.2-3.1-0.6c-1-0.4-1.8-0.9-2.6-1.5c-0.7-0.7-1.3-1.5-1.7-2.4
					c-0.5-1-0.6-2-0.6-3.2c0-1.2,0.2-2.3,0.6-3.2c0.4-1,1-1.7,1.7-2.4c0.7-0.6,1.5-1.2,2.6-1.5c1-0.4,2-0.6,3.1-0.6
					c1,0,2,0.2,2.8,0.5c0.8,0.4,1.6,0.9,2.2,1.5c0.6,0.7,1.1,1.5,1.4,2.5c0.3,1,0.5,2.1,0.5,3.4v1.4H98.6c0.1,0.7,0.5,1.3,1,1.7
					c0.6,0.5,1.4,0.8,2.3,0.8c0.8,0,1.5-0.1,2-0.5c0.5-0.3,1-0.8,1.4-1.3l0.3-0.3l3.2,2.4l-0.3,0.3c-0.8,1-1.8,1.8-2.9,2.3
					C104.5,24.8,103.4,25,102.2,25z M104.8,15.5c-0.1-0.7-0.3-1.3-0.8-1.7c-0.5-0.5-1.3-0.8-2.3-0.8c-1,0-1.7,0.3-2.2,0.8
					c-0.5,0.5-0.8,1-0.9,1.7L104.8,15.5L104.8,15.5z"/>
			</g>
			<radialGradient id="SVGID_1_" cx="17.7641" cy="16.8949" r="13.4273" gradientUnits="userSpaceOnUse">
				<stop  offset="0" style="stop-color:#4192B7"/>
				<stop  offset="1" style="stop-color:#3369A8"/>
			</radialGradient>
			<path fill="url(#SVGID_1_)" d="M25.4,20c-1-0.6-2.1-0.8-3.2-0.8c-0.4,0-0.8-0.1-1.1-0.3c-0.7-0.4-1.2-1.2-1.2-2s0.4-1.6,1.2-2
				c0.3-0.2,0.7-0.3,1.2-0.3c1.1,0.1,2.2-0.2,3.2-0.8c1.8-1,2.9-3,2.9-5.1c0-1.9-0.9-3.7-2.5-4.8c-0.1-0.1-0.3-0.2-0.4-0.3
				c-1.8-1-4-1-5.8,0c-1.8,1-2.9,3-2.9,5.1c0,1.1,0.3,2.2,0.9,3.1c0.2,0.4,0.3,0.8,0.3,1.2c0,0.8-0.4,1.6-1.2,2
				c-0.3,0.2-0.7,0.3-1.2,0.3c-0.4,0-0.8-0.1-1.2-0.3c-0.4-0.2-0.7-0.5-0.9-0.9c-0.5-1-1.3-1.8-2.3-2.4c-1.8-1-4-1-5.8,0
				c0,0,0,0,0,0c-1.8,1-2.9,3-2.9,5c0,2,1.1,3.9,2.8,5c0,0,0.1,0.1,0.1,0.1c1.8,1,4,1,5.8,0c1-0.6,1.8-1.4,2.3-2.4
				c0.2-0.4,0.5-0.7,0.9-0.9c0.3-0.2,0.7-0.3,1.2-0.3c0.4,0,0.8,0.1,1.2,0.3c0.7,0.4,1.2,1.2,1.2,2c0,0.4-0.1,0.8-0.3,1.2
				c-0.6,0.9-0.9,2-0.9,3.1c0,2.1,1.1,4,2.9,5.1c1.8,1,4,1,5.8,0c0.2-0.1,0.4-0.2,0.5-0.3c1.5-1.1,2.4-2.8,2.4-4.7
				C28.3,22.9,27.2,21,25.4,20z"/>
		</g>
		<g enable-background="new    ">
			<path fill="#336AAA" d="M116.7,23.6c0.8,0,1.6-0.1,2.2-0.2v1.1c-0.6,0.2-1.4,0.3-2.2,0.3c-1.3,0-2.2-0.3-2.9-1
				c-0.6-0.7-0.9-1.8-0.9-3.2v-9.4h-2.2v-0.8l2.2-0.6l0.7-3.3h0.7V10h4.3v1.2h-4.3v9.2c0,1.1,0.2,1.9,0.6,2.5
				C115.2,23.4,115.9,23.6,116.7,23.6z"/>
			<path fill="#336AAA" d="M126.5,9.7c0.6,0,1.3,0.1,2,0.2l-0.3,1.3c-0.6-0.2-1.2-0.2-1.9-0.2c-1.2,0-2.3,0.5-3.1,1.6
				c-0.8,1.1-1.2,2.4-1.2,4v8.1h-1.3V10h1.1l0.1,2.6h0.1c0.6-1.1,1.2-1.8,1.9-2.3S125.6,9.7,126.5,9.7z"/>
			<path fill="#336AAA" d="M139.1,24.6l-0.3-2.3h-0.1c-0.7,0.9-1.5,1.6-2.3,2s-1.7,0.6-2.7,0.6c-1.4,0-2.5-0.4-3.3-1.1
				c-0.8-0.7-1.2-1.7-1.2-3c0-1.4,0.6-2.5,1.8-3.3s2.9-1.2,5.1-1.2l2.8-0.1v-1c0-1.4-0.3-2.4-0.8-3.1c-0.6-0.7-1.5-1.1-2.7-1.1
				c-1.4,0-2.8,0.4-4.2,1.1l-0.5-1.2c1.6-0.8,3.2-1.1,4.8-1.1c1.6,0,2.8,0.4,3.6,1.2c0.8,0.8,1.2,2.1,1.2,3.9v9.7H139.1z
				 M133.7,23.6c1.6,0,2.8-0.4,3.7-1.3c0.9-0.9,1.3-2.1,1.3-3.7v-1.4l-2.6,0.1c-2,0.1-3.5,0.4-4.4,1s-1.3,1.4-1.3,2.5
				c0,0.9,0.3,1.6,0.8,2.1C131.9,23.4,132.7,23.6,133.7,23.6z"/>
			<path fill="#336AAA" d="M148.9,9.7c1.1,0,2,0.2,2.7,0.6s1.5,1,2.1,2h0.1c-0.1-1.1-0.1-2.2-0.1-3.3V3.7h1.3v20.9h-0.9l-0.3-2.2
				h-0.1c-1.1,1.7-2.7,2.5-4.8,2.5c-2,0-3.6-0.6-4.6-1.9c-1.1-1.3-1.6-3.1-1.6-5.5c0-2.5,0.5-4.5,1.6-5.8
				C145.3,10.4,146.9,9.7,148.9,9.7z M148.9,10.9c-1.6,0-2.8,0.6-3.6,1.7s-1.2,2.7-1.2,4.9c0,4.1,1.6,6.2,4.8,6.2
				c1.6,0,2.9-0.5,3.6-1.4c0.8-1,1.2-2.5,1.2-4.7v-0.2c0-2.3-0.4-3.9-1.1-4.9C151.8,11.4,150.6,10.9,148.9,10.9z"/>
			<path fill="#336AAA" d="M164.5,24.8c-2.1,0-3.8-0.7-5-2c-1.2-1.3-1.8-3.1-1.8-5.5c0-2.3,0.6-4.2,1.7-5.6c1.1-1.4,2.7-2.1,4.6-2.1
				c1.7,0,3.1,0.6,4.1,1.8c1,1.2,1.5,2.8,1.5,4.9v1.1h-10.5c0,2,0.5,3.5,1.4,4.6c0.9,1.1,2.2,1.6,3.9,1.6c0.8,0,1.6-0.1,2.2-0.2
				c0.6-0.1,1.4-0.4,2.4-0.8v1.2c-0.8,0.4-1.6,0.6-2.3,0.7C166.1,24.8,165.4,24.8,164.5,24.8z M164.1,10.9c-1.4,0-2.5,0.5-3.4,1.4
				c-0.9,0.9-1.3,2.3-1.5,4h9c0-1.7-0.4-3-1.1-4C166.4,11.3,165.4,10.9,164.1,10.9z"/>
		</g>
	</g>
</g>
<g id="UserA" display="none">
</g>
<g id="UserB" display="none">
</g>
<g id="UserC">
</g>
<g id="Layer_5">
</g>
<g id="DD_x5F_Currencies" display="none">
</g>
</svg>
