<?xml version="1.0" encoding="utf-8"?>
<!-- Generator: Adobe Illustrator 18.1.0, SVG Export Plug-In . SVG Version: 6.00 Build 0)  -->
<svg version="1.1" xmlns="http://www.w3.org/2000/svg" xmlns:xlink="http://www.w3.org/1999/xlink" x="0px" y="0px"
	 viewBox="0 0 149.4 149.4" enable-background="new 0 0 149.4 149.4" xml:space="preserve">
<g id="img_x5F_feature1.svg">
	<g>
		<linearGradient id="SVGID_1_" gradientUnits="userSpaceOnUse" x1="74.6816" y1="1.2431" x2="74.6816" y2="145.2437">
			<stop  offset="0" style="stop-color:#4F92B9"/>
			<stop  offset="1" style="stop-color:#3C6AAB"/>
		</linearGradient>
		<circle fill="url(#SVGID_1_)" cx="74.7" cy="74.7" r="71.5"/>
		<g>
			<g>
				<path fill="none" stroke="#FFFFFF" stroke-miterlimit="10" d="M93.9,82.4c-2.5-1.4-5.3-2.1-8.1-1.9c-1,0-2-0.3-2.9-0.8
					c-1.8-1-2.9-3-2.9-5c0-2.1,1.1-4,2.9-5c0.9-0.5,1.9-0.8,2.9-0.8c2.8,0.1,5.6-0.5,8.1-1.9c4.5-2.6,7.3-7.5,7.3-12.7
					c0-5.2-2.8-10.1-7.3-12.7c-4.5-2.6-10.1-2.6-14.7,0c-4.5,2.6-7.3,7.5-7.3,12.7c0,2.8,0.8,5.6,2.3,7.9c0.5,0.9,0.8,1.9,0.8,3
					c0,2.1-1.1,4-2.9,5c-0.9,0.5-1.9,0.8-2.9,0.8c-1,0-2-0.3-2.9-0.8c-0.9-0.5-1.6-1.3-2.2-2.2c-1.3-2.4-3.2-4.5-5.7-5.9
					c-4.5-2.6-10.1-2.6-14.7,0c-4.5,2.6-7.3,7.5-7.3,12.7c0,5.2,2.8,10.1,7.3,12.7c4.5,2.6,10.1,2.6,14.7,0c2.5-1.4,4.4-3.5,5.7-5.9
					c0.5-0.9,1.2-1.7,2.2-2.2c0.9-0.5,1.9-0.8,2.9-0.8c1,0,2,0.3,2.9,0.8c1.8,1,2.9,3,2.9,5c0,1.1-0.3,2.1-0.8,3
					c-1.5,2.3-2.3,5-2.3,7.9c0,5.2,2.8,10.1,7.3,12.7c4.5,2.6,10.1,2.6,14.7,0c4.5-2.6,7.3-7.5,7.3-12.7S98.4,85.1,93.9,82.4z"/>
			</g>
		</g>
	</g>
</g>
<g id="img_x5F_feature2.svg" display="none">
	<g display="inline">
		<linearGradient id="SVGID_2_" gradientUnits="userSpaceOnUse" x1="74.6816" y1="3.1757" x2="74.6816" y2="146.1875">
			<stop  offset="0" style="stop-color:#6E6E6E"/>
			<stop  offset="1" style="stop-color:#424242"/>
		</linearGradient>
		<circle fill="url(#SVGID_2_)" cx="74.7" cy="74.7" r="71.5"/>
		<ellipse fill="none" stroke="#FFFFFF" stroke-miterlimit="10" cx="53.2" cy="75.7" rx="18.1" ry="24.4"/>
		<g>
			<line fill="none" stroke="#FFFFFF" stroke-linecap="round" stroke-miterlimit="10" x1="83.9" y1="93.2" x2="107.4" y2="58.1"/>
			<g>
				<circle fill="none" stroke="#FFFFFF" stroke-linecap="round" stroke-miterlimit="10" cx="85.2" cy="65.2" r="8"/>
				<circle fill="none" stroke="#FFFFFF" stroke-linecap="round" stroke-miterlimit="10" cx="106.1" cy="86.1" r="8"/>
			</g>
		</g>
	</g>
</g>
<g id="img_x5F_feature3.svg" display="none">
	<g display="inline">
		<linearGradient id="SVGID_3_" gradientUnits="userSpaceOnUse" x1="74.6816" y1="3.1757" x2="74.6816" y2="146.1875">
			<stop  offset="0" style="stop-color:#4F92B9"/>
			<stop  offset="1" style="stop-color:#3C6AAB"/>
		</linearGradient>
		<circle fill="url(#SVGID_3_)" cx="74.7" cy="74.7" r="71.5"/>
		<circle fill="none" stroke="#FFFFFF" stroke-linecap="round" stroke-miterlimit="10" cx="34" cy="74.7" r="4.6"/>
		<circle fill="none" stroke="#FFFFFF" stroke-linecap="round" stroke-miterlimit="10" cx="34" cy="74.7" r="12.3"/>
		<circle fill="none" stroke="#FFFFFF" stroke-linecap="round" stroke-miterlimit="10" cx="111.8" cy="74.7" r="12.3"/>
		<line fill="none" stroke="#FFFFFF" stroke-linecap="round" stroke-miterlimit="10" x1="55.5" y1="74.7" x2="84.2" y2="74.7"/>
		<polyline fill="none" stroke="#FFFFFF" stroke-linecap="round" stroke-miterlimit="10" points="80.4,63.7 90.7,74 80.3,84.4 		"/>
	</g>
</g>
</svg>
